# Made in Blockbench 5.1.6
mtllib battery.mtl

o mesh
v 0.3187500000000004 0.7062499999999996 0.05820312499999998
v 0.3187500000000004 0.7062499999999996 -0.012748579545454535
v 0.3187500000000004 0.08750000000000001 0.05820312499999998
v 0.3187500000000004 0.08750000000000001 -0.012748579545454535
v 0.2062500000000004 0.7062499999999996 0.05820312499999998
v 0.2062500000000004 0.7062499999999996 -0.012748579545454535
v 0.2062500000000004 0.08750000000000001 0.05820312499999998
v 0.2062500000000004 0.08750000000000001 -0.012748579545454535
v 0.2625000000000004 0.7062499999999996 -0.04374999999999998
v 0.2625000000000004 0.7062499999999996 0.06875
v 0.2625000000000004 0.08750000000000001 -0.04374999999999998
v 0.2625000000000004 0.08750000000000001 0.06875
vt 0.25 0.75
vt 0.25 1
vt 0.125 1
vt 0.125 0.75
vt 0.125 1
vt 0 1
vt 0 0.75
vt 0.125 0.75
vt 0.25 0.875
vt 0.25 1
vt 0.125 1
vt 0.125 0.875
vt 0.125 1
vt 0 1
vt 0 0.875
vt 0.125 0.875
vt 0.25 1
vt 0.12499999999999999 1
vt 0.12499999999999999 0.875
vt 0.25 0.875
vt 0.12499999999999999 1
vt 0 1
vt 0 0.875
vt 0.12499999999999999 0.875
vt 0.25 1
vt 0 1
vt 0 0.875
vt 0.25 0.875
vt 0.25 0.875
vt 0.25 1
vt 0 1
vt 0 0.875
vt 0 0.75
vt 0.125 0.75
vt 0.125 1
vt 0 1
vt 0.125 0.75
vt 0.25 0.75
vt 0.25 1
vt 0.125 1
vn 0 -1 0
vn 0 -1 0
vn 0.1842885350501858 0 0.9828721869343219
vn -0.1842885350501858 0 0.9828721869343219
vn -0.4826826524989269 0 -0.8757953282454757
vn 0.4826826524989269 0 -0.8757953282454757
vn 1 0 0
vn -1 0 0
vn 0 1 0
vn 0 1 0
usemtl none
f 4/1/1 3/2/1 12/3/1 11/4/1
f 12/5/2 7/6/2 8/7/2 11/8/2
f 3/9/3 1/10/3 10/11/3 12/12/3
f 10/13/4 5/14/4 7/15/4 12/16/4
f 6/17/5 9/18/5 11/19/5 8/20/5
f 9/21/6 2/22/6 4/23/6 11/24/6
f 2/25/7 1/26/7 3/27/7 4/28/7
f 7/29/8 5/30/8 6/31/8 8/32/8
f 5/33/9 10/34/9 9/35/9 6/36/9
f 10/37/10 1/38/10 2/39/10 9/40/10
o mesh
v 0.1875000000000002 0.7062499999999996 0.05820312499999998
v 0.1875000000000002 0.7062499999999996 -0.012748579545454535
v 0.1875000000000002 0.08750000000000001 0.05820312499999998
v 0.1875000000000002 0.08750000000000001 -0.012748579545454535
v 0.0750000000000002 0.7062499999999996 0.05820312499999998
v 0.0750000000000002 0.7062499999999996 -0.012748579545454535
v 0.0750000000000002 0.08750000000000001 0.05820312499999998
v 0.0750000000000002 0.08750000000000001 -0.012748579545454535
v 0.1312500000000002 0.7062499999999996 -0.04374999999999998
v 0.1312500000000002 0.7062499999999996 0.06875
v 0.1312500000000002 0.08750000000000001 -0.04374999999999998
v 0.1312500000000002 0.08750000000000001 0.06875
vt 0.25 0.75
vt 0.25 1
vt 0.125 1
vt 0.125 0.75
vt 0.125 1
vt 0 1
vt 0 0.75
vt 0.125 0.75
vt 0.25 0.875
vt 0.25 1
vt 0.125 1
vt 0.125 0.875
vt 0.125 1
vt 0 1
vt 0 0.875
vt 0.125 0.875
vt 0.25 1
vt 0.12499999999999999 1
vt 0.12499999999999999 0.875
vt 0.25 0.875
vt 0.12499999999999999 1
vt 0 1
vt 0 0.875
vt 0.12499999999999999 0.875
vt 0.25 1
vt 0 1
vt 0 0.875
vt 0.25 0.875
vt 0.25 0.875
vt 0.25 1
vt 0 1
vt 0 0.875
vt 0 0.75
vt 0.125 0.75
vt 0.125 1
vt 0 1
vt 0.125 0.75
vt 0.25 0.75
vt 0.25 1
vt 0.125 1
vn 0 -1 0
vn 0 -1 0
vn 0.1842885350501858 0 0.9828721869343219
vn -0.1842885350501858 0 0.9828721869343219
vn -0.4826826524989269 0 -0.8757953282454757
vn 0.4826826524989269 0 -0.8757953282454757
vn 1 0 0
vn -1 0 0
vn 0 1 0
vn 0 1 0
usemtl none
f 16/41/11 15/42/11 24/43/11 23/44/11
f 24/45/12 19/46/12 20/47/12 23/48/12
f 15/49/13 13/50/13 22/51/13 24/52/13
f 22/53/14 17/54/14 19/55/14 24/56/14
f 18/57/15 21/58/15 23/59/15 20/60/15
f 21/61/16 14/62/16 16/63/16 23/64/16
f 14/65/17 13/66/17 15/67/17 16/68/17
f 19/69/18 17/70/18 18/71/18 20/72/18
f 17/73/19 22/74/19 21/75/19 18/76/19
f 22/77/20 13/78/20 14/79/20 21/80/20
o mesh
v -0.07499999999999973 0.7062499999999996 0.05820312499999998
v -0.07499999999999973 0.7062499999999996 -0.012748579545454535
v -0.07499999999999973 0.08750000000000001 0.05820312499999998
v -0.07499999999999973 0.08750000000000001 -0.012748579545454535
v -0.18749999999999972 0.7062499999999996 0.05820312499999998
v -0.18749999999999972 0.7062499999999996 -0.012748579545454535
v -0.18749999999999972 0.08750000000000001 0.05820312499999998
v -0.18749999999999972 0.08750000000000001 -0.012748579545454535
v -0.13124999999999973 0.7062499999999996 -0.04374999999999998
v -0.13124999999999973 0.7062499999999996 0.06875
v -0.13124999999999973 0.08750000000000001 -0.04374999999999998
v -0.13124999999999973 0.08750000000000001 0.06875
vt 0.25 0.75
vt 0.25 1
vt 0.125 1
vt 0.125 0.75
vt 0.125 1
vt 0 1
vt 0 0.75
vt 0.125 0.75
vt 0.25 0.875
vt 0.25 1
vt 0.125 1
vt 0.125 0.875
vt 0.125 1
vt 0 1
vt 0 0.875
vt 0.125 0.875
vt 0.25 1
vt 0.12499999999999999 1
vt 0.12499999999999999 0.875
vt 0.25 0.875
vt 0.12499999999999999 1
vt 0 1
vt 0 0.875
vt 0.12499999999999999 0.875
vt 0.25 1
vt 0 1
vt 0 0.875
vt 0.25 0.875
vt 0.25 0.875
vt 0.25 1
vt 0 1
vt 0 0.875
vt 0 0.75
vt 0.125 0.75
vt 0.125 1
vt 0 1
vt 0.125 0.75
vt 0.25 0.75
vt 0.25 1
vt 0.125 1
vn 0 -1 0
vn 0 -1 0
vn 0.1842885350501858 0 0.9828721869343219
vn -0.1842885350501858 0 0.9828721869343219
vn -0.4826826524989269 0 -0.8757953282454757
vn 0.4826826524989269 0 -0.8757953282454757
vn 1 0 0
vn -1 0 0
vn 0 1 0
vn 0 1 0
usemtl none
f 28/81/21 27/82/21 36/83/21 35/84/21
f 36/85/22 31/86/22 32/87/22 35/88/22
f 27/89/23 25/90/23 34/91/23 36/92/23
f 34/93/24 29/94/24 31/95/24 36/96/24
f 30/97/25 33/98/25 35/99/25 32/100/25
f 33/101/26 26/102/26 28/103/26 35/104/26
f 26/105/27 25/106/27 27/107/27 28/108/27
f 31/109/28 29/110/28 30/111/28 32/112/28
f 29/113/29 34/114/29 33/115/29 30/116/29
f 34/117/30 25/118/30 26/119/30 33/120/30
o mesh
v 0.05625000000000016 0.7062499999999996 0.05820312499999998
v 0.05625000000000016 0.7062499999999996 -0.012748579545454535
v 0.05625000000000016 0.08750000000000001 0.05820312499999998
v 0.05625000000000016 0.08750000000000001 -0.012748579545454535
v -0.05624999999999983 0.7062499999999996 0.05820312499999998
v -0.05624999999999983 0.7062499999999996 -0.012748579545454535
v -0.05624999999999983 0.08750000000000001 0.05820312499999998
v -0.05624999999999983 0.08750000000000001 -0.012748579545454535
v 1.6653345369377348e-16 0.7062499999999996 -0.04374999999999998
v 1.6653345369377348e-16 0.7062499999999996 0.06875
v 1.6653345369377348e-16 0.08750000000000001 -0.04374999999999998
v 1.6653345369377348e-16 0.08750000000000001 0.06875
vt 0.25 0.75
vt 0.25 1
vt 0.125 1
vt 0.125 0.75
vt 0.125 1
vt 0 1
vt 0 0.75
vt 0.125 0.75
vt 0.25 0.875
vt 0.25 1
vt 0.125 1
vt 0.125 0.875
vt 0.125 1
vt 0 1
vt 0 0.875
vt 0.125 0.875
vt 0.25 1
vt 0.12499999999999999 1
vt 0.12499999999999999 0.875
vt 0.25 0.875
vt 0.12499999999999999 1
vt 0 1
vt 0 0.875
vt 0.12499999999999999 0.875
vt 0.25 1
vt 0 1
vt 0 0.875
vt 0.25 0.875
vt 0.25 0.875
vt 0.25 1
vt 0 1
vt 0 0.875
vt 0 0.75
vt 0.125 0.75
vt 0.125 1
vt 0 1
vt 0.125 0.75
vt 0.25 0.75
vt 0.25 1
vt 0.125 1
vn 0 -1 0
vn 0 -1 0
vn 0.1842885350501858 0 0.9828721869343219
vn -0.1842885350501858 0 0.9828721869343219
vn -0.4826826524989269 0 -0.8757953282454757
vn 0.4826826524989269 0 -0.8757953282454757
vn 1 0 0
vn -1 0 0
vn 0 1 0
vn 0 1 0
usemtl none
f 40/121/31 39/122/31 48/123/31 47/124/31
f 48/125/32 43/126/32 44/127/32 47/128/32
f 39/129/33 37/130/33 46/131/33 48/132/33
f 46/133/34 41/134/34 43/135/34 48/136/34
f 42/137/35 45/138/35 47/139/35 44/140/35
f 45/141/36 38/142/36 40/143/36 47/144/36
f 38/145/37 37/146/37 39/147/37 40/148/37
f 43/149/38 41/150/38 42/151/38 44/152/38
f 41/153/39 46/154/39 45/155/39 42/156/39
f 46/157/40 37/158/40 38/159/40 45/160/40
o mesh
v -0.20624999999999996 0.7062499999999996 0.05820312499999998
v -0.20624999999999996 0.7062499999999996 -0.012748579545454535
v -0.20624999999999996 0.08750000000000001 0.05820312499999998
v -0.20624999999999996 0.08750000000000001 -0.012748579545454535
v -0.31875 0.7062499999999996 0.05820312499999998
v -0.31875 0.7062499999999996 -0.012748579545454535
v -0.31875 0.08750000000000001 0.05820312499999998
v -0.31875 0.08750000000000001 -0.012748579545454535
v -0.26249999999999996 0.7062499999999996 -0.04374999999999998
v -0.26249999999999996 0.7062499999999996 0.06875
v -0.26249999999999996 0.08750000000000001 -0.04374999999999998
v -0.26249999999999996 0.08750000000000001 0.06875
vt 0.25 0.75
vt 0.25 1
vt 0.125 1
vt 0.125 0.75
vt 0.125 1
vt 0 1
vt 0 0.75
vt 0.125 0.75
vt 0.25 0.875
vt 0.25 1
vt 0.125 1
vt 0.125 0.875
vt 0.125 1
vt 0 1
vt 0 0.875
vt 0.125 0.875
vt 0.25 1
vt 0.12499999999999999 1
vt 0.12499999999999999 0.875
vt 0.25 0.875
vt 0.12499999999999999 1
vt 0 1
vt 0 0.875
vt 0.12499999999999999 0.875
vt 0.25 1
vt 0 1
vt 0 0.875
vt 0.25 0.875
vt 0.25 0.875
vt 0.25 1
vt 0 1
vt 0 0.875
vt 0 0.75
vt 0.125 0.75
vt 0.125 1
vt 0 1
vt 0.125 0.75
vt 0.25 0.75
vt 0.25 1
vt 0.125 1
vn 0 -1 0
vn 0 -1 0
vn 0.1842885350501858 0 0.9828721869343219
vn -0.1842885350501858 0 0.9828721869343219
vn -0.4826826524989269 0 -0.8757953282454757
vn 0.4826826524989269 0 -0.8757953282454757
vn 1 0 0
vn -1 0 0
vn 0 1 0
vn 0 1 0
usemtl none
f 52/161/41 51/162/41 60/163/41 59/164/41
f 60/165/42 55/166/42 56/167/42 59/168/42
f 51/169/43 49/170/43 58/171/43 60/172/43
f 58/173/44 53/174/44 55/175/44 60/176/44
f 54/177/45 57/178/45 59/179/45 56/180/45
f 57/181/46 50/182/46 52/183/46 59/184/46
f 50/185/47 49/186/47 51/187/47 52/188/47
f 55/189/48 53/190/48 54/191/48 56/192/48
f 53/193/49 58/194/49 57/195/49 54/196/49
f 58/197/50 49/198/50 50/199/50 57/200/50
o mesh
v -0.0875 0.743750000000001 0.040624999999999994
v -0.0875 0.743750000000001 0.015625000000000003
v -0.07499999999999998 0.7062500000000009 0.05781250000000001
v -0.07499999999999998 0.7062500000000009 -0.012500000000000011
v -0.17499999999999996 0.743750000000001 0.040624999999999994
v -0.17499999999999996 0.743750000000001 0.015625000000000014
v -0.18749999999999997 0.7062500000000009 0.05781250000000001
v -0.18749999999999997 0.7062500000000009 -0.012500000000000004
v -0.13124999999999998 0.743750000000001 -0.017187500000000015
v -0.13124999999999998 0.7062500000000009 -0.043750000000000004
vt 0.25 1
vt 0 1
vt 0 0.875
vt 0.25 0.875
vt 0.25 0.875
vt 0.25 1
vt 0 1
vt 0 0.875
vt 0.25 0.875
vt 0.25 1
vt 0 1
vt 0 0.875
vt 0.125 1
vt 0 0.75
vt 0.25 0.75
vt 0.25 1
vt 0.125 1
vt 0 1
vt 0 0.75
vt 0.125 0.75
vt 0.25 0.75
vt 0.25 1
vt 0 1
vt 0 1
vt 0 0.75
vt 0.125 0.75
vt 0.25 1
vt 0.125 1
vt 0.125 0.875
vt 0.25 0.875
vt 0.125 1
vt 0 1
vt 0 0.875
vt 0.125 0.875
vn 0.9486832980505138 0.3162277660168384 0
vn -0.9486832980505138 0.31622776601683844 0
vn 0 0.4166547104932141 0.909064822894284
vn 0 1 0
vn 0 1 0
vn 0 -1 0
vn 0 -1 0
vn -0.522013311509168 0.49301257198088017 -0.6960177486788895
vn 0.4685212856658183 0.6246950475544247 -0.6246950475544238
usemtl none
f 62/201/51 61/202/51 63/203/51 64/204/51
f 67/205/52 65/206/52 66/207/52 68/208/52
f 63/209/53 61/210/53 65/211/53 67/212/53
f 69/213/54 65/214/54 61/215/54 62/216/54
f 69/217/55 66/218/55 65/219/55
f 70/220/56 64/221/56 63/222/56 67/223/56
f 67/224/57 68/225/57 70/226/57
f 66/227/58 69/228/58 70/229/58 68/230/58
f 69/231/59 62/232/59 64/233/59 70/234/59
o mesh
v -0.21875000000000008 0.743750000000001 0.040624999999999994
v -0.21875000000000008 0.743750000000001 0.015625000000000003
v -0.20625000000000007 0.7062500000000009 0.05781250000000001
v -0.20625000000000007 0.7062500000000009 -0.012500000000000011
v -0.30625 0.743750000000001 0.040624999999999994
v -0.30625 0.743750000000001 0.015625000000000014
v -0.31875000000000003 0.7062500000000009 0.05781250000000001
v -0.31875000000000003 0.7062500000000009 -0.012500000000000004
v -0.26250000000000007 0.743750000000001 -0.017187500000000015
v -0.26250000000000007 0.7062500000000009 -0.043750000000000004
vt 0.25 1
vt 0 1
vt 0 0.875
vt 0.25 0.875
vt 0.25 0.875
vt 0.25 1
vt 0 1
vt 0 0.875
vt 0.25 0.875
vt 0.25 1
vt 0 1
vt 0 0.875
vt 0.125 1
vt 0 0.75
vt 0.25 0.75
vt 0.25 1
vt 0.125 1
vt 0 1
vt 0 0.75
vt 0.125 0.75
vt 0.25 0.75
vt 0.25 1
vt 0 1
vt 0 1
vt 0 0.75
vt 0.125 0.75
vt 0.25 1
vt 0.125 1
vt 0.125 0.875
vt 0.25 0.875
vt 0.125 1
vt 0 1
vt 0 0.875
vt 0.125 0.875
vn 0.9486832980505138 0.3162277660168384 0
vn -0.9486832980505138 0.31622776601683844 0
vn 0 0.4166547104932141 0.909064822894284
vn 0 1 0
vn 0 1 0
vn 0 -1 0
vn 0 -1 0
vn -0.522013311509168 0.49301257198088017 -0.6960177486788895
vn 0.4685212856658183 0.6246950475544247 -0.6246950475544238
usemtl none
f 72/235/60 71/236/60 73/237/60 74/238/60
f 77/239/61 75/240/61 76/241/61 78/242/61
f 73/243/62 71/244/62 75/245/62 77/246/62
f 79/247/63 75/248/63 71/249/63 72/250/63
f 79/251/64 76/252/64 75/253/64
f 80/254/65 74/255/65 73/256/65 77/257/65
f 77/258/66 78/259/66 80/260/66
f 76/261/67 79/262/67 80/263/67 78/264/67
f 79/265/68 72/266/68 74/267/68 80/268/68
o mesh
v 0.1749999999999999 0.743750000000001 0.040624999999999994
v 0.1749999999999999 0.743750000000001 0.015625000000000003
v 0.18749999999999992 0.7062500000000009 0.05781250000000001
v 0.18749999999999992 0.7062500000000009 -0.012500000000000011
v 0.08749999999999994 0.743750000000001 0.040624999999999994
v 0.08749999999999994 0.743750000000001 0.015625000000000014
v 0.07499999999999993 0.7062500000000009 0.05781250000000001
v 0.07499999999999993 0.7062500000000009 -0.012500000000000004
v 0.13124999999999992 0.743750000000001 -0.017187500000000015
v 0.13124999999999992 0.7062500000000009 -0.043750000000000004
vt 0.25 1
vt 0 1
vt 0 0.875
vt 0.25 0.875
vt 0.25 0.875
vt 0.25 1
vt 0 1
vt 0 0.875
vt 0.25 0.875
vt 0.25 1
vt 0 1
vt 0 0.875
vt 0.125 1
vt 0 0.75
vt 0.25 0.75
vt 0.25 1
vt 0.125 1
vt 0 1
vt 0 0.75
vt 0.125 0.75
vt 0.25 0.75
vt 0.25 1
vt 0 1
vt 0 1
vt 0 0.75
vt 0.125 0.75
vt 0.25 1
vt 0.125 1
vt 0.125 0.875
vt 0.25 0.875
vt 0.125 1
vt 0 1
vt 0 0.875
vt 0.125 0.875
vn 0.9486832980505138 0.3162277660168384 0
vn -0.9486832980505138 0.31622776601683844 0
vn 0 0.4166547104932141 0.909064822894284
vn 0 1 0
vn 0 1 0
vn 0 -1 0
vn 0 -1 0
vn -0.522013311509168 0.49301257198088017 -0.6960177486788895
vn 0.4685212856658183 0.6246950475544247 -0.6246950475544238
usemtl none
f 82/269/69 81/270/69 83/271/69 84/272/69
f 87/273/70 85/274/70 86/275/70 88/276/70
f 83/277/71 81/278/71 85/279/71 87/280/71
f 89/281/72 85/282/72 81/283/72 82/284/72
f 89/285/73 86/286/73 85/287/73
f 90/288/74 84/289/74 83/290/74 87/291/74
f 87/292/75 88/293/75 90/294/75
f 86/295/76 89/296/76 90/297/76 88/298/76
f 89/299/77 82/300/77 84/301/77 90/302/77
o mesh
v 0.04374999999999998 0.743750000000001 0.040624999999999994
v 0.04374999999999998 0.743750000000001 0.015625000000000003
v 0.056249999999999994 0.7062500000000009 0.05781250000000001
v 0.056249999999999994 0.7062500000000009 -0.012500000000000011
v -0.043749999999999976 0.743750000000001 0.040624999999999994
v -0.043749999999999976 0.743750000000001 0.015625000000000014
v -0.05624999999999999 0.7062500000000009 0.05781250000000001
v -0.05624999999999999 0.7062500000000009 -0.012500000000000004
v 0 0.743750000000001 -0.017187500000000015
v 0 0.7062500000000009 -0.043750000000000004
vt 0.25 1
vt 0 1
vt 0 0.875
vt 0.25 0.875
vt 0.25 0.875
vt 0.25 1
vt 0 1
vt 0 0.875
vt 0.25 0.875
vt 0.25 1
vt 0 1
vt 0 0.875
vt 0.125 1
vt 0 0.75
vt 0.25 0.75
vt 0.25 1
vt 0.125 1
vt 0 1
vt 0 0.75
vt 0.125 0.75
vt 0.25 0.75
vt 0.25 1
vt 0 1
vt 0 1
vt 0 0.75
vt 0.125 0.75
vt 0.25 1
vt 0.125 1
vt 0.125 0.875
vt 0.25 0.875
vt 0.125 1
vt 0 1
vt 0 0.875
vt 0.125 0.875
vn 0.9486832980505138 0.3162277660168384 0
vn -0.9486832980505138 0.31622776601683844 0
vn 0 0.4166547104932141 0.909064822894284
vn 0 1 0
vn 0 1 0
vn 0 -1 0
vn 0 -1 0
vn -0.522013311509168 0.49301257198088017 -0.6960177486788895
vn 0.4685212856658183 0.6246950475544247 -0.6246950475544238
usemtl none
f 92/303/78 91/304/78 93/305/78 94/306/78
f 97/307/79 95/308/79 96/309/79 98/310/79
f 93/311/80 91/312/80 95/313/80 97/314/80
f 99/315/81 95/316/81 91/317/81 92/318/81
f 99/319/82 96/320/82 95/321/82
f 100/322/83 94/323/83 93/324/83 97/325/83
f 97/326/84 98/327/84 100/328/84
f 96/329/85 99/330/85 100/331/85 98/332/85
f 99/333/86 92/334/86 94/335/86 100/336/86
o mesh
v 0.30625 0.743750000000001 0.040624999999999994
v 0.30625 0.743750000000001 0.015625000000000003
v 0.3187500000000001 0.7062500000000009 0.05781250000000001
v 0.3187500000000001 0.7062500000000009 -0.012500000000000011
v 0.21875000000000008 0.743750000000001 0.040624999999999994
v 0.21875000000000008 0.743750000000001 0.015625000000000014
v 0.20625000000000007 0.7062500000000009 0.05781250000000001
v 0.20625000000000007 0.7062500000000009 -0.012500000000000004
v 0.26250000000000007 0.743750000000001 -0.017187500000000015
v 0.26250000000000007 0.7062500000000009 -0.043750000000000004
vt 0.25 1
vt 0 1
vt 0 0.875
vt 0.25 0.875
vt 0.25 0.875
vt 0.25 1
vt 0 1
vt 0 0.875
vt 0.25 0.875
vt 0.25 1
vt 0 1
vt 0 0.875
vt 0.125 1
vt 0 0.75
vt 0.25 0.75
vt 0.25 1
vt 0.125 1
vt 0 1
vt 0 0.75
vt 0.125 0.75
vt 0.25 0.75
vt 0.25 1
vt 0 1
vt 0 1
vt 0 0.75
vt 0.125 0.75
vt 0.25 1
vt 0.125 1
vt 0.125 0.875
vt 0.25 0.875
vt 0.125 1
vt 0 1
vt 0 0.875
vt 0.125 0.875
vn 0.9486832980505138 0.3162277660168384 0
vn -0.9486832980505138 0.31622776601683844 0
vn 0 0.4166547104932141 0.909064822894284
vn 0 1 0
vn 0 1 0
vn 0 -1 0
vn 0 -1 0
vn -0.522013311509168 0.49301257198088017 -0.6960177486788895
vn 0.4685212856658183 0.6246950475544247 -0.6246950475544238
usemtl none
f 102/337/87 101/338/87 103/339/87 104/340/87
f 107/341/88 105/342/88 106/343/88 108/344/88
f 103/345/89 101/346/89 105/347/89 107/348/89
f 109/349/90 105/350/90 101/351/90 102/352/90
f 109/353/91 106/354/91 105/355/91
f 110/356/92 104/357/92 103/358/92 107/359/92
f 107/360/93 108/361/93 110/362/93
f 106/363/94 109/364/94 110/365/94 108/366/94
f 109/367/95 102/368/95 104/369/95 110/370/95
o cube
v 0.2062500000000002 0.625 0.056249999999999994
v 0.2062500000000002 0.625 0.024999999999999994
v 0.2062500000000002 0.5874999999999999 0.056249999999999994
v 0.2062500000000002 0.5874999999999999 0.024999999999999994
v -0.20625000000000004 0.625 0.024999999999999994
v -0.20625000000000004 0.625 0.056249999999999994
v -0.20625000000000004 0.5874999999999999 0.024999999999999994
v -0.20625000000000004 0.5874999999999999 0.056249999999999994
vt 0.0031250000000000028 1
vt 0.10625 1
vt 0.10625 0.990625
vt 0.0031250000000000028 0.990625
vt 0.0171875 1
vt 0.025 1
vt 0.025 0.990625
vt 0.0171875 0.990625
vt 0 1
vt 0.103125 1
vt 0.103125 0.990625
vt 0 0.990625
vt 0.006249999999999997 1
vt 0.014062499999999999 1
vt 0.014062499999999999 0.990625
vt 0.006249999999999997 0.990625
vt 0 0.99375
vt 0.103125 0.99375
vt 0.103125 0.9859375
vt 0 0.9859375
vt 0 0.9828125
vt 0.103125 0.9828125
vt 0.103125 0.975
vt 0 0.975
vn 0 0 -1
vn 1 0 0
vn 0 0 1
vn -1 0 0
vn 0 1 0
vn 0 -1 0
usemtl none
f 114/374/96 117/373/96 115/372/96 112/371/96
f 113/378/97 114/377/97 112/376/97 111/375/97
f 118/382/98 113/381/98 111/380/98 116/379/98
f 117/386/99 118/385/99 116/384/99 115/383/99
f 116/390/100 111/389/100 112/388/100 115/387/100
f 117/394/101 114/393/101 113/392/101 118/391/101
o cube
v 0.2062500000000002 0.5062500000000004 0.056249999999999994
v 0.2062500000000002 0.5062500000000004 0.024999999999999994
v 0.2062500000000002 0.46875000000000044 0.056249999999999994
v 0.2062500000000002 0.46875000000000044 0.024999999999999994
v -0.20625000000000004 0.5062500000000004 0.024999999999999994
v -0.20625000000000004 0.5062500000000004 0.056249999999999994
v -0.20625000000000004 0.46875000000000044 0.024999999999999994
v -0.20625000000000004 0.46875000000000044 0.056249999999999994
vt 0.0031250000000000028 1
vt 0.10625 1
vt 0.10625 0.990625
vt 0.0031250000000000028 0.990625
vt 0.0171875 1
vt 0.025 1
vt 0.025 0.990625
vt 0.0171875 0.990625
vt 0 1
vt 0.103125 1
vt 0.103125 0.990625
vt 0 0.990625
vt 0.006249999999999997 1
vt 0.014062499999999999 1
vt 0.014062499999999999 0.990625
vt 0.006249999999999997 0.990625
vt 0 0.99375
vt 0.103125 0.99375
vt 0.103125 0.9859375
vt 0 0.9859375
vt 0 0.9828125
vt 0.103125 0.9828125
vt 0.103125 0.975
vt 0 0.975
vn 0 0 -1
vn 1 0 0
vn 0 0 1
vn -1 0 0
vn 0 1 0
vn 0 -1 0
usemtl none
f 122/398/102 125/397/102 123/396/102 120/395/102
f 121/402/103 122/401/103 120/400/103 119/399/103
f 126/406/104 121/405/104 119/404/104 124/403/104
f 125/410/105 126/409/105 124/408/105 123/407/105
f 124/414/106 119/413/106 120/412/106 123/411/106
f 125/418/107 122/417/107 121/416/107 126/415/107
o cube
v 0.2062500000000002 0.3937500000000008 0.056249999999999994
v 0.2062500000000002 0.3937500000000008 0.024999999999999994
v 0.2062500000000002 0.35625000000000084 0.056249999999999994
v 0.2062500000000002 0.35625000000000084 0.024999999999999994
v -0.20625000000000004 0.3937500000000008 0.024999999999999994
v -0.20625000000000004 0.3937500000000008 0.056249999999999994
v -0.20625000000000004 0.35625000000000084 0.024999999999999994
v -0.20625000000000004 0.35625000000000084 0.056249999999999994
vt 0.0031250000000000028 1
vt 0.10625 1
vt 0.10625 0.990625
vt 0.0031250000000000028 0.990625
vt 0.0171875 1
vt 0.025 1
vt 0.025 0.990625
vt 0.0171875 0.990625
vt 0 1
vt 0.103125 1
vt 0.103125 0.990625
vt 0 0.990625
vt 0.006249999999999997 1
vt 0.014062499999999999 1
vt 0.014062499999999999 0.990625
vt 0.006249999999999997 0.990625
vt 0 0.99375
vt 0.103125 0.99375
vt 0.103125 0.9859375
vt 0 0.9859375
vt 0 0.9828125
vt 0.103125 0.9828125
vt 0.103125 0.975
vt 0 0.975
vn 0 0 -1
vn 1 0 0
vn 0 0 1
vn -1 0 0
vn 0 1 0
vn 0 -1 0
usemtl none
f 130/422/108 133/421/108 131/420/108 128/419/108
f 129/426/109 130/425/109 128/424/109 127/423/109
f 134/430/110 129/429/110 127/428/110 132/427/110
f 133/434/111 134/433/111 132/432/111 131/431/111
f 132/438/112 127/437/112 128/436/112 131/435/112
f 133/442/113 130/441/113 129/440/113 134/439/113
o cube
v 0.2062500000000002 0.2750000000000009 0.056249999999999994
v 0.2062500000000002 0.2750000000000009 0.024999999999999994
v 0.2062500000000002 0.23750000000000085 0.056249999999999994
v 0.2062500000000002 0.23750000000000085 0.024999999999999994
v -0.20625000000000004 0.2750000000000009 0.024999999999999994
v -0.20625000000000004 0.2750000000000009 0.056249999999999994
v -0.20625000000000004 0.23750000000000085 0.024999999999999994
v -0.20625000000000004 0.23750000000000085 0.056249999999999994
vt 0.0031250000000000028 1
vt 0.10625 1
vt 0.10625 0.990625
vt 0.0031250000000000028 0.990625
vt 0.0171875 1
vt 0.025 1
vt 0.025 0.990625
vt 0.0171875 0.990625
vt 0 1
vt 0.103125 1
vt 0.103125 0.990625
vt 0 0.990625
vt 0.006249999999999997 1
vt 0.014062499999999999 1
vt 0.014062499999999999 0.990625
vt 0.006249999999999997 0.990625
vt 0 0.99375
vt 0.103125 0.99375
vt 0.103125 0.9859375
vt 0 0.9859375
vt 0 0.9828125
vt 0.103125 0.9828125
vt 0.103125 0.975
vt 0 0.975
vn 0 0 -1
vn 1 0 0
vn 0 0 1
vn -1 0 0
vn 0 1 0
vn 0 -1 0
usemtl none
f 138/446/114 141/445/114 139/444/114 136/443/114
f 137/450/115 138/449/115 136/448/115 135/447/115
f 142/454/116 137/453/116 135/452/116 140/451/116
f 141/458/117 142/457/117 140/456/117 139/455/117
f 140/462/118 135/461/118 136/460/118 139/459/118
f 141/466/119 138/465/119 137/464/119 142/463/119
o cube
v 0.3312500000000004 0.1562500000000005 0.056249999999999994
v 0.3312500000000004 0.1562500000000005 0.024999999999999994
v 0.3312500000000004 0.11250000000000054 0.056249999999999994
v 0.3312500000000004 0.11250000000000054 0.024999999999999994
v -0.3312499999999997 0.1562500000000005 0.024999999999999994
v -0.3312499999999997 0.1562500000000005 0.056249999999999994
v -0.3312499999999997 0.11250000000000054 0.024999999999999994
v -0.3312499999999997 0.11250000000000054 0.056249999999999994
vt 0.0062500000000000056 1
vt 0.171875 1
vt 0.171875 0.9890625
vt 0.0062500000000000056 0.9890625
vt 0.0171875 1
vt 0.025 1
vt 0.025 0.9890625
vt 0.0171875 0.9890625
vt 0.0062500000000000056 1
vt 0.171875 1
vt 0.171875 0.9890625
vt 0.0062500000000000056 0.9890625
vt 0.006249999999999997 1
vt 0.014062499999999999 1
vt 0.014062499999999999 0.9890625
vt 0.006249999999999997 0.9890625
vt 0.0062500000000000056 0.99375
vt 0.171875 0.99375
vt 0.171875 0.9859375
vt 0.0062500000000000056 0.9859375
vt 0.0062500000000000056 0.9828125
vt 0.171875 0.9828125
vt 0.171875 0.975
vt 0.0062500000000000056 0.975
vn 0 0 -1
vn 1 0 0
vn 0 0 1
vn -1 0 0
vn 0 1 0
vn 0 -1 0
usemtl none
f 146/470/120 149/469/120 147/468/120 144/467/120
f 145/474/121 146/473/121 144/472/121 143/471/121
f 150/478/122 145/477/122 143/476/122 148/475/122
f 149/482/123 150/481/123 148/480/123 147/479/123
f 148/486/124 143/485/124 144/484/124 147/483/124
f 149/490/125 146/489/125 145/488/125 150/487/125
o cube
v 0.3312500000000004 0.7124999999999997 0.056249999999999994
v 0.3312500000000004 0.7124999999999997 0.024999999999999994
v 0.3312500000000004 0.6687499999999997 0.056249999999999994
v 0.3312500000000004 0.6687499999999997 0.024999999999999994
v -0.3312499999999997 0.7124999999999997 0.024999999999999994
v -0.3312499999999997 0.7124999999999997 0.056249999999999994
v -0.3312499999999997 0.6687499999999997 0.024999999999999994
v -0.3312499999999997 0.6687499999999997 0.056249999999999994
vt 0.009374999999999994 1
vt 0.175 1
vt 0.175 0.9890625
vt 0.009374999999999994 0.9890625
vt 0.0171875 1
vt 0.025 1
vt 0.025 0.9890625
vt 0.0171875 0.9890625
vt 0.02031250000000001 1
vt 0.1859375 1
vt 0.1859375 0.9890625
vt 0.02031250000000001 0.9890625
vt 0.006249999999999997 1
vt 0.014062499999999999 1
vt 0.014062499999999999 0.9890625
vt 0.006249999999999997 0.9890625
vt 0.02031250000000001 0.99375
vt 0.1859375 0.99375
vt 0.1859375 0.9859375
vt 0.02031250000000001 0.9859375
vt 0.02031250000000001 0.9828125
vt 0.1859375 0.9828125
vt 0.1859375 0.975
vt 0.02031250000000001 0.975
vn 0 0 -1
vn 1 0 0
vn 0 0 1
vn -1 0 0
vn 0 1 0
vn 0 -1 0
usemtl none
f 154/494/126 157/493/126 155/492/126 152/491/126
f 153/498/127 154/497/127 152/496/127 151/495/127
f 158/502/128 153/501/128 151/500/128 156/499/128
f 157/506/129 158/505/129 156/504/129 155/503/129
f 156/510/130 151/509/130 152/508/130 155/507/130
f 157/514/131 154/513/131 153/512/131 158/511/131
o cube
v -0.3312499999999997 0.7068326868901554 0.05050153062886708
v -0.3312499999999997 0.7081406207728578 0.03179720468649536
v -0.3312499999999997 0.6756588103195359 0.04832164082436317
v -0.3312499999999997 0.6769667442022382 0.029617314881991444
v -0.34374999999999967 0.7081406207728578 0.03179720468649536
v -0.34374999999999967 0.7068326868901554 0.05050153062886708
v -0.34374999999999967 0.6769667442022382 0.029617314881991444
v -0.34374999999999967 0.6756588103195359 0.04832164082436317
vt 0.175 0.9984375
vt 0.17812499999999998 0.9984375
vt 0.17812499999999998 0.990625
vt 0.175 0.990625
vt 0.018750000000000003 0.9984375
vt 0.023437500000000007 0.9984375
vt 0.023437500000000007 0.990625
vt 0.018750000000000003 0.990625
vt 0.01718750000000001 0.9984375
vt 0.02031250000000001 0.9984375
vt 0.02031250000000001 0.990625
vt 0.01718750000000001 0.990625
vt 0.0078124999999999965 0.9984375
vt 0.012499999999999999 0.9984375
vt 0.012499999999999999 0.990625
vt 0.0078124999999999965 0.990625
vt 0.01718750000000001 0.9921875
vt 0.02031250000000001 0.9921875
vt 0.02031250000000001 0.9875
vt 0.01718750000000001 0.9875
vt 0.01718750000000001 0.98125
vt 0.02031250000000001 0.98125
vt 0.02031250000000001 0.9765625
vt 0.01718750000000001 0.9765625
vn 0 0.0697564737441253 -0.9975640502598242
vn 1 0 0
vn 0 -0.0697564737441253 0.9975640502598242
vn -1 0 0
vn 0 0.9975640502598242 0.0697564737441253
vn 0 -0.9975640502598242 -0.0697564737441253
usemtl none
f 162/518/132 165/517/132 163/516/132 160/515/132
f 161/522/133 162/521/133 160/520/133 159/519/133
f 166/526/134 161/525/134 159/524/134 164/523/134
f 165/530/135 166/529/135 164/528/135 163/527/135
f 164/534/136 159/533/136 160/532/136 163/531/136
f 165/538/137 162/537/137 161/536/137 166/535/137
o cube
v 0.34375000000000056 0.7068326868901554 0.05050153062886708
v 0.34375000000000056 0.7081406207728578 0.03179720468649536
v 0.34375000000000056 0.6756588103195359 0.04832164082436317
v 0.34375000000000056 0.6769667442022382 0.029617314881991444
v 0.3312500000000005 0.7081406207728578 0.03179720468649536
v 0.3312500000000005 0.7068326868901554 0.05050153062886708
v 0.3312500000000005 0.6769667442022382 0.029617314881991444
v 0.3312500000000005 0.6756588103195359 0.04832164082436317
vt 0.175 0.9984375
vt 0.17812499999999998 0.9984375
vt 0.17812499999999998 0.990625
vt 0.175 0.990625
vt 0.018750000000000003 0.9984375
vt 0.023437500000000007 0.9984375
vt 0.023437500000000007 0.990625
vt 0.018750000000000003 0.990625
vt 0.01718750000000001 0.9984375
vt 0.02031250000000001 0.9984375
vt 0.02031250000000001 0.990625
vt 0.01718750000000001 0.990625
vt 0.0078124999999999965 0.9984375
vt 0.012499999999999999 0.9984375
vt 0.012499999999999999 0.990625
vt 0.0078124999999999965 0.990625
vt 0.01718750000000001 0.9921875
vt 0.02031250000000001 0.9921875
vt 0.02031250000000001 0.9875
vt 0.01718750000000001 0.9875
vt 0.01718750000000001 0.98125
vt 0.02031250000000001 0.98125
vt 0.02031250000000001 0.9765625
vt 0.01718750000000001 0.9765625
vn 0 0.0697564737441253 -0.9975640502598242
vn 1 0 0
vn 0 -0.0697564737441253 0.9975640502598242
vn -1 0 0
vn 0 0.9975640502598242 0.0697564737441253
vn 0 -0.9975640502598242 -0.0697564737441253
usemtl none
f 170/542/138 173/541/138 171/540/138 168/539/138
f 169/546/139 170/545/139 168/544/139 167/543/139
f 174/550/140 169/549/140 167/548/140 172/547/140
f 173/554/141 174/553/141 172/552/141 171/551/141
f 172/558/142 167/557/142 168/556/142 171/555/142
f 173/562/143 170/561/143 169/560/143 174/559/143
o cube
v 0.34375000000000056 0.15058268689015547 0.05050153062886708
v 0.34375000000000056 0.15189062077285784 0.03179720468649536
v 0.34375000000000056 0.11940881031953597 0.04832164082436317
v 0.34375000000000056 0.12071674420223832 0.029617314881991444
v 0.3312500000000005 0.15189062077285784 0.03179720468649536
v 0.3312500000000005 0.15058268689015547 0.05050153062886708
v 0.3312500000000005 0.12071674420223832 0.029617314881991444
v 0.3312500000000005 0.11940881031953597 0.04832164082436317
vt 0.175 0.9984375
vt 0.17812499999999998 0.9984375
vt 0.17812499999999998 0.990625
vt 0.175 0.990625
vt 0.018750000000000003 0.9984375
vt 0.023437500000000007 0.9984375
vt 0.023437500000000007 0.990625
vt 0.018750000000000003 0.990625
vt 0.01718750000000001 0.9984375
vt 0.02031250000000001 0.9984375
vt 0.02031250000000001 0.990625
vt 0.01718750000000001 0.990625
vt 0.0078124999999999965 0.9984375
vt 0.012499999999999999 0.9984375
vt 0.012499999999999999 0.990625
vt 0.0078124999999999965 0.990625
vt 0.01718750000000001 0.9921875
vt 0.02031250000000001 0.9921875
vt 0.02031250000000001 0.9875
vt 0.01718750000000001 0.9875
vt 0.01718750000000001 0.98125
vt 0.02031250000000001 0.98125
vt 0.02031250000000001 0.9765625
vt 0.01718750000000001 0.9765625
vn 0 0.0697564737441253 -0.9975640502598242
vn 1 0 0
vn 0 -0.0697564737441253 0.9975640502598242
vn -1 0 0
vn 0 0.9975640502598242 0.0697564737441253
vn 0 -0.9975640502598242 -0.0697564737441253
usemtl none
f 178/566/144 181/565/144 179/564/144 176/563/144
f 177/570/145 178/569/145 176/568/145 175/567/145
f 182/574/146 177/573/146 175/572/146 180/571/146
f 181/578/147 182/577/147 180/576/147 179/575/147
f 180/582/148 175/581/148 176/580/148 179/579/148
f 181/586/149 178/585/149 177/584/149 182/583/149
o cube
v -0.3312499999999997 0.15058268689015547 0.05050153062886708
v -0.3312499999999997 0.15189062077285784 0.03179720468649536
v -0.3312499999999997 0.11940881031953597 0.04832164082436317
v -0.3312499999999997 0.12071674420223832 0.029617314881991444
v -0.34374999999999967 0.15189062077285784 0.03179720468649536
v -0.34374999999999967 0.15058268689015547 0.05050153062886708
v -0.34374999999999967 0.12071674420223832 0.029617314881991444
v -0.34374999999999967 0.11940881031953597 0.04832164082436317
vt 0.175 0.9984375
vt 0.17812499999999998 0.9984375
vt 0.17812499999999998 0.990625
vt 0.175 0.990625
vt 0.018750000000000003 0.9984375
vt 0.023437500000000007 0.9984375
vt 0.023437500000000007 0.990625
vt 0.018750000000000003 0.990625
vt 0.01718750000000001 0.9984375
vt 0.02031250000000001 0.9984375
vt 0.02031250000000001 0.990625
vt 0.01718750000000001 0.990625
vt 0.0078124999999999965 0.9984375
vt 0.012499999999999999 0.9984375
vt 0.012499999999999999 0.990625
vt 0.0078124999999999965 0.990625
vt 0.01718750000000001 0.9921875
vt 0.02031250000000001 0.9921875
vt 0.02031250000000001 0.9875
vt 0.01718750000000001 0.9875
vt 0.01718750000000001 0.98125
vt 0.02031250000000001 0.98125
vt 0.02031250000000001 0.9765625
vt 0.01718750000000001 0.9765625
vn 0 0.0697564737441253 -0.9975640502598242
vn 1 0 0
vn 0 -0.0697564737441253 0.9975640502598242
vn -1 0 0
vn 0 0.9975640502598242 0.0697564737441253
vn 0 -0.9975640502598242 -0.0697564737441253
usemtl none
f 186/590/150 189/589/150 187/588/150 184/587/150
f 185/594/151 186/593/151 184/592/151 183/591/151
f 190/598/152 185/597/152 183/596/152 188/595/152
f 189/602/153 190/601/153 188/600/153 187/599/153
f 188/606/154 183/605/154 184/604/154 187/603/154
f 189/610/155 186/609/155 185/608/155 190/607/155