# Made in Blockbench 5.1.6
mtllib car.mtl

o 4
v 0.2744793749999999 0.19010394886363635 0.2812500000000001
v 0.2744793749999999 0.09427105113636361 0.2812500000000001
v 0.17864562499999986 0.19010394886363635 0.2812500000000001
v 0.17864562499999986 0.09427105113636361 0.2812500000000001
v 0.2744793749999999 0.1901039488636363 0.4203125000000001
v 0.2744793749999999 0.09427105113636358 0.4203125000000001
v 0.17864562499999986 0.1901039488636363 0.4203125000000001
v 0.17864562499999986 0.09427105113636358 0.4203125000000001
v 0.08281249999999993 0.1901039488636363 0.41782015625000013
v 0.08281249999999993 0.19010394886363635 0.2836459375000001
v 0.08281249999999993 0.09427105113636358 0.41782015625000013
v 0.08281249999999993 0.09427105113636361 0.28364593750000006
v 0.3703124999999998 0.1901039488636363 0.41782015625000013
v 0.3703124999999998 0.19010394886363635 0.2836459375000001
v 0.3703124999999998 0.09427105113636358 0.41782015625000013
v 0.3703124999999998 0.09427105113636361 0.28364593750000006
v 0.2744793749999999 -0.0015625000000000777 0.41782015625000013
v 0.2744793749999999 -0.00156250000000005 0.28364593750000006
v 0.17864562499999986 -0.0015625000000000777 0.41782015625000013
v 0.17864562499999986 -0.00156250000000005 0.28364593750000006
v 0.2744793749999999 0.28593749999999996 0.41782015625000013
v 0.2744793749999999 0.28593749999999996 0.2836459375000001
v 0.17864562499999986 0.28593749999999996 0.41782015625000013
v 0.17864562499999986 0.28593749999999996 0.2836459375000001
vt 0.015625 0.984375
vt 0.015625 1
vt 0 1
vt 0 0.984375
vt 0 0.984375
vt 0.015625 0.984375
vt 0.015625 1
vt 0 1
vt 0.015625 1
vt 0 1
vt 0 0.977903125
vt 0.015625 0.977903125
vt 0.015625 0.977903125
vt 0.015625 1
vt 0 1
vt 0 0.977903125
vt 0.015625 0.977903125
vt 0.015625 1
vt 0 1
vt 0 0.977903125
vt 0.015625 1
vt 0 1
vt 0 0.977903125
vt 0.015625 0.977903125
vt 0 1
vt 0 0.977903125
vt 0.015625 0.977903125
vt 0.015625 1
vt 0 0.977903125
vt 0.015625 0.977903125
vt 0.015625 1
vt 0 1
vt 0 0.977903125
vt 0.015625 0.977903125
vt 0.015625 1
vt 0 1
vt 0 1
vt 0 0.977903125
vt 0.015625 0.977903125
vt 0.015625 1
vt 0.0110484375 0.9808625
vt 0.022096875 1
vt 0 1
vt 0.0110484375 0.9808625
vt 0.022096875 1
vt 0 1
vt 0.0110484375 0.9808625
vt 0.022096875 1
vt 0 1
vt 0.0110484375 0.9808625
vt 0.022096875 1
vt 0 1
vt 0.0110484375 1
vt 0 0.9808640625
vt 0.022096875 0.9808640625
vt 0.0110484375 1
vt 0 0.9808640625
vt 0.022096875 0.9808640625
vt 0.0110484375 1
vt 0 0.9808640625
vt 0.022096875 0.9808640625
vt 0.0110484375 1
vt 0 0.9808640625
vt 0.022096875 0.9808640625
vt 0.015625 1
vt 0 1
vt 0 0.96875
vt 0.015625 0.96875
vt 0.015625 0.96875
vt 0.015625 1
vt 0 1
vt 0 0.96875
vt 0.015625 0.96875
vt 0.015625 1
vt 0 1
vt 0 0.96875
vt 0.015625 1
vt 0 1
vt 0 0.96875
vt 0.015625 0.96875
vt 0 0.96875
vt 0.022096875 0.96875
vt 0.022096875 1
vt 0 1
vt 0 1
vt 0 0.96875
vt 0.022096875 0.96875
vt 0.022096875 1
vt 0 1
vt 0 0.96875
vt 0.022096875 0.96875
vt 0.022096875 1
vt 0 0.96875
vt 0.022096875 0.96875
vt 0.022096875 1
vt 0 1
vn 0 2.220446049250313e-16 -1
vn 0 -2.220446049250313e-16 1
vn 0.024993331397843124 2.2197524216539112e-16 -0.999687617901531
vn -0.024993331397843113 2.2197524216539112e-16 -0.999687617901531
vn 0 0.02499322033116342 -0.9996876206783187
vn 0 -0.024993220331162976 -0.9996876206783187
vn 0.025998330990283192 -2.219695507990544e-16 0.9996619862662178
vn -0.025998330990283185 -2.219695507990544e-16 0.9996619862662178
vn 0 0.025998215463457344 0.9996619892707312
vn 0 -0.025998215463457788 0.9996619892707312
vn 0.025989549212188802 0.02598943364627387 0.9993243180622062
vn -0.0259895492121888 0.025989433646273877 0.9993243180622062
vn 0.025989549212188802 -0.025989433646274315 0.9993243180622062
vn -0.02598954921218879 -0.025989433646274315 0.999324318062206
vn 0.02498552887267302 0.02498541777126571 -0.999375531142197
vn -0.024985528872673014 0.02498541777126571 -0.999375531142197
vn 0.02498552887267302 -0.024985417771265266 -0.999375531142197
vn -0.024985528872673014 -0.024985417771265266 -0.999375531142197
vn 1 0 0
vn -1 0 0
vn 0 1 2.220446049250313e-16
vn 0 -1 -2.220446049250313e-16
vn 0.7071083533094832 -0.7071052090601166 -1.5700889678618527e-16
vn 0.7071083533094832 0.7071052090601166 1.5700889678618527e-16
vn -0.7071083533094831 -0.7071052090601166 -1.5700889678618527e-16
vn -0.7071083533094831 0.7071052090601166 1.5700889678618527e-16
usemtl none
f 1/1/1 2/2/1 4/3/1 3/4/1
f 8/5/2 6/6/2 5/7/2 7/8/2
f 2/9/3 1/10/3 14/11/3 16/12/3
f 10/13/4 3/14/4 4/15/4 12/16/4
f 22/17/5 1/18/5 3/19/5 24/20/5
f 4/21/6 2/22/6 18/23/6 20/24/6
f 13/25/7 5/26/7 6/27/7 15/28/7
f 8/29/8 7/30/8 9/31/8 11/32/8
f 7/33/9 5/34/9 21/35/9 23/36/9
f 17/37/10 6/38/10 8/39/10 19/40/10
f 5/41/11 13/42/11 21/43/11
f 7/44/12 23/45/12 9/46/12
f 6/47/13 17/48/13 15/49/13
f 8/50/14 11/51/14 19/52/14
f 1/53/15 22/54/15 14/55/15
f 3/56/16 10/57/16 24/58/16
f 2/59/17 16/60/17 18/61/17
f 4/62/18 20/63/18 12/64/18
f 16/65/19 14/66/19 13/67/19 15/68/19
f 9/69/20 10/70/20 12/71/20 11/72/20
f 21/73/21 22/74/21 24/75/21 23/76/21
f 20/77/22 18/78/22 17/79/22 19/80/22
f 15/81/23 17/82/23 18/83/23 16/84/23
f 22/85/24 21/86/24 13/87/24 14/88/24
f 20/89/25 19/90/25 11/91/25 12/92/25
f 9/93/26 23/94/26 24/95/26 10/96/26
o 4
v 0.2682293478260869 0.18385397727272723 0.42343750000000024
v 0.2682293478260869 0.1005210227272727 0.42343750000000024
v 0.1848956521739129 0.18385397727272723 0.4203125000000003
v 0.1848956521739129 0.1005210227272727 0.4203125000000003
v 0.10156249999999992 0.18385397727272723 0.4311654687500003
v 0.10156249999999992 0.18385397727272723 0.41896781250000026
v 0.10156249999999992 0.1005210227272727 0.4311654687500003
v 0.10156249999999992 0.1005210227272727 0.41896781250000026
v 0.35156249999999983 0.18385397727272723 0.4311654687500003
v 0.35156249999999983 0.18385397727272723 0.41896781250000026
v 0.35156249999999983 0.1005210227272727 0.4311654687500003
v 0.35156249999999983 0.1005210227272727 0.41896781250000026
v 0.2682293478260869 0.017187499999999953 0.4311654687500003
v 0.2682293478260869 0.017187499999999953 0.41896781250000026
v 0.1848956521739129 0.017187499999999953 0.4311654687500003
v 0.1848956521739129 0.017187499999999953 0.41896781250000026
v 0.2682293478260869 0.26718749999999997 0.43116546875000034
v 0.2682293478260869 0.26718749999999997 0.4189678125000003
v 0.1848956521739129 0.26718749999999997 0.43116546875000034
v 0.1848956521739129 0.26718749999999997 0.4189678125000003
v 0.28601318723766816 0.16497262869843848 0.4359194628056585
v 0.2865694393259029 0.11920198768434867 0.43591889853598775
v 0.169376419318078 0.11674797204774863 0.43279676005329704
v 0.16943194538065293 0.1673288606314037 0.4327968163796888
v 0.20334770652920653 0.20359885587522608 0.43122997359555504
v 0.2505466974582323 0.20386492736431608 0.43122970369022073
v 0.25480099257199795 0.08310736411883335 0.431232338403783
v 0.19987718916162317 0.08407687176818697 0.4312333218812506
vt 0.015625 0.984375
vt 0.015625 1
vt 0 1
vt 0 0.984375
vt 0.015625 1
vt 0 1
vt 0 0.977903125
vt 0.015625 0.977903125
vt 0.015625 0.977903125
vt 0.015625 1
vt 0 1
vt 0 0.977903125
vt 0.015625 0.977903125
vt 0.015625 1
vt 0 1
vt 0 0.977903125
vt 0.015625 1
vt 0 1
vt 0 0.977903125
vt 0.015625 0.977903125
vt 0.0110484375 0.9808625
vt 0.022096875 1
vt 0 1
vt 0.0110484375 0.9808625
vt 0.022096875 1
vt 0 1
vt 0.0110484375 0.9808625
vt 0.022096875 1
vt 0 1
vt 0.0110484375 1
vt 0 0.9808640625
vt 0.022096875 0.9808640625
vt 0.0110484375 1
vt 0 0.9808640625
vt 0.022096875 0.9808640625
vt 0.0110484375 1
vt 0 0.9808640625
vt 0.022096875 0.9808640625
vt 0.0110484375 1
vt 0 0.9808640625
vt 0.022096875 0.9808640625
vt 0.015625 1
vt 0 1
vt 0 0.96875
vt 0.015625 0.96875
vt 0.015625 0.96875
vt 0.015625 1
vt 0 1
vt 0 0.96875
vt 0.015625 0.96875
vt 0.015625 1
vt 0 1
vt 0 0.96875
vt 0.015625 1
vt 0 1
vt 0 0.96875
vt 0.015625 0.96875
vt 0 0.96875
vt 0.022096875 0.96875
vt 0.022096875 1
vt 0 1
vt 0 1
vt 0 0.96875
vt 0.022096875 0.96875
vt 0.022096875 1
vt 0 1
vt 0 0.96875
vt 0.022096875 0.96875
vt 0.022096875 1
vt 0 0.96875
vt 0.022096875 0.96875
vt 0.022096875 1
vt 0 1
vt 0 0.984375
vt 0.015625 0.984375
vt 0.015625 1
vt 0 1
vt 0 1
vt 0 0.977903125
vt 0.003540268949810732 0.9826187425689153
vt 0.015625 1
vt 0.003540268949810732 0.9826187425689153
vt 0 0.977903125
vt 0.015625 0.977903125
vt 0.01212230314919893 0.9827662400839122
vt 0.015625 0.977903125
vt 0.015625 1
vt 0.01212230314919893 0.9827662400839122
vt 0.003540268949810732 0.9826187425689153
vt 0.01212230314919893 0.9827662400839122
vt 0.015625 1
vt 0 0.977903125
vt 0.015625 0.977903125
vt 0.012526526545781593 0.9820035290660746
vt 0.003042566827438454 0.98201825252765
vt 0.012526526545781593 0.9820035290660746
vt 0.015625 0.977903125
vt 0.015625 1
vt 0 1
vt 0 1
vt 0 0.977903125
vt 0.003042566827438454 0.98201825252765
vt 0.003042566827438454 0.98201825252765
vt 0.012526526545781593 0.9820035290660746
vt 0 1
vt 0.00345974514924734 0.9831387144729788
vt 0 0.977903125
vt 0.015625 0.977903125
vt 0.012309517471168702 0.9832092664938609
vt 0.015625 0.977903125
vt 0.015625 1
vt 0.012309517471168702 0.9832092664938609
vt 0.015625 1
vt 0 1
vt 0.00345974514924734 0.9831387144729788
vt 0.012309517471168702 0.9832092664938609
vt 0 1
vt 0 0.977903125
vt 0.00345974514924734 0.9831387144729788
vt 0 1
vt 0 0.977903125
vt 0.0025178056631605284 0.9825205637561779
vt 0 0.977903125
vt 0.015625 0.977903125
vt 0.012815974027960723 0.9822634872683648
vt 0.0025178056631605284 0.9825205637561779
vt 0.015625 0.977903125
vt 0.015625 1
vt 0.012815974027960723 0.9822634872683648
vt 0.015625 1
vt 0 1
vt 0.0025178056631605284 0.9825205637561779
vt 0.012815974027960723 0.9822634872683648
vt 0.0110484375 0.9808625
vt 0.022096875 1
vt 0 1
vn 0.03747349788963803 2.2188864563741296e-16 -0.999297621810397
vn -0.053559380515623325 2.2172589681800557e-16 -0.9985646662879589
vn 0.016134184708539133 2.2201570261570902e-16 -0.999869835570506
vn 0.03741978676020079 -0.053521632065307384 -0.9978653187980266
vn 0.03741978676020079 0.053521632065307814 -0.9978653187980264
vn -0.09194845079073598 -0.09194804192997703 0.9915094754879687
vn -0.09194845079073598 0.09194804192997659 0.9915094754879687
vn 0.12808159333833616 0.12808102380685352 0.9834583655592652
vn -0.05348272566407766 -0.053482487846173724 -0.997135508117791
vn 0.016132085176832917 -0.01613201344341538 -0.9997397231130256
vn -0.05348272566407766 0.05348248784617417 -0.997135508117791
vn 0.016132085176832917 0.016132013443415825 -0.9997397231130256
vn 1 0 0
vn -1 0 0
vn 0 1 2.220446049250313e-16
vn 0 -1 -2.220446049250313e-16
vn 0.7071083533094831 -0.7071052090601166 -1.5700889678618527e-16
vn 0.7071083533094831 0.7071052090601166 1.5700889678618527e-16
vn -0.7071083533094831 -0.7071052090601168 -1.570088967861853e-16
vn -0.7071083533094831 0.7071052090601168 1.570088967861853e-16
vn -0.03747349788963803 -2.2188864563741296e-16 0.999297621810397
vn -0.08017847323184038 0.4960397693111359 0.8645900529684378
vn -0.5744897531680544 -1.817461233932051e-16 0.8185117735896706
vn -0.08006275756937219 -0.4982269635329716 0.8633422540679351
vn 0.07319343829665893 0.0008772271058447319 0.9973173772991817
vn 0.6281665459423788 -1.7276822422453358e-16 0.7780789102390717
vn 0.10935255748282317 0.5320058169732761 0.8396498251524637
vn 0.10880510283797426 -0.5386937813716486 0.8354462636866195
vn -0.024054496936148775 0.000025292980100890533 0.9997106484065347
vn -0.033280855982662456 -0.4596171620285023 0.8874933515209715
vn 0.3170434482518733 -0.08757552591660575 0.9443590308674937
vn 0 0.0010144077335514441 0.9999994854883427
vn -0.4092408060415458 -0.11783504192259901 0.9047855356743749
vn 0.41659369724845124 0.08394491158661634 0.9052087843318696
vn -0.031713029549186686 0.5327401521060452 0.8456844648513064
vn -0.5024262313518815 0.11166110675809868 0.8573795421440275
vn 0 -0.0010144077247632851 0.9999994854883518
vn 0.12808159333833616 -0.12808102380685396 0.9834583655592652
usemtl none
f 25/97/27 26/98/27 28/99/27 27/100/27
f 26/101/28 25/102/28 34/103/28 36/104/28
f 30/105/29 27/106/29 28/107/29 32/108/29
f 42/109/30 25/110/30 27/111/30 44/112/30
f 28/113/31 26/114/31 38/115/31 40/116/31
f 25/117/32 33/118/32 41/119/32
f 26/120/33 37/121/33 35/122/33
f 28/123/34 31/124/34 39/125/34
f 25/126/35 42/127/35 34/128/35
f 27/129/36 30/130/36 44/131/36
f 26/132/37 36/133/37 38/134/37
f 28/135/38 40/136/38 32/137/38
f 36/138/39 34/139/39 33/140/39 35/141/39
f 29/142/40 30/143/40 32/144/40 31/145/40
f 41/146/41 42/147/41 44/148/41 43/149/41
f 40/150/42 38/151/42 37/152/42 39/153/42
f 35/154/43 37/155/43 38/156/43 36/157/43
f 42/158/44 41/159/44 33/160/44 34/161/44
f 40/162/45 39/163/45 31/164/45 32/165/45
f 29/166/46 43/167/46 44/168/46 30/169/46
f 28/170/47 26/171/47 25/172/47 27/173/47
f 33/174/48 25/175/48 45/176/48 35/177/48
f 45/178/49 25/179/49 26/180/49 46/181/49
f 26/182/50 35/183/50 46/184/50
f 45/185/51 46/186/51 35/187/51
f 28/188/52 27/189/52 48/190/52 47/191/52
f 48/192/53 27/193/53 29/194/53 31/195/53
f 31/196/54 28/197/54 47/198/54
f 47/199/55 48/200/55 31/201/55
f 49/202/56 27/203/56 25/204/56 50/205/56
f 25/206/57 41/207/57 50/208/57
f 41/209/58 43/210/58 49/211/58 50/212/58
f 43/213/59 27/214/59 49/215/59
f 37/216/60 26/217/60 51/218/60
f 26/219/61 28/220/61 52/221/61 51/222/61
f 28/223/62 39/224/62 52/225/62
f 39/226/63 37/227/63 51/228/63 52/229/63
f 27/230/64 43/231/64 29/232/64
o mesh
v 0.46875 0.10624999999999998 0.4
v 0.46875 0.10624999999999998 -0.4
v 0.46875 0.03125 0.4
v 0.46875 0.03125 -0.4
v -0.53125 0.10624999999999998 0.4
v -0.53125 0.10624999999999998 -0.4
v -0.53125 0.03125 0.4
v -0.53125 0.03125 -0.4
v 0.4999999999999999 0.03125 0.19912581696244724
v 0.4999999999999999 0.10624999999999998 0.19916073665101902
v 0.4999999999999999 0.10624999999999998 -0.20072963757798082
v 0.4999999999999999 0.03125 -0.20131982390352146
vt 0.25 0.875
vt 0.25 1
vt 0 1
vt 0 0.875
vt 0.25 0.875
vt 0.25 1
vt 0 1
vt 0 0.875
vt 0.25 1
vt 0 1
vt 0 0.875
vt 0.25 0.875
vt 0.18772801174311898 1
vt 0.06276226979655655 1
vt 0.06277318219923522 0.875
vt 0.18791244496985046 0.875
vt 0.06276226979655655 1
vt 0 1
vt 0 0.875
vt 0.06277318219923522 0.875
vt 0.18791244496985046 0.875
vt 0.25 0.875
vt 0.25 1
vt 0.18772801174311898 1
vt 0 0.75
vt 0.25 0.75
vt 0.25 0.8127622697965565
vt 0 1
vt 0.25 0.8127622697965565
vt 0.25 0.937728011743119
vt 0 1
vt 0.25 1
vt 0 1
vt 0.25 0.937728011743119
vt 0 0.75
vt 0.25 0.8120875550301495
vt 0.25 0.9372268178007648
vt 0 1
vt 0.25 1
vt 0 1
vt 0.25 0.9372268178007648
vt 0.25 0.9372268178007648
vt 0 0.75
vt 0.25 0.75
vt 0.25 0.8120875550301495
vn -1 0 0
vn 0 0 1
vn 0 0 -1
vn 1 0 0
vn 0.9881102385656153 0 0.1537470534410424
vn 0.98785513306012 0 -0.1553777206898489
vn 0 1 0
vn 0 1 0
vn 0 1 0
vn 0 -1 0
vn 0 -1 0
vn 0 -1 0
usemtl none
f 59/233/65 57/234/65 58/235/65 60/236/65
f 55/237/66 53/238/66 57/239/66 59/240/66
f 58/241/67 54/242/67 56/243/67 60/244/67
f 63/245/68 62/246/68 61/247/68 64/248/68
f 62/249/69 53/250/69 55/251/69 61/252/69
f 64/253/70 56/254/70 54/255/70 63/256/70
f 57/257/71 53/258/71 62/259/71 58/260/71
f 62/261/72 63/262/72 58/263/72
f 54/264/73 58/265/73 63/266/73
f 60/267/74 64/268/74 61/269/74 59/270/74
f 55/271/75 59/272/75 61/273/75 61/273/75
f 60/275/76 56/276/76 64/277/76
o mesh
v 0.4511363636363636 0.18125000000000002 0.39375000000000004
v 0.4511363636363636 0.18125000000000002 -0.39375000000000004
v 0.4511363636363636 0.10625000000000005 0.39375000000000004
v 0.4511363636363636 0.10625000000000005 -0.39375000000000004
v -0.5125000000000001 0.18125000000000002 0.39375000000000004
v -0.5125000000000001 0.18125000000000002 -0.39375000000000004
v -0.5125000000000001 0.10625000000000005 0.39375000000000004
v -0.5125000000000001 0.10625000000000005 -0.39375000000000004
v 0.48124999999999996 0.10625000000000005 0.19601447607240904
v 0.48124999999999996 0.18125000000000002 0.19604885014084686
v 0.48124999999999996 0.18125000000000002 -0.19759323699082487
v 0.48124999999999996 0.10625000000000005 -0.19817420165502894
vt 0.25 0.875
vt 0.25 1
vt 0 1
vt 0 0.875
vt 0.25 0.875
vt 0.25 1
vt 0 1
vt 0 0.875
vt 0.25 1
vt 0 1
vt 0 0.875
vt 0.25 0.875
vt 0.18772801174311898 1
vt 0.06276226979655655 1
vt 0.06277318219923522 0.875
vt 0.18791244496985046 0.875
vt 0.06276226979655655 1
vt 0 1
vt 0 0.875
vt 0.06277318219923522 0.875
vt 0.18791244496985046 0.875
vt 0.25 0.875
vt 0.25 1
vt 0.18772801174311898 1
vt 0 0.75
vt 0.25 0.75
vt 0.25 0.8127622697965565
vt 0 1
vt 0.25 0.8127622697965565
vt 0.25 0.937728011743119
vt 0 1
vt 0.25 1
vt 0 1
vt 0.25 0.937728011743119
vt 0 0.75
vt 0.25 0.8120875550301495
vt 0.25 0.9372268178007648
vt 0 1
vt 0.25 1
vt 0 1
vt 0.25 0.9372268178007648
vt 0.25 0.9372268178007648
vt 0 0.75
vt 0.25 0.75
vt 0.25 0.8120875550301495
vn -1 0 0
vn 0 0 1
vn 0 0 -1
vn 1 0 0
vn 0.9885974984821826 0 0.15058215696014918
vn 0.9883526630792435 0 -0.15218085748269286
vn 0 1 0
vn 0 1 0
vn 0 1 0
vn 0 -1 0
vn 0 -1 0
vn 0 -1 0
usemtl none
f 71/278/77 69/279/77 70/280/77 72/281/77
f 67/282/78 65/283/78 69/284/78 71/285/78
f 70/286/79 66/287/79 68/288/79 72/289/79
f 75/290/80 74/291/80 73/292/80 76/293/80
f 74/294/81 65/295/81 67/296/81 73/297/81
f 76/298/82 68/299/82 66/300/82 75/301/82
f 69/302/83 65/303/83 74/304/83 70/305/83
f 74/306/84 75/307/84 70/308/84
f 66/309/85 70/310/85 75/311/85
f 72/312/86 76/313/86 73/314/86 71/315/86
f 67/316/87 71/317/87 73/318/87 73/318/87
f 72/320/88 68/321/88 76/322/88
o mesh
v 0.4511363636363636 0.42187499999999933 0.39375000000000004
v 0.4511363636363636 0.42187499999999933 -0.39375000000000004
v 0.4511363636363636 0.18125000000000008 0.39375000000000004
v 0.4511363636363636 0.18125000000000008 -0.39375000000000004
v 0.3937499999999999 0.43124999999999947 0.39375000000000004
v 0.3937499999999999 0.43124999999999947 -0.39375000000000004
v 0.3937499999999999 0.18125000000000008 0.39375000000000004
v 0.3937499999999999 0.18125000000000008 -0.39375000000000004
v 0.48124999999999996 0.18125000000000008 0.19601447607240904
v 0.48124999999999996 0.42187499999999933 0.19604885014084686
v 0.48124999999999996 0.42187499999999933 -0.19759323699082487
v 0.48124999999999996 0.18125000000000008 -0.19817420165502894
vt 0.25 0.875
vt 0.25 1
vt 0 1
vt 0 0.875
vt 0.25 0.875
vt 0.25 1
vt 0 1
vt 0 0.875
vt 0.25 1
vt 0 1
vt 0 0.875
vt 0.25 0.875
vt 0.18791244496985046 0.875
vt 0.25 0.875
vt 0.25 1
vt 0.18772801174311898 1
vt 0 0.75
vt 0.25 0.75
vt 0.25 0.8127622697965565
vt 0 1
vt 0.25 0.8127622697965565
vt 0.25 0.937728011743119
vt 0 1
vt 0.25 1
vt 0 1
vt 0.25 0.937728011743119
vt 0 0.75
vt 0.25 0.75
vt 0.25 0.8120875550301495
vt 0 0.75
vt 0.25 0.8120875550301495
vt 0.25 0.9372268178007648
vt 0 1
vt 0.18772801174311898 1
vt 0.06276226979655655 1
vt 0.06277318219923522 0.875
vt 0.18791244496985046 0.875
vt 0.06276226979655655 1
vt 0 1
vt 0 0.875
vt 0.06277318219923522 0.875
vt 0.25 1
vt 0 1
vt 0.25 0.9372268178007648
vt 0.25 0.9372268178007648
vn -1 0 0
vn 0 0 1
vn 0 0 -1
vn 0.9883526630792434 0 -0.15218085748269283
vn 0.16118042086572526 0.9866195459053362 0.024550836382824393
vn 0.10653312363426666 0.9943091539198088 0
vn 0.16117965297244327 0.9866148454676708 -0.024744012821022256
vn 0 -1 0
vn 0 -1 0
vn 1 0 0
vn 0.9885974984821826 0 0.15058215696014915
vn 0 -1 0
usemtl none
f 83/323/89 81/324/89 82/325/89 84/326/89
f 79/327/90 77/328/90 81/329/90 83/330/90
f 82/331/91 78/332/91 80/333/91 84/334/91
f 88/335/92 80/336/92 78/337/92 87/338/92
f 81/339/93 77/340/93 86/341/93 82/342/93
f 86/343/94 87/344/94 82/345/94
f 78/346/95 82/347/95 87/348/95
f 84/349/96 80/350/96 88/351/96
f 84/352/97 88/353/97 85/354/97 83/355/97
f 87/356/98 86/357/98 85/358/98 88/359/98
f 86/360/99 77/361/99 79/362/99 85/363/99
f 79/364/100 83/365/100 85/366/100 85/366/100
o cube
v -0.4 0.4312499999999998 0.39375000000000004
v -0.4 0.4312499999999998 -0.39375000000000004
v -0.4 0.18125000000000002 0.39375000000000004
v -0.4 0.18125000000000002 -0.39375000000000004
v -0.5124999999999998 0.4312499999999998 -0.39375000000000004
v -0.5124999999999998 0.4312499999999998 0.39375000000000004
v -0.5124999999999998 0.18125000000000002 -0.39375000000000004
v -0.5124999999999998 0.18125000000000002 0.39375000000000004
vt 0.018750000000000003 1
vt 0.04687499999999996 1
vt 0.04687499999999996 0.9375
vt 0.018750000000000003 0.9375
vt 0 1
vt 0.19687500000000002 1
vt 0.19687500000000002 0.9375
vt 0 0.9375
vt 0 1
vt 0.028124999999999956 1
vt 0.028124999999999956 0.9375
vt 0 0.9375
vt 0 1
vt 0.19687500000000002 1
vt 0.19687500000000002 0.9375
vt 0 0.9375
vt 0 1
vt 0.028124999999999956 1
vt 0.028124999999999956 0.803125
vt 0 0.803125
vt 0 1
vt 0.028124999999999956 1
vt 0.028124999999999956 0.803125
vt 0 0.803125
vn 0 0 -1
vn 1 0 0
vn 0 0 1
vn -1 0 0
vn 0 1 0
vn 0 -1 0
usemtl none
f 92/371/101 95/370/101 93/369/101 90/368/101
f 91/375/102 92/374/102 90/373/102 89/372/102
f 96/379/103 91/378/103 89/377/103 94/376/103
f 95/383/104 96/382/104 94/381/104 93/380/104
f 94/387/105 89/386/105 90/385/105 93/384/105
f 95/391/106 92/390/106 91/389/106 96/388/106
o mesh
v 0.39375 0.4312499999999996 0.39374999999999993
v 0.39375 0.4312499999999996 -0.39374999999999993
v 0.39375 0.18125 0.39374999999999993
v 0.39375 0.18125 -0.39374999999999993
v 0.05625000000000002 0.18125000000000022 0.39374999999999993
v 0.05625000000000002 0.18125000000000022 -0.39374999999999993
v 0.2828125 0.4499999999999995 -0.39374999999999993
v 0.2828125 0.4499999999999995 0.39374999999999993
v 0.1111869539438805 0.27500000000000013 0.39374999999999993
v 0.11005851234732703 0.27500000000000013 -0.39374999999999993
vt 0.25 1
vt 0 1
vt 0 0.875
vt 0.25 0.875
vt 0.25 0.75
vt 0.25 1
vt 0 1
vt 0 0.75
vt 0.04146185203311731 0.75
vt 0.12499999999999997 0.75
vt 0.125 1
vt 0.04061019799798263 1
vt 0.25 0.75
vt 0.25 1
vt 0.125 1
vt 0.12499999999999997 0.75
vt 0.04061019799798263 1
vt 0 1
vt 0 0.75
vt 0.04146185203311731 0.75
vt 0.25 0.875
vt 0.25 1
vt 0.12499999999999997 1
vt 0 0.875
vt 0.12499999999999997 1
vt 0.04146185203311731 1
vt 0 0.875
vt 0.25 1
vt 0.125 1
vt 0 0.875
vt 0.20938980200201737 1
vt 0.125 1
vt 0.25 0.875
vt 0 1
vt 0 0.875
vt 0.125 1
vn 1 0 0
vn -6.579099405186113e-16 -1 0
vn -0.7139567451691061 0.7001898071434174 0
vn 0.16665059388909212 0.9860160138437982 0
vn -0.8672967611249426 0.4977914504510746 0
vn 0 0 1
vn 0 0 1
vn 0 0 -1
vn 0 0 -1
vn 0 0 -1
usemtl none
f 98/392/107 97/393/107 99/394/107 100/395/107
f 100/396/108 99/397/108 101/398/108 102/399/108
f 105/400/109 104/401/109 103/402/109 106/403/109
f 97/404/110 98/405/110 103/406/110 104/407/110
f 106/408/111 102/409/111 101/410/111 105/411/111
f 99/412/112 97/413/112 104/414/112 101/415/112
f 104/416/113 105/417/113 101/418/113
f 102/419/114 103/420/114 100/421/114
f 106/422/115 103/423/115 102/424/115
f 98/425/116 100/426/116 103/427/116
o mesh
v 0.20625000000000002 0.9749999999999999 0.35625
v 0.20625000000000002 0.9749999999999999 0.23125
v 0.28125 0.3374999999999999 0.35625
v 0.28125 0.3374999999999999 0.23125
v 0.11249999999999996 0.9749999999999999 0.35625
v 0.11249999999999996 0.9749999999999999 0.23125
v 0.18125000000000002 0.3374999999999999 0.35625
v 0.18125000000000002 0.3374999999999999 0.23125
v 0.28125 0.8301513878902218 0.35625
v 0.28125 0.8306130794245473 0.23125
v 0.18125000000000002 0.8306555686452448 0.23125
v 0.18125000000000002 0.8276824308705801 0.35625
vt 0 0.75
vt 0.25 0.75
vt 0.25 1
vt 0 1
vt 0.25 0.75
vt 0.25 1
vt 0 1
vt 0 0.75
vt 0.25 0.9857484105899397
vt 0.25 1
vt 0 1
vt 0 0.9856868517186962
vt 0 0.9856868517186962
vt 0 0.875
vt 0.25 0.875
vt 0.25 0.9857484105899397
vt 0 0.875
vt 0.25 0.875
vt 0.25 0.9853576574494107
vt -6.938893903907228e-18 0.985754075819366
vt -6.938893903907228e-18 0.985754075819366
vt 0.25 0.9853576574494107
vt 0.25 1
vt 0 1
vt 0.25 0.875
vt 0.25 0.9856868517186962
vt 3.469446951953614e-18 0.9853576574494107
vt 0 0.875
vt 0.25 0.9856868517186962
vt 0.25 1
vt 0 1
vt 3.469446951953614e-18 0.9853576574494107
vt 0.25 0.985754075819366
vt 0.25 1
vt 0 1
vt 0 0.9857484105899397
vt 0 0.9857484105899397
vt 0 0.875
vt 0.25 0.875
vt 0.25 0.985754075819366
vn 0 1 0
vn 0 -1 0
vn 0.8874209885859087 0.4609598561883766 0
vn 1 0 0
vn -1 0 0
vn -0.9061330564881448 -0.42287317121579615 -0.010058081593871426
vn 0 0 1
vn 0 0 1
vn 0 0 -1
vn 0 0 -1
usemtl none
f 111/428/117 107/429/117 108/430/117 112/431/117
f 110/432/118 109/433/118 113/434/118 114/435/118
f 116/436/119 108/437/119 107/438/119 115/439/119
f 115/440/120 109/441/120 110/442/120 116/443/120
f 114/444/121 113/445/121 118/446/121 117/447/121
f 117/448/122 118/449/122 111/450/122 112/451/122
f 109/452/123 115/453/123 118/454/123 113/455/123
f 115/456/124 107/457/124 111/458/124 118/459/124
f 117/460/125 112/461/125 108/462/125 116/463/125
f 116/464/126 110/465/126 114/466/126 117/467/126
o mesh
v -0.36250000000000004 0.975 -0.2437499999999999
v -0.36250000000000004 0.9874999999999999 -0.3562499999999999
v -0.36250000000000004 0.18125000000000005 -0.2437499999999999
v -0.36250000000000004 0.18125000000000005 -0.3687499999999999
v -0.4625 0.975 -0.2437499999999999
v -0.4625 0.9874999999999999 -0.3562499999999999
v -0.4625 0.18125000000000005 -0.2437499999999999
v -0.4625 0.18125000000000005 -0.3687499999999999
vt 0.25 1
vt 0 1
vt 0 0.875
vt 0.25 0.875
vt 0.25 0.875
vt 0.25 1
vt 0 1
vt 0 0.875
vt 0 0.75
vt 0.25 0.75
vt 0.25 1
vt 0 1
vt 0.25 0.75
vt 0.25 1
vt 0 1
vt 0 0.75
vt 0.25 0.875
vt 0.25 1
vt 0 1
vt 0 0.875
vt 0.25 1
vt 0 1
vt 0 0.875
vt 0.25 0.875
vn 1 0 0
vn -1 0 0
vn 0 0.9938837346736191 0.11043152607484619
vn 0 -1 0
vn 0 0 1
vn 0 0.015502012970190882 -0.999879836577312
usemtl none
f 120/468/127 119/469/127 121/470/127 122/471/127
f 125/472/128 123/473/128 124/474/128 126/475/128
f 123/476/129 119/477/129 120/478/129 124/479/129
f 122/480/130 121/481/130 125/482/130 126/483/130
f 121/484/131 119/485/131 123/486/131 125/487/131
f 124/488/132 120/489/132 122/490/132 126/491/132
o mesh
v -0.36250000000000004 0.9874999999999999 0.35624999999999996
v -0.36250000000000004 0.975 0.24374999999999997
v -0.36250000000000004 0.18125000000000005 0.36874999999999997
v -0.36250000000000004 0.18125000000000005 0.24374999999999997
v -0.4625 0.9874999999999999 0.35624999999999996
v -0.4625 0.975 0.24374999999999997
v -0.4625 0.18125000000000005 0.36874999999999997
v -0.4625 0.18125000000000005 0.24374999999999997
vt 0.25 1
vt 0 1
vt 0 0.875
vt 0.25 0.875
vt 0.25 0.875
vt 0.25 1
vt 0 1
vt 0 0.875
vt 0 0.75
vt 0.25 0.75
vt 0.25 1
vt 0 1
vt 0.25 0.75
vt 0.25 1
vt 0 1
vt 0 0.75
vt 0.25 0.875
vt 0.25 1
vt 0 1
vt 0 0.875
vt 0.25 1
vt 0 1
vt 0 0.875
vt 0.25 0.875
vn 1 0 0
vn -1 0 0
vn 0 0.9938837346736191 -0.11043152607484619
vn 0 -1 0
vn 0 0.015502012970190882 0.999879836577312
vn 0 0 -1
usemtl none
f 128/492/133 127/493/133 129/494/133 130/495/133
f 133/496/134 131/497/134 132/498/134 134/499/134
f 131/500/135 127/501/135 128/502/135 132/503/135
f 130/504/136 129/505/136 133/506/136 134/507/136
f 129/508/137 127/509/137 131/510/137 133/511/137
f 132/512/138 128/513/138 130/514/138 134/515/138
o cube
v -0.21249999999999997 0.4312499999999998 0.39375000000000004
v -0.21249999999999997 0.4312499999999998 0.30625
v -0.21249999999999997 0.18125000000000002 0.39375000000000004
v -0.21249999999999997 0.18125000000000002 0.30625
v -0.39999999999999986 0.4312499999999998 0.30625
v -0.39999999999999986 0.4312499999999998 0.39375000000000004
v -0.39999999999999986 0.18125000000000002 0.30625
v -0.39999999999999986 0.18125000000000002 0.39375000000000004
vt 0.034374999999999996 1
vt 0.08124999999999996 1
vt 0.08124999999999996 0.9375
vt 0.034374999999999996 0.9375
vt 0 1
vt 0.021875000000000006 1
vt 0.021875000000000006 0.9375
vt 0 0.9375
vt 0.028124999999999997 1
vt 0.07499999999999996 1
vt 0.07499999999999996 0.9375
vt 0.028124999999999997 0.9375
vt 0.17500000000000002 1
vt 0.19687500000000002 1
vt 0.19687500000000002 0.9375
vt 0.17500000000000002 0.9375
vt 0.028124999999999997 0.825
vt 0.07499999999999996 0.825
vt 0.07499999999999996 0.803125
vt 0.028124999999999997 0.803125
vt 0.028124999999999997 1
vt 0.07499999999999996 1
vt 0.07499999999999996 0.978125
vt 0.028124999999999997 0.978125
vn 0 0 -1
vn 1 0 0
vn 0 0 1
vn -1 0 0
vn 0 1 0
vn 0 -1 0
usemtl none
f 138/519/139 141/518/139 139/517/139 136/516/139
f 137/523/140 138/522/140 136/521/140 135/520/140
f 142/527/141 137/526/141 135/525/141 140/524/141
f 141/531/142 142/530/142 140/529/142 139/528/142
f 140/535/143 135/534/143 136/533/143 139/532/143
f 141/539/144 138/538/144 137/537/144 142/536/144
o cube
v -0.21249999999999997 0.4312499999999998 -0.30625
v -0.21249999999999997 0.4312499999999998 -0.39375000000000004
v -0.21249999999999997 0.18125000000000002 -0.30625
v -0.21249999999999997 0.18125000000000002 -0.39375000000000004
v -0.39999999999999986 0.4312499999999998 -0.39375000000000004
v -0.39999999999999986 0.4312499999999998 -0.30625
v -0.39999999999999986 0.18125000000000002 -0.39375000000000004
v -0.39999999999999986 0.18125000000000002 -0.30625
vt 0.034374999999999996 1
vt 0.08124999999999996 1
vt 0.08124999999999996 0.9375
vt 0.034374999999999996 0.9375
vt 0 1
vt 0.021875000000000006 1
vt 0.021875000000000006 0.9375
vt 0 0.9375
vt 0.028124999999999997 1
vt 0.07499999999999996 1
vt 0.07499999999999996 0.9375
vt 0.028124999999999997 0.9375
vt 0.17500000000000002 1
vt 0.19687500000000002 1
vt 0.19687500000000002 0.9375
vt 0.17500000000000002 0.9375
vt 0.028124999999999997 0.825
vt 0.07499999999999996 0.825
vt 0.07499999999999996 0.803125
vt 0.028124999999999997 0.803125
vt 0.028124999999999997 1
vt 0.07499999999999996 1
vt 0.07499999999999996 0.978125
vt 0.028124999999999997 0.978125
vn 0 0 -1
vn 1 0 0
vn 0 0 1
vn -1 0 0
vn 0 1 0
vn 0 -1 0
usemtl none
f 146/543/145 149/542/145 147/541/145 144/540/145
f 145/547/146 146/546/146 144/545/146 143/544/146
f 150/551/147 145/550/147 143/549/147 148/548/147
f 149/555/148 150/554/148 148/553/148 147/552/148
f 148/559/149 143/558/149 144/557/149 147/556/149
f 149/563/150 146/562/150 145/561/150 150/560/150
o cube
v 0.20625 1.012500000000001 0.35625000000000007
v 0.20625 1.012500000000001 -0.35625000000000007
v 0.20625 0.9749999999999994 0.35625000000000007
v 0.20625 0.9749999999999994 -0.35625000000000007
v -0.5124999999999998 1.012500000000001 -0.35625000000000007
v -0.5124999999999998 1.012500000000001 0.35625000000000007
v -0.5124999999999998 0.9749999999999994 -0.35625000000000007
v -0.5124999999999998 0.9749999999999994 0.35625000000000007
vt 0.021875000000000006 0.9468750000000002
vt 0.20156249999999998 0.9468750000000002
vt 0.20156249999999998 0.9374999999999998
vt 0.021875000000000006 0.9374999999999998
vt 0.009374999999999994 0.9468750000000002
vt 0.18750000000000003 0.9468750000000002
vt 0.18750000000000003 0.9374999999999998
vt 0.009374999999999994 0.9374999999999998
vt 0 0.9468750000000002
vt 0.17968749999999997 0.9468750000000002
vt 0.17968749999999997 0.9374999999999998
vt 0 0.9374999999999998
vt 0.009374999999999994 0.9468750000000002
vt 0.18750000000000003 0.9468750000000002
vt 0.18750000000000003 0.9374999999999998
vt 0.009374999999999994 0.9374999999999998
vt 0 0.990625
vt 0.17968749999999997 0.990625
vt 0.17968749999999997 0.8125
vt 0 0.8125
vt 0 0.990625
vt 0.17968749999999997 0.990625
vt 0.17968749999999997 0.8125
vt 0 0.8125
vn 0 0 -1
vn 1 0 0
vn 0 0 1
vn -1 0 0
vn 0 1 0
vn 0 -1 0
usemtl none
f 154/567/151 157/566/151 155/565/151 152/564/151
f 153/571/152 154/570/152 152/569/152 151/568/152
f 158/575/153 153/574/153 151/573/153 156/572/153
f 157/579/154 158/578/154 156/577/154 155/576/154
f 156/583/155 151/582/155 152/581/155 155/580/155
f 157/587/156 154/586/156 153/585/156 158/584/156
o mesh
v 0.20625000000000002 0.9749999999999999 -0.23125
v 0.20625000000000002 0.9749999999999999 -0.35625
v 0.28125 0.3374999999999999 -0.23125
v 0.28125 0.3374999999999999 -0.35625
v 0.11249999999999996 0.9749999999999999 -0.23125
v 0.11249999999999996 0.9749999999999999 -0.35625
v 0.18125000000000002 0.3374999999999999 -0.23125
v 0.18125000000000002 0.3374999999999999 -0.35625
v 0.28125 0.8301513878902218 -0.23125
v 0.28125 0.8306130794245473 -0.35625
v 0.18125000000000002 0.8306555686452448 -0.35625
v 0.18125000000000002 0.8276824308705801 -0.23125
vt 0 0.75
vt 0.25 0.75
vt 0.25 1
vt 0 1
vt 0.25 0.75
vt 0.25 1
vt 0 1
vt 0 0.75
vt 0.25 0.9857484105899397
vt 0.25 1
vt 0 1
vt 0 0.9856868517186962
vt 0 0.9856868517186962
vt 0 0.875
vt 0.25 0.875
vt 0.25 0.9857484105899397
vt 0 0.875
vt 0.25 0.875
vt 0.25 0.9853576574494107
vt -6.938893903907228e-18 0.985754075819366
vt -6.938893903907228e-18 0.985754075819366
vt 0.25 0.9853576574494107
vt 0.25 1
vt 0 1
vt 0.25 0.875
vt 0.25 0.9856868517186962
vt 3.469446951953614e-18 0.9853576574494107
vt 0 0.875
vt 0.25 0.9856868517186962
vt 0.25 1
vt 0 1
vt 3.469446951953614e-18 0.9853576574494107
vt 0.25 0.985754075819366
vt 0.25 1
vt 0 1
vt 0 0.9857484105899397
vt 0 0.9857484105899397
vt 0 0.875
vt 0.25 0.875
vt 0.25 0.985754075819366
vn 0 1 0
vn 0 -1 0
vn 0.8874209885859087 0.4609598561883766 0
vn 1 0 0
vn -1 0 0
vn -0.9061330564881448 -0.42287317121579615 -0.010058081593871426
vn 0 0 1
vn 0 0 1
vn 0 0 -1
vn 0 0 -1
usemtl none
f 163/588/157 159/589/157 160/590/157 164/591/157
f 162/592/158 161/593/158 165/594/158 166/595/158
f 168/596/159 160/597/159 159/598/159 167/599/159
f 167/600/160 161/601/160 162/602/160 168/603/160
f 166/604/161 165/605/161 170/606/161 169/607/161
f 169/608/162 170/609/162 163/610/162 164/611/162
f 161/612/163 167/613/163 170/614/163 165/615/163
f 167/616/164 159/617/164 163/618/164 170/619/164
f 169/620/165 164/621/165 160/622/165 168/623/165
f 168/624/166 162/625/166 166/626/166 169/627/166
o 4
v -0.3130206250000002 0.19010394886363635 0.2812500000000001
v -0.3130206250000002 0.09427105113636361 0.2812500000000001
v -0.40885437500000027 0.19010394886363635 0.2812500000000001
v -0.40885437500000027 0.09427105113636361 0.2812500000000001
v -0.3130206250000002 0.1901039488636363 0.4203125000000001
v -0.3130206250000002 0.09427105113636358 0.4203125000000001
v -0.40885437500000027 0.1901039488636363 0.4203125000000001
v -0.40885437500000027 0.09427105113636358 0.4203125000000001
v -0.5046875000000002 0.1901039488636363 0.41782015625000013
v -0.5046875000000002 0.19010394886363635 0.2836459375000001
v -0.5046875000000002 0.09427105113636358 0.41782015625000013
v -0.5046875000000002 0.09427105113636361 0.28364593750000006
v -0.2171875000000003 0.1901039488636363 0.41782015625000013
v -0.2171875000000003 0.19010394886363635 0.2836459375000001
v -0.2171875000000003 0.09427105113636358 0.41782015625000013
v -0.2171875000000003 0.09427105113636361 0.28364593750000006
v -0.3130206250000002 -0.0015625000000000777 0.41782015625000013
v -0.3130206250000002 -0.00156250000000005 0.28364593750000006
v -0.40885437500000027 -0.0015625000000000777 0.41782015625000013
v -0.40885437500000027 -0.00156250000000005 0.28364593750000006
v -0.3130206250000002 0.28593749999999996 0.41782015625000013
v -0.3130206250000002 0.28593749999999996 0.2836459375000001
v -0.40885437500000027 0.28593749999999996 0.41782015625000013
v -0.40885437500000027 0.28593749999999996 0.2836459375000001
vt 0.015625 0.984375
vt 0.015625 1
vt 0 1
vt 0 0.984375
vt 0 0.984375
vt 0.015625 0.984375
vt 0.015625 1
vt 0 1
vt 0.015625 1
vt 0 1
vt 0 0.977903125
vt 0.015625 0.977903125
vt 0.015625 0.977903125
vt 0.015625 1
vt 0 1
vt 0 0.977903125
vt 0.015625 0.977903125
vt 0.015625 1
vt 0 1
vt 0 0.977903125
vt 0.015625 1
vt 0 1
vt 0 0.977903125
vt 0.015625 0.977903125
vt 0 1
vt 0 0.977903125
vt 0.015625 0.977903125
vt 0.015625 1
vt 0 0.977903125
vt 0.015625 0.977903125
vt 0.015625 1
vt 0 1
vt 0 0.977903125
vt 0.015625 0.977903125
vt 0.015625 1
vt 0 1
vt 0 1
vt 0 0.977903125
vt 0.015625 0.977903125
vt 0.015625 1
vt 0.0110484375 0.9808625
vt 0.022096875 1
vt 0 1
vt 0.0110484375 0.9808625
vt 0.022096875 1
vt 0 1
vt 0.0110484375 0.9808625
vt 0.022096875 1
vt 0 1
vt 0.0110484375 0.9808625
vt 0.022096875 1
vt 0 1
vt 0.0110484375 1
vt 0 0.9808640625
vt 0.022096875 0.9808640625
vt 0.0110484375 1
vt 0 0.9808640625
vt 0.022096875 0.9808640625
vt 0.0110484375 1
vt 0 0.9808640625
vt 0.022096875 0.9808640625
vt 0.0110484375 1
vt 0 0.9808640625
vt 0.022096875 0.9808640625
vt 0.015625 1
vt 0 1
vt 0 0.96875
vt 0.015625 0.96875
vt 0.015625 0.96875
vt 0.015625 1
vt 0 1
vt 0 0.96875
vt 0.015625 0.96875
vt 0.015625 1
vt 0 1
vt 0 0.96875
vt 0.015625 1
vt 0 1
vt 0 0.96875
vt 0.015625 0.96875
vt 0 0.96875
vt 0.022096875 0.96875
vt 0.022096875 1
vt 0 1
vt 0 1
vt 0 0.96875
vt 0.022096875 0.96875
vt 0.022096875 1
vt 0 1
vt 0 0.96875
vt 0.022096875 0.96875
vt 0.022096875 1
vt 0 0.96875
vt 0.022096875 0.96875
vt 0.022096875 1
vt 0 1
vn 0 2.220446049250313e-16 -1
vn 0 -2.220446049250313e-16 1
vn 0.024993331397843124 2.2197524216539112e-16 -0.999687617901531
vn -0.024993331397843113 2.2197524216539112e-16 -0.999687617901531
vn 0 0.02499322033116342 -0.9996876206783187
vn 0 -0.024993220331162976 -0.9996876206783187
vn 0.025998330990283192 -2.219695507990544e-16 0.9996619862662178
vn -0.025998330990283185 -2.219695507990544e-16 0.9996619862662178
vn 0 0.025998215463457344 0.9996619892707312
vn 0 -0.025998215463457788 0.9996619892707312
vn 0.025989549212188802 0.02598943364627387 0.9993243180622062
vn -0.0259895492121888 0.025989433646273877 0.9993243180622062
vn 0.025989549212188802 -0.025989433646274315 0.9993243180622062
vn -0.02598954921218879 -0.025989433646274315 0.999324318062206
vn 0.02498552887267302 0.02498541777126571 -0.999375531142197
vn -0.024985528872673014 0.02498541777126571 -0.999375531142197
vn 0.02498552887267302 -0.024985417771265266 -0.999375531142197
vn -0.024985528872673014 -0.024985417771265266 -0.999375531142197
vn 1 0 0
vn -1 0 0
vn 0 1 2.220446049250313e-16
vn 0 -1 -2.220446049250313e-16
vn 0.7071083533094832 -0.7071052090601166 -1.5700889678618527e-16
vn 0.7071083533094832 0.7071052090601166 1.5700889678618527e-16
vn -0.7071083533094831 -0.7071052090601166 -1.5700889678618527e-16
vn -0.7071083533094831 0.7071052090601166 1.5700889678618527e-16
usemtl none
f 171/628/167 172/629/167 174/630/167 173/631/167
f 178/632/168 176/633/168 175/634/168 177/635/168
f 172/636/169 171/637/169 184/638/169 186/639/169
f 180/640/170 173/641/170 174/642/170 182/643/170
f 192/644/171 171/645/171 173/646/171 194/647/171
f 174/648/172 172/649/172 188/650/172 190/651/172
f 183/652/173 175/653/173 176/654/173 185/655/173
f 178/656/174 177/657/174 179/658/174 181/659/174
f 177/660/175 175/661/175 191/662/175 193/663/175
f 187/664/176 176/665/176 178/666/176 189/667/176
f 175/668/177 183/669/177 191/670/177
f 177/671/178 193/672/178 179/673/178
f 176/674/179 187/675/179 185/676/179
f 178/677/180 181/678/180 189/679/180
f 171/680/181 192/681/181 184/682/181
f 173/683/182 180/684/182 194/685/182
f 172/686/183 186/687/183 188/688/183
f 174/689/184 190/690/184 182/691/184
f 186/692/185 184/693/185 183/694/185 185/695/185
f 179/696/186 180/697/186 182/698/186 181/699/186
f 191/700/187 192/701/187 194/702/187 193/703/187
f 190/704/188 188/705/188 187/706/188 189/707/188
f 185/708/189 187/709/189 188/710/189 186/711/189
f 192/712/190 191/713/190 183/714/190 184/715/190
f 190/716/191 189/717/191 181/718/191 182/719/191
f 179/720/192 193/721/192 194/722/192 180/723/192
o 4
v -0.31927065217391326 0.18385397727272723 0.42343750000000024
v -0.31927065217391326 0.1005210227272727 0.42343750000000024
v -0.4026043478260872 0.18385397727272723 0.4203125000000003
v -0.4026043478260872 0.1005210227272727 0.4203125000000003
v -0.48593750000000024 0.18385397727272723 0.4311654687500003
v -0.48593750000000024 0.18385397727272723 0.41896781250000026
v -0.48593750000000024 0.1005210227272727 0.4311654687500003
v -0.48593750000000024 0.1005210227272727 0.41896781250000026
v -0.2359375000000003 0.18385397727272723 0.4311654687500003
v -0.2359375000000003 0.18385397727272723 0.41896781250000026
v -0.2359375000000003 0.1005210227272727 0.4311654687500003
v -0.2359375000000003 0.1005210227272727 0.41896781250000026
v -0.31927065217391326 0.017187499999999953 0.4311654687500003
v -0.31927065217391326 0.017187499999999953 0.41896781250000026
v -0.4026043478260872 0.017187499999999953 0.4311654687500003
v -0.4026043478260872 0.017187499999999953 0.41896781250000026
v -0.31927065217391326 0.26718749999999997 0.43116546875000034
v -0.31927065217391326 0.26718749999999997 0.4189678125000003
v -0.4026043478260872 0.26718749999999997 0.43116546875000034
v -0.4026043478260872 0.26718749999999997 0.4189678125000003
v -0.30148681276233197 0.16497262869843848 0.4359194628056585
v -0.30093056067409724 0.11920198768434867 0.43591889853598775
v -0.4181235806819221 0.11674797204774863 0.43279676005329704
v -0.4180680546193472 0.1673288606314037 0.4327968163796888
v -0.3841522934707936 0.20359885587522608 0.43122997359555504
v -0.3369533025417678 0.20386492736431608 0.43122970369022073
v -0.3326990074280022 0.08310736411883335 0.431232338403783
v -0.38762281083837696 0.08407687176818697 0.4312333218812506
vt 0.015625 0.984375
vt 0.015625 1
vt 0 1
vt 0 0.984375
vt 0.015625 1
vt 0 1
vt 0 0.977903125
vt 0.015625 0.977903125
vt 0.015625 0.977903125
vt 0.015625 1
vt 0 1
vt 0 0.977903125
vt 0.015625 0.977903125
vt 0.015625 1
vt 0 1
vt 0 0.977903125
vt 0.015625 1
vt 0 1
vt 0 0.977903125
vt 0.015625 0.977903125
vt 0.0110484375 0.9808625
vt 0.022096875 1
vt 0 1
vt 0.0110484375 0.9808625
vt 0.022096875 1
vt 0 1
vt 0.0110484375 0.9808625
vt 0.022096875 1
vt 0 1
vt 0.0110484375 1
vt 0 0.9808640625
vt 0.022096875 0.9808640625
vt 0.0110484375 1
vt 0 0.9808640625
vt 0.022096875 0.9808640625
vt 0.0110484375 1
vt 0 0.9808640625
vt 0.022096875 0.9808640625
vt 0.0110484375 1
vt 0 0.9808640625
vt 0.022096875 0.9808640625
vt 0.015625 1
vt 0 1
vt 0 0.96875
vt 0.015625 0.96875
vt 0.015625 0.96875
vt 0.015625 1
vt 0 1
vt 0 0.96875
vt 0.015625 0.96875
vt 0.015625 1
vt 0 1
vt 0 0.96875
vt 0.015625 1
vt 0 1
vt 0 0.96875
vt 0.015625 0.96875
vt 0 0.96875
vt 0.022096875 0.96875
vt 0.022096875 1
vt 0 1
vt 0 1
vt 0 0.96875
vt 0.022096875 0.96875
vt 0.022096875 1
vt 0 1
vt 0 0.96875
vt 0.022096875 0.96875
vt 0.022096875 1
vt 0 0.96875
vt 0.022096875 0.96875
vt 0.022096875 1
vt 0 1
vt 0 0.984375
vt 0.015625 0.984375
vt 0.015625 1
vt 0 1
vt 0 1
vt 0 0.977903125
vt 0.003540268949810732 0.9826187425689153
vt 0.015625 1
vt 0.003540268949810732 0.9826187425689153
vt 0 0.977903125
vt 0.015625 0.977903125
vt 0.01212230314919893 0.9827662400839122
vt 0.015625 0.977903125
vt 0.015625 1
vt 0.01212230314919893 0.9827662400839122
vt 0.003540268949810732 0.9826187425689153
vt 0.01212230314919893 0.9827662400839122
vt 0.015625 1
vt 0 0.977903125
vt 0.015625 0.977903125
vt 0.012526526545781593 0.9820035290660746
vt 0.003042566827438454 0.98201825252765
vt 0.012526526545781593 0.9820035290660746
vt 0.015625 0.977903125
vt 0.015625 1
vt 0 1
vt 0 1
vt 0 0.977903125
vt 0.003042566827438454 0.98201825252765
vt 0.003042566827438454 0.98201825252765
vt 0.012526526545781593 0.9820035290660746
vt 0 1
vt 0.00345974514924734 0.9831387144729788
vt 0 0.977903125
vt 0.015625 0.977903125
vt 0.012309517471168702 0.9832092664938609
vt 0.015625 0.977903125
vt 0.015625 1
vt 0.012309517471168702 0.9832092664938609
vt 0.015625 1
vt 0 1
vt 0.00345974514924734 0.9831387144729788
vt 0.012309517471168702 0.9832092664938609
vt 0 1
vt 0 0.977903125
vt 0.00345974514924734 0.9831387144729788
vt 0 1
vt 0 0.977903125
vt 0.0025178056631605284 0.9825205637561779
vt 0 0.977903125
vt 0.015625 0.977903125
vt 0.012815974027960723 0.9822634872683648
vt 0.0025178056631605284 0.9825205637561779
vt 0.015625 0.977903125
vt 0.015625 1
vt 0.012815974027960723 0.9822634872683648
vt 0.015625 1
vt 0 1
vt 0.0025178056631605284 0.9825205637561779
vt 0.012815974027960723 0.9822634872683648
vt 0.0110484375 0.9808625
vt 0.022096875 1
vt 0 1
vn 0.03747349788963803 2.2188864563741296e-16 -0.999297621810397
vn -0.053559380515623325 2.2172589681800557e-16 -0.9985646662879589
vn 0.016134184708539133 2.2201570261570902e-16 -0.999869835570506
vn 0.03741978676020079 -0.053521632065307384 -0.9978653187980266
vn 0.03741978676020079 0.053521632065307814 -0.9978653187980264
vn -0.09194845079073598 -0.09194804192997703 0.9915094754879687
vn -0.09194845079073598 0.09194804192997659 0.9915094754879687
vn 0.12808159333833616 0.12808102380685352 0.9834583655592652
vn -0.05348272566407766 -0.053482487846173724 -0.997135508117791
vn 0.016132085176832917 -0.01613201344341538 -0.9997397231130256
vn -0.05348272566407766 0.05348248784617417 -0.997135508117791
vn 0.016132085176832917 0.016132013443415825 -0.9997397231130256
vn 1 0 0
vn -1 0 0
vn 0 1 2.220446049250313e-16
vn 0 -1 -2.220446049250313e-16
vn 0.7071083533094831 -0.7071052090601166 -1.5700889678618527e-16
vn 0.7071083533094831 0.7071052090601166 1.5700889678618527e-16
vn -0.7071083533094831 -0.7071052090601168 -1.570088967861853e-16
vn -0.7071083533094831 0.7071052090601168 1.570088967861853e-16
vn -0.03747349788963803 -2.2188864563741296e-16 0.999297621810397
vn -0.08017847323184038 0.4960397693111359 0.8645900529684378
vn -0.5744897531680544 -1.817461233932051e-16 0.8185117735896706
vn -0.08006275756937219 -0.4982269635329716 0.8633422540679351
vn 0.07319343829665893 0.0008772271058447319 0.9973173772991817
vn 0.6281665459423788 -1.7276822422453358e-16 0.7780789102390717
vn 0.10935255748282317 0.5320058169732761 0.8396498251524637
vn 0.10880510283797426 -0.5386937813716486 0.8354462636866195
vn -0.024054496936148775 0.000025292980100890533 0.9997106484065347
vn -0.033280855982662456 -0.4596171620285023 0.8874933515209715
vn 0.3170434482518733 -0.08757552591660575 0.9443590308674937
vn 0 0.0010144077335514441 0.9999994854883427
vn -0.4092408060415458 -0.11783504192259901 0.9047855356743749
vn 0.41659369724845124 0.08394491158661634 0.9052087843318696
vn -0.031713029549186686 0.5327401521060452 0.8456844648513064
vn -0.5024262313518815 0.11166110675809868 0.8573795421440275
vn 0 -0.0010144077247632851 0.9999994854883518
vn 0.12808159333833616 -0.12808102380685396 0.9834583655592652
usemtl none
f 195/724/193 196/725/193 198/726/193 197/727/193
f 196/728/194 195/729/194 204/730/194 206/731/194
f 200/732/195 197/733/195 198/734/195 202/735/195
f 212/736/196 195/737/196 197/738/196 214/739/196
f 198/740/197 196/741/197 208/742/197 210/743/197
f 195/744/198 203/745/198 211/746/198
f 196/747/199 207/748/199 205/749/199
f 198/750/200 201/751/200 209/752/200
f 195/753/201 212/754/201 204/755/201
f 197/756/202 200/757/202 214/758/202
f 196/759/203 206/760/203 208/761/203
f 198/762/204 210/763/204 202/764/204
f 206/765/205 204/766/205 203/767/205 205/768/205
f 199/769/206 200/770/206 202/771/206 201/772/206
f 211/773/207 212/774/207 214/775/207 213/776/207
f 210/777/208 208/778/208 207/779/208 209/780/208
f 205/781/209 207/782/209 208/783/209 206/784/209
f 212/785/210 211/786/210 203/787/210 204/788/210
f 210/789/211 209/790/211 201/791/211 202/792/211
f 199/793/212 213/794/212 214/795/212 200/796/212
f 198/797/213 196/798/213 195/799/213 197/800/213
f 203/801/214 195/802/214 215/803/214 205/804/214
f 215/805/215 195/806/215 196/807/215 216/808/215
f 196/809/216 205/810/216 216/811/216
f 215/812/217 216/813/217 205/814/217
f 198/815/218 197/816/218 218/817/218 217/818/218
f 218/819/219 197/820/219 199/821/219 201/822/219
f 201/823/220 198/824/220 217/825/220
f 217/826/221 218/827/221 201/828/221
f 219/829/222 197/830/222 195/831/222 220/832/222
f 195/833/223 211/834/223 220/835/223
f 211/836/224 213/837/224 219/838/224 220/839/224
f 213/840/225 197/841/225 219/842/225
f 207/843/226 196/844/226 221/845/226
f 196/846/227 198/847/227 222/848/227 221/849/227
f 198/850/228 209/851/228 222/852/228
f 209/853/229 207/854/229 221/855/229 222/856/229
f 197/857/230 213/858/230 199/859/230
o 4
v 0.17864562499999986 0.19010394886363616 -0.28749999999999976
v 0.17864562499999986 0.09427105113636343 -0.2875
v 0.2744793749999997 0.19010394886363616 -0.2874999999999998
v 0.2744793749999997 0.09427105113636342 -0.2875
v 0.17864562499999986 0.19010394886363643 -0.4265624999999998
v 0.17864562499999986 0.0942710511363637 -0.4265625
v 0.2744793749999997 0.19010394886363643 -0.4265624999999998
v 0.2744793749999997 0.09427105113636369 -0.4265625
v 0.37031249999999954 0.1901039488636364 -0.42407015624999983
v 0.37031249999999954 0.19010394886363616 -0.28989593749999976
v 0.37031249999999954 0.09427105113636369 -0.42407015625000005
v 0.37031249999999954 0.09427105113636342 -0.2898959375
v 0.08281249999999989 0.19010394886363643 -0.4240701562499998
v 0.08281249999999989 0.19010394886363616 -0.28989593749999976
v 0.08281249999999989 0.0942710511363637 -0.42407015625
v 0.08281249999999989 0.09427105113636344 -0.2898959375
v 0.17864562499999986 -0.0015624999999999112 -0.4240701562500002
v 0.17864562499999986 -0.0015625000000001887 -0.2898959375000002
v 0.2744793749999997 -0.0015624999999999112 -0.4240701562500002
v 0.2744793749999997 -0.0015625000000001887 -0.2898959375000002
v 0.17864562499999986 0.2859375000000001 -0.4240701562499996
v 0.17864562499999986 0.28593749999999984 -0.28989593749999953
v 0.2744793749999997 0.2859375000000001 -0.4240701562499996
v 0.2744793749999997 0.28593749999999984 -0.2898959374999996
vt 0.015625 0.984375
vt 0.015625 1
vt 0 1
vt 0 0.984375
vt 0 0.984375
vt 0.015625 0.984375
vt 0.015625 1
vt 0 1
vt 0.015625 1
vt 0 1
vt 0 0.977903125
vt 0.015625 0.977903125
vt 0.015625 0.977903125
vt 0.015625 1
vt 0 1
vt 0 0.977903125
vt 0.015625 0.977903125
vt 0.015625 1
vt 0 1
vt 0 0.977903125
vt 0.015625 1
vt 0 1
vt 0 0.977903125
vt 0.015625 0.977903125
vt 0 1
vt 0 0.977903125
vt 0.015625 0.977903125
vt 0.015625 1
vt 0 0.977903125
vt 0.015625 0.977903125
vt 0.015625 1
vt 0 1
vt 0 0.977903125
vt 0.015625 0.977903125
vt 0.015625 1
vt 0 1
vt 0 1
vt 0 0.977903125
vt 0.015625 0.977903125
vt 0.015625 1
vt 0.0110484375 0.9808625
vt 0.022096875 1
vt 0 1
vt 0.0110484375 0.9808625
vt 0.022096875 1
vt 0 1
vt 0.0110484375 0.9808625
vt 0.022096875 1
vt 0 1
vt 0.0110484375 0.9808625
vt 0.022096875 1
vt 0 1
vt 0.0110484375 1
vt 0 0.9808640625
vt 0.022096875 0.9808640625
vt 0.0110484375 1
vt 0 0.9808640625
vt 0.022096875 0.9808640625
vt 0.0110484375 1
vt 0 0.9808640625
vt 0.022096875 0.9808640625
vt 0.0110484375 1
vt 0 0.9808640625
vt 0.022096875 0.9808640625
vt 0.015625 1
vt 0 1
vt 0 0.96875
vt 0.015625 0.96875
vt 0.015625 0.96875
vt 0.015625 1
vt 0 1
vt 0 0.96875
vt 0.015625 0.96875
vt 0.015625 1
vt 0 1
vt 0 0.96875
vt 0.015625 1
vt 0 1
vt 0 0.96875
vt 0.015625 0.96875
vt 0 0.96875
vt 0.022096875 0.96875
vt 0.022096875 1
vt 0 1
vt 0 1
vt 0 0.96875
vt 0.022096875 0.96875
vt 0.022096875 1
vt 0 1
vt 0 0.96875
vt 0.022096875 0.96875
vt 0.022096875 1
vt 0 0.96875
vt 0.022096875 0.96875
vt 0.022096875 1
vt 0 1
vn 1.224646799147353e-16 -2.1094237467877974e-15 1
vn -1.224646799147353e-16 2.1094237467877974e-15 -1
vn -0.02499333139784299 -2.1077242441219665e-15 0.999687617901531
vn 0.02499333139784326 -2.1098053570204648e-15 0.999687617901531
vn 1.2346697630626313e-16 0.02499322033116108 0.9996876206783187
vn 1.213858726559241e-16 -0.02499322033116532 0.9996876206783187
vn -0.0259983309902833 2.1097931305535383e-15 -0.9996619862662178
vn 0.025998330990283088 2.1076283346284956e-15 -0.9996619862662178
vn -1.2134089238621653e-16 0.025998215463459665 -0.9996619892707312
vn -1.2350567869171878e-16 -0.025998215463455477 -0.9996619892707315
vn -0.025989549212188906 0.02598943364627619 -0.999324318062206
vn 0.02598954921218869 0.025989433646276188 -0.999324318062206
vn -0.025989549212188906 -0.025989433646272 -0.9993243180622062
vn 0.025989549212188698 -0.025989433646272007 -0.9993243180622062
vn -0.02498552887267289 0.024985417771263375 0.999375531142197
vn 0.02498552887267316 0.024985417771263372 0.999375531142197
vn -0.024985528872672882 -0.024985417771267608 0.999375531142197
vn 0.024985528872673156 -0.02498541777126761 0.9993755311421969
vn -1 4.1633363423443105e-17 1.224646799147354e-16
vn 1 -4.1633363423443105e-17 -1.224646799147354e-16
vn 4.163336342344337e-17 1 1.9984014443252818e-15
vn -4.163336342344337e-17 -1 -1.9984014443252818e-15
vn -0.7071083533094827 -0.707105209060117 -1.3264842729225867e-15
vn -0.7071083533094831 0.7071052090601168 1.4996758692287491e-15
vn 0.7071083533094832 -0.7071052090601165 -1.4996758692287485e-15
vn 0.7071083533094835 0.7071052090601163 1.3264842729225851e-15
usemtl none
f 223/860/231 224/861/231 226/862/231 225/863/231
f 230/864/232 228/865/232 227/866/232 229/867/232
f 224/868/233 223/869/233 236/870/233 238/871/233
f 232/872/234 225/873/234 226/874/234 234/875/234
f 244/876/235 223/877/235 225/878/235 246/879/235
f 226/880/236 224/881/236 240/882/236 242/883/236
f 235/884/237 227/885/237 228/886/237 237/887/237
f 230/888/238 229/889/238 231/890/238 233/891/238
f 229/892/239 227/893/239 243/894/239 245/895/239
f 239/896/240 228/897/240 230/898/240 241/899/240
f 227/900/241 235/901/241 243/902/241
f 229/903/242 245/904/242 231/905/242
f 228/906/243 239/907/243 237/908/243
f 230/909/244 233/910/244 241/911/244
f 223/912/245 244/913/245 236/914/245
f 225/915/246 232/916/246 246/917/246
f 224/918/247 238/919/247 240/920/247
f 226/921/248 242/922/248 234/923/248
f 238/924/249 236/925/249 235/926/249 237/927/249
f 231/928/250 232/929/250 234/930/250 233/931/250
f 243/932/251 244/933/251 246/934/251 245/935/251
f 242/936/252 240/937/252 239/938/252 241/939/252
f 237/940/253 239/941/253 240/942/253 238/943/253
f 244/944/254 243/945/254 235/946/254 236/947/254
f 242/948/255 241/949/255 233/950/255 234/951/255
f 231/952/256 245/953/256 246/954/256 232/955/256
o 4
v 0.18489565217391285 0.18385397727272734 -0.42968749999999994
v 0.18489565217391285 0.10052102272727283 -0.4296875000000001
v 0.2682293478260866 0.18385397727272734 -0.42656249999999996
v 0.2682293478260866 0.10052102272727281 -0.4265625000000002
v 0.3515624999999996 0.18385397727272737 -0.43741546875000004
v 0.3515624999999996 0.18385397727272734 -0.4252178125
v 0.3515624999999996 0.10052102272727284 -0.4374154687500002
v 0.3515624999999996 0.10052102272727281 -0.4252178125000002
v 0.10156249999999988 0.18385397727272737 -0.43741546875
v 0.10156249999999988 0.18385397727272734 -0.42521781249999996
v 0.10156249999999988 0.10052102272727284 -0.43741546875000015
v 0.10156249999999988 0.10052102272727281 -0.4252178125000001
v 0.18489565217391285 0.017187500000000105 -0.43741546875000037
v 0.18489565217391285 0.017187500000000078 -0.42521781250000035
v 0.2682293478260866 0.017187500000000105 -0.43741546875000037
v 0.2682293478260866 0.017187500000000078 -0.42521781250000035
v 0.18489565217391285 0.26718750000000013 -0.4374154687499998
v 0.18489565217391285 0.26718750000000013 -0.4252178124999998
v 0.2682293478260866 0.26718750000000013 -0.4374154687499998
v 0.2682293478260866 0.26718750000000013 -0.4252178124999998
v 0.16711181276233156 0.16497262869843862 -0.4421694628056583
v 0.16655556067409683 0.11920198768434882 -0.4421688985359876
v 0.2837485806819215 0.11674797204774878 -0.43904676005329685
v 0.28369305461934663 0.16732886063140387 -0.4390468163796885
v 0.24977729347079297 0.20359885587522622 -0.4374799735955547
v 0.20257830254176729 0.20386492736431622 -0.4374797036902204
v 0.19832400742800166 0.08310736411883349 -0.4374823384037829
v 0.2532478108383764 0.08407687176818712 -0.4374833218812505
vt 0.015625 0.984375
vt 0.015625 1
vt 0 1
vt 0 0.984375
vt 0.015625 1
vt 0 1
vt 0 0.977903125
vt 0.015625 0.977903125
vt 0.015625 0.977903125
vt 0.015625 1
vt 0 1
vt 0 0.977903125
vt 0.015625 0.977903125
vt 0.015625 1
vt 0 1
vt 0 0.977903125
vt 0.015625 1
vt 0 1
vt 0 0.977903125
vt 0.015625 0.977903125
vt 0.0110484375 0.9808625
vt 0.022096875 1
vt 0 1
vt 0.0110484375 0.9808625
vt 0.022096875 1
vt 0 1
vt 0.0110484375 0.9808625
vt 0.022096875 1
vt 0 1
vt 0.0110484375 1
vt 0 0.9808640625
vt 0.022096875 0.9808640625
vt 0.0110484375 1
vt 0 0.9808640625
vt 0.022096875 0.9808640625
vt 0.0110484375 1
vt 0 0.9808640625
vt 0.022096875 0.9808640625
vt 0.0110484375 1
vt 0 0.9808640625
vt 0.022096875 0.9808640625
vt 0.015625 1
vt 0 1
vt 0 0.96875
vt 0.015625 0.96875
vt 0.015625 0.96875
vt 0.015625 1
vt 0 1
vt 0 0.96875
vt 0.015625 0.96875
vt 0.015625 1
vt 0 1
vt 0 0.96875
vt 0.015625 1
vt 0 1
vt 0 0.96875
vt 0.015625 0.96875
vt 0 0.96875
vt 0.022096875 0.96875
vt 0.022096875 1
vt 0 1
vt 0 1
vt 0 0.96875
vt 0.022096875 0.96875
vt 0.022096875 1
vt 0 1
vt 0 0.96875
vt 0.022096875 0.96875
vt 0.022096875 1
vt 0 0.96875
vt 0.022096875 0.96875
vt 0.022096875 1
vt 0 1
vt 0 0.984375
vt 0.015625 0.984375
vt 0.015625 1
vt 0 1
vt 0 1
vt 0 0.977903125
vt 0.003540268949810732 0.9826187425689153
vt 0.015625 1
vt 0.003540268949810732 0.9826187425689153
vt 0 0.977903125
vt 0.015625 0.977903125
vt 0.01212230314919893 0.9827662400839122
vt 0.015625 0.977903125
vt 0.015625 1
vt 0.01212230314919893 0.9827662400839122
vt 0.003540268949810732 0.9826187425689153
vt 0.01212230314919893 0.9827662400839122
vt 0.015625 1
vt 0 0.977903125
vt 0.015625 0.977903125
vt 0.012526526545781593 0.9820035290660746
vt 0.003042566827438454 0.98201825252765
vt 0.012526526545781593 0.9820035290660746
vt 0.015625 0.977903125
vt 0.015625 1
vt 0 1
vt 0 1
vt 0 0.977903125
vt 0.003042566827438454 0.98201825252765
vt 0.003042566827438454 0.98201825252765
vt 0.012526526545781593 0.9820035290660746
vt 0 1
vt 0.00345974514924734 0.9831387144729788
vt 0 0.977903125
vt 0.015625 0.977903125
vt 0.012309517471168702 0.9832092664938609
vt 0.015625 0.977903125
vt 0.015625 1
vt 0.012309517471168702 0.9832092664938609
vt 0.015625 1
vt 0 1
vt 0.00345974514924734 0.9831387144729788
vt 0.012309517471168702 0.9832092664938609
vt 0 1
vt 0 0.977903125
vt 0.00345974514924734 0.9831387144729788
vt 0 1
vt 0 0.977903125
vt 0.0025178056631605284 0.9825205637561779
vt 0 0.977903125
vt 0.015625 0.977903125
vt 0.012815974027960723 0.9822634872683648
vt 0.0025178056631605284 0.9825205637561779
vt 0.015625 0.977903125
vt 0.015625 1
vt 0.012815974027960723 0.9822634872683648
vt 0.015625 1
vt 0 1
vt 0.0025178056631605284 0.9825205637561779
vt 0.012815974027960723 0.9822634872683648
vt 0.0110484375 0.9808625
vt 0.022096875 1
vt 0 1
vn -0.03747349788963801 -2.106381985799036e-15 0.999297621810397
vn 0.05355938051562345 -2.1086258769247942e-15 0.9985646662879589
vn -0.016134184708539008 -2.108477454473724e-15 0.999869835570506
vn -0.03741978676020077 -0.05352163206530966 0.9978653187980264
vn -0.03741978676020077 0.0535216320653055 0.9978653187980266
vn 0.09194845079073587 -0.09194804192997467 -0.991509475487969
vn 0.09194845079073585 0.0919480419299789 -0.9915094754879685
vn -0.1280815933383362 0.12808102380685582 -0.983458365559265
vn 0.053482725664077795 -0.05348248784617601 0.9971355081177908
vn -0.016132085176832792 -0.016132013443417706 0.9997397231130256
vn 0.05348272566407779 0.05348248784617184 0.9971355081177911
vn -0.016132085176832792 0.016132013443413497 0.9997397231130256
vn -1 4.1633363423443105e-17 1.224646799147354e-16
vn 1 -4.1633363423443105e-17 -1.224646799147354e-16
vn 4.163336342344337e-17 1 1.9984014443252818e-15
vn -4.163336342344337e-17 -1 -1.9984014443252818e-15
vn -0.7071083533094831 -0.7071052090601166 -1.3264842729225861e-15
vn -0.7071083533094833 0.7071052090601164 1.4996758692287483e-15
vn 0.7071083533094829 -0.7071052090601169 -1.4996758692287493e-15
vn 0.7071083533094832 0.7071052090601166 1.326484272922586e-15
vn 0.03747349788963801 2.106381985799036e-15 -0.999297621810397
vn 0.08017847323184028 0.4960397693111379 -0.8645900529684367
vn 0.5744897531680542 1.702670231558758e-15 -0.8185117735896705
vn 0.08006275756937206 -0.4982269635329696 -0.8633422540679362
vn -0.07319343829665906 0.0008772271058470602 -0.9973173772991817
vn -0.6281665459423775 1.6674508162307395e-15 -0.7780789102390728
vn -0.10935255748282323 0.532005816973278 -0.8396498251524626
vn -0.10880510283797437 -0.5386937813716467 -0.8354462636866208
vn 0.024054496936148636 0.000025292980103193904 -0.9997106484065347
vn 0.03328085598266242 -0.45961716202850017 -0.8874933515209729
vn -0.31704344825187525 -0.08757552591660342 -0.9443590308674932
vn -1.2242238369939937e-16 0.001014407733553775 -0.9999994854883427
vn 0.4092408060415457 -0.11783504192259683 -0.904785535674375
vn -0.41659369724845413 0.08394491158661835 -0.9052087843318679
vn 0.03171302954918668 0.5327401521060471 -0.8456844648513051
vn 0.5024262313518828 0.11166110675810055 -0.8573795421440265
vn -1.225068501106956e-16 -0.0010144077247609537 -0.9999994854883518
vn -0.12808159333833624 -0.1280810238068516 -0.9834583655592656
usemtl none
f 247/956/257 248/957/257 250/958/257 249/959/257
f 248/960/258 247/961/258 256/962/258 258/963/258
f 252/964/259 249/965/259 250/966/259 254/967/259
f 264/968/260 247/969/260 249/970/260 266/971/260
f 250/972/261 248/973/261 260/974/261 262/975/261
f 247/976/262 255/977/262 263/978/262
f 248/979/263 259/980/263 257/981/263
f 250/982/264 253/983/264 261/984/264
f 247/985/265 264/986/265 256/987/265
f 249/988/266 252/989/266 266/990/266
f 248/991/267 258/992/267 260/993/267
f 250/994/268 262/995/268 254/996/268
f 258/997/269 256/998/269 255/999/269 257/1000/269
f 251/1001/270 252/1002/270 254/1003/270 253/1004/270
f 263/1005/271 264/1006/271 266/1007/271 265/1008/271
f 262/1009/272 260/1010/272 259/1011/272 261/1012/272
f 257/1013/273 259/1014/273 260/1015/273 258/1016/273
f 264/1017/274 263/1018/274 255/1019/274 256/1020/274
f 262/1021/275 261/1022/275 253/1023/275 254/1024/275
f 251/1025/276 265/1026/276 266/1027/276 252/1028/276
f 250/1029/277 248/1030/277 247/1031/277 249/1032/277
f 255/1033/278 247/1034/278 267/1035/278 257/1036/278
f 267/1037/279 247/1038/279 248/1039/279 268/1040/279
f 248/1041/280 257/1042/280 268/1043/280
f 267/1044/281 268/1045/281 257/1046/281
f 250/1047/282 249/1048/282 270/1049/282 269/1050/282
f 270/1051/283 249/1052/283 251/1053/283 253/1054/283
f 253/1055/284 250/1056/284 269/1057/284
f 269/1058/285 270/1059/285 253/1060/285
f 271/1061/286 249/1062/286 247/1063/286 272/1064/286
f 247/1065/287 263/1066/287 272/1067/287
f 263/1068/288 265/1069/288 271/1070/288 272/1071/288
f 265/1072/289 249/1073/289 271/1074/289
f 259/1075/290 248/1076/290 273/1077/290
f 248/1078/291 250/1079/291 274/1080/291 273/1081/291
f 250/1082/292 261/1083/292 274/1084/292
f 261/1085/293 259/1086/293 273/1087/293 274/1088/293
f 249/1089/294 265/1090/294 251/1091/294
o 4
v -0.4026043478260875 0.18385397727272737 -0.4296874999999999
v -0.4026043478260875 0.10052102272727284 -0.42968750000000006
v -0.31927065217391354 0.18385397727272737 -0.4265624999999999
v -0.31927065217391354 0.10052102272727284 -0.42656250000000007
v -0.2359375000000003 0.1838539772727274 -0.4374154687499999
v -0.2359375000000003 0.18385397727272737 -0.4252178124999999
v -0.2359375000000003 0.10052102272727287 -0.43741546875000015
v -0.2359375000000003 0.10052102272727284 -0.4252178125000001
v -0.4859375000000005 0.1838539772727274 -0.4374154687499999
v -0.4859375000000005 0.18385397727272737 -0.4252178124999999
v -0.4859375000000005 0.10052102272727287 -0.4374154687500001
v -0.4859375000000005 0.10052102272727284 -0.42521781250000007
v -0.4026043478260875 0.017187500000000133 -0.43741546875000026
v -0.4026043478260875 0.017187500000000105 -0.42521781250000024
v -0.31927065217391354 0.017187500000000133 -0.4374154687500003
v -0.31927065217391354 0.017187500000000105 -0.4252178125000003
v -0.4026043478260875 0.2671875000000002 -0.43741546874999976
v -0.4026043478260875 0.26718750000000013 -0.42521781249999974
v -0.31927065217391354 0.2671875000000002 -0.43741546874999976
v -0.31927065217391354 0.26718750000000013 -0.42521781249999974
v -0.42038818723766885 0.16497262869843865 -0.4421694628056582
v -0.4209444393259036 0.11920198768434885 -0.4421688985359875
v -0.30375141931807853 0.1167479720477488 -0.4390467600532968
v -0.3038069453806534 0.1673288606314039 -0.43904681637968845
v -0.33772270652920716 0.20359885587522625 -0.4374799735955546
v -0.38492169745823296 0.20386492736431627 -0.4374797036902203
v -0.3891759925719986 0.08310736411883352 -0.4374823384037828
v -0.33425218916162386 0.08407687176818714 -0.43748332188125044
vt 0.015625 0.984375
vt 0.015625 1
vt 0 1
vt 0 0.984375
vt 0.015625 1
vt 0 1
vt 0 0.977903125
vt 0.015625 0.977903125
vt 0.015625 0.977903125
vt 0.015625 1
vt 0 1
vt 0 0.977903125
vt 0.015625 0.977903125
vt 0.015625 1
vt 0 1
vt 0 0.977903125
vt 0.015625 1
vt 0 1
vt 0 0.977903125
vt 0.015625 0.977903125
vt 0.0110484375 0.9808625
vt 0.022096875 1
vt 0 1
vt 0.0110484375 0.9808625
vt 0.022096875 1
vt 0 1
vt 0.0110484375 0.9808625
vt 0.022096875 1
vt 0 1
vt 0.0110484375 1
vt 0 0.9808640625
vt 0.022096875 0.9808640625
vt 0.0110484375 1
vt 0 0.9808640625
vt 0.022096875 0.9808640625
vt 0.0110484375 1
vt 0 0.9808640625
vt 0.022096875 0.9808640625
vt 0.0110484375 1
vt 0 0.9808640625
vt 0.022096875 0.9808640625
vt 0.015625 1
vt 0 1
vt 0 0.96875
vt 0.015625 0.96875
vt 0.015625 0.96875
vt 0.015625 1
vt 0 1
vt 0 0.96875
vt 0.015625 0.96875
vt 0.015625 1
vt 0 1
vt 0 0.96875
vt 0.015625 1
vt 0 1
vt 0 0.96875
vt 0.015625 0.96875
vt 0 0.96875
vt 0.022096875 0.96875
vt 0.022096875 1
vt 0 1
vt 0 1
vt 0 0.96875
vt 0.022096875 0.96875
vt 0.022096875 1
vt 0 1
vt 0 0.96875
vt 0.022096875 0.96875
vt 0.022096875 1
vt 0 0.96875
vt 0.022096875 0.96875
vt 0.022096875 1
vt 0 1
vt 0 0.984375
vt 0.015625 0.984375
vt 0.015625 1
vt 0 1
vt 0 1
vt 0 0.977903125
vt 0.003540268949810732 0.9826187425689153
vt 0.015625 1
vt 0.003540268949810732 0.9826187425689153
vt 0 0.977903125
vt 0.015625 0.977903125
vt 0.01212230314919893 0.9827662400839122
vt 0.015625 0.977903125
vt 0.015625 1
vt 0.01212230314919893 0.9827662400839122
vt 0.003540268949810732 0.9826187425689153
vt 0.01212230314919893 0.9827662400839122
vt 0.015625 1
vt 0 0.977903125
vt 0.015625 0.977903125
vt 0.012526526545781593 0.9820035290660746
vt 0.003042566827438454 0.98201825252765
vt 0.012526526545781593 0.9820035290660746
vt 0.015625 0.977903125
vt 0.015625 1
vt 0 1
vt 0 1
vt 0 0.977903125
vt 0.003042566827438454 0.98201825252765
vt 0.003042566827438454 0.98201825252765
vt 0.012526526545781593 0.9820035290660746
vt 0 1
vt 0.00345974514924734 0.9831387144729788
vt 0 0.977903125
vt 0.015625 0.977903125
vt 0.012309517471168702 0.9832092664938609
vt 0.015625 0.977903125
vt 0.015625 1
vt 0.012309517471168702 0.9832092664938609
vt 0.015625 1
vt 0 1
vt 0.00345974514924734 0.9831387144729788
vt 0.012309517471168702 0.9832092664938609
vt 0 1
vt 0 0.977903125
vt 0.00345974514924734 0.9831387144729788
vt 0 1
vt 0 0.977903125
vt 0.0025178056631605284 0.9825205637561779
vt 0 0.977903125
vt 0.015625 0.977903125
vt 0.012815974027960723 0.9822634872683648
vt 0.0025178056631605284 0.9825205637561779
vt 0.015625 0.977903125
vt 0.015625 1
vt 0.012815974027960723 0.9822634872683648
vt 0.015625 1
vt 0 1
vt 0.0025178056631605284 0.9825205637561779
vt 0.012815974027960723 0.9822634872683648
vt 0.0110484375 0.9808625
vt 0.022096875 1
vt 0 1
vn -0.0374734978896379 -2.106381985799036e-15 0.999297621810397
vn 0.053559380515623416 -2.1086258769247942e-15 0.9985646662879589
vn -0.01613418470853897 -2.108477454473724e-15 0.999869835570506
vn -0.037419786760200656 -0.05352163206530967 0.9978653187980264
vn -0.037419786760200656 0.0535216320653055 0.9978653187980266
vn 0.0919484507907358 -0.09194804192997467 -0.991509475487969
vn 0.09194845079073581 0.09194804192997891 -0.9915094754879687
vn -0.1280815933383359 0.1280810238068558 -0.9834583655592649
vn 0.05348272566407776 -0.05348248784617601 0.9971355081177908
vn -0.016132085176832747 -0.0161320134434177 0.9997397231130254
vn 0.05348272566407775 0.05348248784617184 0.9971355081177911
vn -0.016132085176832754 0.016132013443413494 0.9997397231130256
vn -1 4.1633363423443105e-17 1.224646799147354e-16
vn 1 -4.1633363423443105e-17 -1.224646799147354e-16
vn 4.163336342344337e-17 1 1.9984014443252818e-15
vn -4.163336342344337e-17 -1 -1.9984014443252818e-15
vn -0.7071083533094829 -0.7071052090601169 -1.3264842729225865e-15
vn -0.7071083533094832 0.7071052090601166 1.499675869228749e-15
vn 0.7071083533094821 -0.7071052090601178 -1.4996758692287511e-15
vn 0.7071083533094823 0.7071052090601175 1.3264842729225877e-15
vn 0.0374734978896379 2.106381985799036e-15 -0.999297621810397
vn 0.08017847323184026 0.49603976931113786 -0.8645900529684368
vn 0.5744897531680531 1.7026702315587602e-15 -0.8185117735896714
vn 0.08006275756937202 -0.49822696353296964 -0.8633422540679364
vn -0.07319343829665906 0.0008772271058470602 -0.9973173772991817
vn -0.6281665459423754 1.6674508162307429e-15 -0.7780789102390744
vn -0.109352557482823 0.5320058169732778 -0.8396498251524627
vn -0.10880510283797414 -0.5386937813716465 -0.8354462636866208
vn 0.024054496936148598 0.000025292980103193863 -0.9997106484065347
vn 0.033280855982662325 -0.4596171620285003 -0.8874933515209728
vn -0.31704344825187347 -0.08757552591660347 -0.9443590308674937
vn -1.2242238369939937e-16 0.001014407733553775 -0.9999994854883427
vn 0.4092408060415452 -0.11783504192259688 -0.9047855356743754
vn -0.41659369724845136 0.08394491158661846 -0.9052087843318694
vn 0.03171302954918659 0.532740152106047 -0.8456844648513052
vn 0.5024262313518792 0.11166110675810081 -0.8573795421440286
vn -1.225068501106956e-16 -0.0010144077247609537 -0.9999994854883518
vn -0.12808159333833594 -0.1280810238068516 -0.9834583655592656
usemtl none
f 275/1092/295 276/1093/295 278/1094/295 277/1095/295
f 276/1096/296 275/1097/296 284/1098/296 286/1099/296
f 280/1100/297 277/1101/297 278/1102/297 282/1103/297
f 292/1104/298 275/1105/298 277/1106/298 294/1107/298
f 278/1108/299 276/1109/299 288/1110/299 290/1111/299
f 275/1112/300 283/1113/300 291/1114/300
f 276/1115/301 287/1116/301 285/1117/301
f 278/1118/302 281/1119/302 289/1120/302
f 275/1121/303 292/1122/303 284/1123/303
f 277/1124/304 280/1125/304 294/1126/304
f 276/1127/305 286/1128/305 288/1129/305
f 278/1130/306 290/1131/306 282/1132/306
f 286/1133/307 284/1134/307 283/1135/307 285/1136/307
f 279/1137/308 280/1138/308 282/1139/308 281/1140/308
f 291/1141/309 292/1142/309 294/1143/309 293/1144/309
f 290/1145/310 288/1146/310 287/1147/310 289/1148/310
f 285/1149/311 287/1150/311 288/1151/311 286/1152/311
f 292/1153/312 291/1154/312 283/1155/312 284/1156/312
f 290/1157/313 289/1158/313 281/1159/313 282/1160/313
f 279/1161/314 293/1162/314 294/1163/314 280/1164/314
f 278/1165/315 276/1166/315 275/1167/315 277/1168/315
f 283/1169/316 275/1170/316 295/1171/316 285/1172/316
f 295/1173/317 275/1174/317 276/1175/317 296/1176/317
f 276/1177/318 285/1178/318 296/1179/318
f 295/1180/319 296/1181/319 285/1182/319
f 278/1183/320 277/1184/320 298/1185/320 297/1186/320
f 298/1187/321 277/1188/321 279/1189/321 281/1190/321
f 281/1191/322 278/1192/322 297/1193/322
f 297/1194/323 298/1195/323 281/1196/323
f 299/1197/324 277/1198/324 275/1199/324 300/1200/324
f 275/1201/325 291/1202/325 300/1203/325
f 291/1204/326 293/1205/326 299/1206/326 300/1207/326
f 293/1208/327 277/1209/327 299/1210/327
f 287/1211/328 276/1212/328 301/1213/328
f 276/1214/329 278/1215/329 302/1216/329 301/1217/329
f 278/1218/330 289/1219/330 302/1220/330
f 289/1221/331 287/1222/331 301/1223/331 302/1224/331
f 277/1225/332 293/1226/332 279/1227/332
o 4
v -0.4088543750000006 0.19010394886363619 -0.2874999999999997
v -0.4088543750000006 0.09427105113636344 -0.2874999999999999
v -0.3130206250000004 0.19010394886363619 -0.28749999999999976
v -0.3130206250000004 0.09427105113636344 -0.2874999999999999
v -0.4088543750000006 0.19010394886363646 -0.42656249999999973
v -0.4088543750000006 0.09427105113636372 -0.42656249999999996
v -0.3130206250000004 0.19010394886363646 -0.42656249999999973
v -0.3130206250000004 0.09427105113636372 -0.42656249999999996
v -0.21718750000000037 0.19010394886363646 -0.4240701562499998
v -0.21718750000000037 0.19010394886363619 -0.2898959374999997
v -0.21718750000000037 0.09427105113636372 -0.42407015624999994
v -0.21718750000000037 0.09427105113636344 -0.2898959374999999
v -0.5046875000000005 0.19010394886363646 -0.4240701562499997
v -0.5046875000000005 0.19010394886363619 -0.28989593749999965
v -0.5046875000000005 0.09427105113636372 -0.42407015624999994
v -0.5046875000000005 0.09427105113636347 -0.28989593749999987
v -0.4088543750000006 -0.0015624999999998834 -0.42407015625000016
v -0.4088543750000006 -0.001562500000000161 -0.2898959375000001
v -0.3130206250000004 -0.0015624999999998834 -0.42407015625000016
v -0.3130206250000004 -0.001562500000000161 -0.2898959375000001
v -0.4088543750000006 0.2859375000000002 -0.42407015624999955
v -0.4088543750000006 0.28593749999999984 -0.2898959374999995
v -0.3130206250000004 0.2859375000000002 -0.42407015624999955
v -0.3130206250000004 0.28593749999999984 -0.28989593749999953
vt 0.015625 0.984375
vt 0.015625 1
vt 0 1
vt 0 0.984375
vt 0 0.984375
vt 0.015625 0.984375
vt 0.015625 1
vt 0 1
vt 0.015625 1
vt 0 1
vt 0 0.977903125
vt 0.015625 0.977903125
vt 0.015625 0.977903125
vt 0.015625 1
vt 0 1
vt 0 0.977903125
vt 0.015625 0.977903125
vt 0.015625 1
vt 0 1
vt 0 0.977903125
vt 0.015625 1
vt 0 1
vt 0 0.977903125
vt 0.015625 0.977903125
vt 0 1
vt 0 0.977903125
vt 0.015625 0.977903125
vt 0.015625 1
vt 0 0.977903125
vt 0.015625 0.977903125
vt 0.015625 1
vt 0 1
vt 0 0.977903125
vt 0.015625 0.977903125
vt 0.015625 1
vt 0 1
vt 0 1
vt 0 0.977903125
vt 0.015625 0.977903125
vt 0.015625 1
vt 0.0110484375 0.9808625
vt 0.022096875 1
vt 0 1
vt 0.0110484375 0.9808625
vt 0.022096875 1
vt 0 1
vt 0.0110484375 0.9808625
vt 0.022096875 1
vt 0 1
vt 0.0110484375 0.9808625
vt 0.022096875 1
vt 0 1
vt 0.0110484375 1
vt 0 0.9808640625
vt 0.022096875 0.9808640625
vt 0.0110484375 1
vt 0 0.9808640625
vt 0.022096875 0.9808640625
vt 0.0110484375 1
vt 0 0.9808640625
vt 0.022096875 0.9808640625
vt 0.0110484375 1
vt 0 0.9808640625
vt 0.022096875 0.9808640625
vt 0.015625 1
vt 0 1
vt 0 0.96875
vt 0.015625 0.96875
vt 0.015625 0.96875
vt 0.015625 1
vt 0 1
vt 0 0.96875
vt 0.015625 0.96875
vt 0.015625 1
vt 0 1
vt 0 0.96875
vt 0.015625 1
vt 0 1
vt 0 0.96875
vt 0.015625 0.96875
vt 0 0.96875
vt 0.022096875 0.96875
vt 0.022096875 1
vt 0 1
vt 0 1
vt 0 0.96875
vt 0.022096875 0.96875
vt 0.022096875 1
vt 0 1
vt 0 0.96875
vt 0.022096875 0.96875
vt 0.022096875 1
vt 0 0.96875
vt 0.022096875 0.96875
vt 0.022096875 1
vt 0 1
vn 1.224646799147353e-16 -2.1094237467877974e-15 1
vn -1.224646799147353e-16 2.1094237467877974e-15 -1
vn -0.024993331397843016 -2.1077242441219665e-15 0.999687617901531
vn 0.024993331397843217 -2.1098053570204648e-15 0.999687617901531
vn 1.2346697630626313e-16 0.02499322033116108 0.9996876206783187
vn 1.213858726559241e-16 -0.024993220331165317 0.9996876206783187
vn -0.02599833099028333 2.1097931305535383e-15 -0.9996619862662178
vn 0.025998330990283043 2.1076283346284956e-15 -0.9996619862662178
vn -1.2134089238621653e-16 0.025998215463459665 -0.9996619892707312
vn -1.2350567869171878e-16 -0.025998215463455474 -0.9996619892707315
vn -0.025989549212188934 0.02598943364627619 -0.999324318062206
vn 0.025989549212188646 0.025989433646276188 -0.999324318062206
vn -0.02598954921218894 -0.025989433646272004 -0.9993243180622062
vn 0.02598954921218865 -0.025989433646272004 -0.9993243180622062
vn -0.024985528872672916 0.024985417771263375 0.999375531142197
vn 0.02498552887267312 0.024985417771263375 0.9993755311421971
vn -0.024985528872672913 -0.024985417771267608 0.9993755311421969
vn 0.02498552887267311 -0.024985417771267608 0.999375531142197
vn -1 4.1633363423443105e-17 1.224646799147354e-16
vn 1 -4.1633363423443105e-17 -1.224646799147354e-16
vn 4.163336342344337e-17 1 1.9984014443252818e-15
vn -4.163336342344337e-17 -1 -1.9984014443252818e-15
vn -0.7071083533094832 -0.7071052090601165 -1.3264842729225857e-15
vn -0.7071083533094835 0.7071052090601163 1.4996758692287483e-15
vn 0.7071083533094826 -0.7071052090601172 -1.49967586922875e-15
vn 0.7071083533094829 0.7071052090601169 1.3264842729225865e-15
usemtl none
f 303/1228/333 304/1229/333 306/1230/333 305/1231/333
f 310/1232/334 308/1233/334 307/1234/334 309/1235/334
f 304/1236/335 303/1237/335 316/1238/335 318/1239/335
f 312/1240/336 305/1241/336 306/1242/336 314/1243/336
f 324/1244/337 303/1245/337 305/1246/337 326/1247/337
f 306/1248/338 304/1249/338 320/1250/338 322/1251/338
f 315/1252/339 307/1253/339 308/1254/339 317/1255/339
f 310/1256/340 309/1257/340 311/1258/340 313/1259/340
f 309/1260/341 307/1261/341 323/1262/341 325/1263/341
f 319/1264/342 308/1265/342 310/1266/342 321/1267/342
f 307/1268/343 315/1269/343 323/1270/343
f 309/1271/344 325/1272/344 311/1273/344
f 308/1274/345 319/1275/345 317/1276/345
f 310/1277/346 313/1278/346 321/1279/346
f 303/1280/347 324/1281/347 316/1282/347
f 305/1283/348 312/1284/348 326/1285/348
f 304/1286/349 318/1287/349 320/1288/349
f 306/1289/350 322/1290/350 314/1291/350
f 318/1292/351 316/1293/351 315/1294/351 317/1295/351
f 311/1296/352 312/1297/352 314/1298/352 313/1299/352
f 323/1300/353 324/1301/353 326/1302/353 325/1303/353
f 322/1304/354 320/1305/354 319/1306/354 321/1307/354
f 317/1308/355 319/1309/355 320/1310/355 318/1311/355
f 324/1312/356 323/1313/356 315/1314/356 316/1315/356
f 322/1316/357 321/1317/357 313/1318/357 314/1319/357
f 311/1320/358 325/1321/358 326/1322/358 312/1323/358
o cube
v 1.0755408706504417 0.042140540101352965 -0.08876733189648345
v 1.0843712181568759 0.041986405812289435 -0.25728606588631775
v 1.0749954829492767 0.010895299627715736 -0.08876733189648345
v 1.0838258304557107 0.010741165338652204 -0.25728606588631775
v 0.3355131391772808 0.05505777220289858 -0.2965380330685256
v 0.32668279167084674 0.05521190649196211 -0.12801929907869133
v 0.3349677514761157 0.02381253172926135 -0.2965380330685256
v 0.3261374039696816 0.02396666601832488 -0.12801929907869133
vt 0 0.9765625
vt 0.1875 0.9765625
vt 0.1875 0.96875
vt 0 0.96875
vt 0 0.9765625
vt 0.04218749999999998 0.9765625
vt 0.04218749999999998 0.96875
vt 0 0.96875
vt 0.028124999999999997 0.9765625
vt 0.215625 0.9765625
vt 0.215625 0.96875
vt 0.028124999999999997 0.96875
vt 0 0.9765625
vt 0.04218749999999998 0.9765625
vt 0.04218749999999998 0.96875
vt 0 0.96875
vt 0.028124999999999997 1
vt 0.215625 1
vt 0.215625 0.9578125000000001
vt 0.028124999999999997 0.9578125000000001
vt 0.028124999999999997 1
vt 0.215625 1
vt 0.215625 0.9578125000000001
vt 0.028124999999999997 0.9578125000000001
vn 0.05232798522331313 -0.0009133883796357432 -0.9986295347545739
vn 0.9984774386394601 -0.017428488520812198 0.05233595624294385
vn -0.05232798522331313 0.0009133883796357432 0.9986295347545739
vn -0.9984774386394601 0.017428488520812198 -0.05233595624294385
vn 0.01745240643728354 0.9998476951563913 -6.505213034913027e-19
vn -0.01745240643728354 -0.9998476951563913 6.505213034913027e-19
usemtl none
f 330/1327/359 333/1326/359 331/1325/359 328/1324/359
f 329/1331/360 330/1330/360 328/1329/360 327/1328/360
f 334/1335/361 329/1334/361 327/1333/361 332/1332/361
f 333/1339/362 334/1338/362 332/1337/362 331/1336/362
f 332/1343/363 327/1342/363 328/1341/363 331/1340/363
f 333/1347/364 330/1346/364 329/1345/364 334/1344/364
o cube
v 1.0843712181568756 0.041986405812289455 0.25103606588631766
v 1.0755408706504417 0.042140540101352986 0.08251733189648339
v 1.0838258304557105 0.010741165338652228 0.25103606588631766
v 1.0749954829492765 0.010895299627715758 0.08251733189648339
v 0.32668279167084663 0.0552119064919621 0.12176929907869125
v 0.3355131391772807 0.05505777220289857 0.2902880330685255
v 0.3261374039696815 0.02396666601832487 0.12176929907869125
v 0.33496775147611557 0.02381253172926134 0.2902880330685255
vt 0 0.9765625
vt 0.18749999999999994 0.9765625
vt 0.18749999999999994 0.96875
vt 0 0.96875
vt 0 0.9765625
vt 0.04218749999999998 0.9765625
vt 0.04218749999999998 0.96875
vt 0 0.96875
vt 0.028124999999999997 0.9765625
vt 0.21562499999999996 0.9765625
vt 0.21562499999999996 0.96875
vt 0.028124999999999997 0.96875
vt 0 0.9765625
vt 0.04218749999999998 0.9765625
vt 0.04218749999999998 0.96875
vt 0 0.96875
vt 0.028124999999999997 1
vt 0.21562499999999996 1
vt 0.21562499999999996 0.9578125000000001
vt 0.028124999999999997 0.9578125000000001
vt 0.028124999999999997 1
vt 0.21562499999999996 1
vt 0.21562499999999996 0.9578125000000001
vt 0.028124999999999997 0.9578125000000001
vn -0.05232798522331313 0.0009133883796357424 -0.9986295347545739
vn 0.9984774386394601 -0.017428488520812156 -0.05233595624294385
vn 0.05232798522331313 -0.0009133883796357424 0.9986295347545739
vn -0.9984774386394601 0.017428488520812156 0.05233595624294385
vn 0.017452406437283498 0.9998476951563913 2.0599841277224584e-18
vn -0.017452406437283498 -0.9998476951563913 -2.0599841277224584e-18
usemtl none
f 338/1351/365 341/1350/365 339/1349/365 336/1348/365
f 337/1355/366 338/1354/366 336/1353/366 335/1352/366
f 342/1359/367 337/1358/367 335/1357/367 340/1356/367
f 341/1363/368 342/1362/368 340/1361/368 339/1360/368
f 340/1367/369 335/1366/369 336/1365/369 339/1364/369
f 341/1371/370 338/1370/370 337/1369/370 342/1368/370
o cube
v 0.20625 1.043750000000001 0.33125000000000004
v 0.20625 1.043750000000001 -0.33125000000000004
v 0.20625 1.012500000000001 0.33125000000000004
v 0.20625 1.012500000000001 -0.33125000000000004
v -0.5062499999999999 1.043750000000001 -0.33125000000000004
v -0.5062499999999999 1.043750000000001 0.33125000000000004
v -0.5062499999999999 1.012500000000001 -0.33125000000000004
v -0.5062499999999999 1.012500000000001 0.33125000000000004
vt 0.021875000000000006 0.9546875000000002
vt 0.19999999999999998 0.9546875000000002
vt 0.19999999999999998 0.9468750000000002
vt 0.021875000000000006 0.9468750000000002
vt 0.015625 0.9546875000000002
vt 0.18125000000000002 0.9546875000000002
vt 0.18125000000000002 0.9468750000000002
vt 0.015625 0.9468750000000002
vt 0.0015624999999999944 0.9546875000000002
vt 0.17968749999999997 0.9546875000000002
vt 0.17968749999999997 0.9468750000000002
vt 0.0015624999999999944 0.9468750000000002
vt 0.015625 0.9546875000000002
vt 0.18125000000000002 0.9546875000000002
vt 0.18125000000000002 0.9468750000000002
vt 0.015625 0.9468750000000002
vt 0.0015624999999999944 0.984375
vt 0.17968749999999997 0.984375
vt 0.17968749999999997 0.81875
vt 0.0015624999999999944 0.81875
vt 0.0015624999999999944 0.984375
vt 0.17968749999999997 0.984375
vt 0.17968749999999997 0.81875
vt 0.0015624999999999944 0.81875
vn 0 0 -1
vn 1 0 0
vn 0 0 1
vn -1 0 0
vn 0 1 0
vn 0 -1 0
usemtl none
f 346/1375/371 349/1374/371 347/1373/371 344/1372/371
f 345/1379/372 346/1378/372 344/1377/372 343/1376/372
f 350/1383/373 345/1382/373 343/1381/373 348/1380/373
f 349/1387/374 350/1386/374 348/1385/374 347/1384/374
f 348/1391/375 343/1390/375 344/1389/375 347/1388/375
f 349/1395/376 346/1394/376 345/1393/376 350/1392/376
o cube
v 0.49662409080256026 0.34375 -0.1945194225366491
v 0.4792274531825521 0.34375 -0.3183029311293452
v 0.49662409080256026 0.17500000000000004 -0.1945194225366491
v 0.4792274531825521 0.17500000000000004 -0.3183029311293452
v 0.4606599268936479 0.34375 -0.315693435486344
v 0.478056564513656 0.34375 -0.19190992689364791
v 0.4606599268936479 0.17500000000000004 -0.315693435486344
v 0.478056564513656 0.17500000000000004 -0.19190992689364791
vt 0.026562500000000044 1
vt 0.03125 1
vt 0.03125 0.9578125
vt 0.026562500000000044 0.9578125
vt 0 1
vt 0.03124999999999996 1
vt 0.03124999999999996 0.9578125
vt 0 0.9578125
vt 0 1
vt 0.004687499999999956 1
vt 0.004687499999999956 0.9578125
vt 0 0.9578125
vt 0 1
vt 0.03124999999999996 1
vt 0.03124999999999996 0.9578125
vt 0 0.9578125
vt 0 1
vt 0.004687499999999956 1
vt 0.004687499999999956 0.96875
vt 0 0.96875
vt 0 1
vt 0.004687499999999956 1
vt 0.004687499999999956 0.96875
vt 0 0.96875
vn -0.13917310096006544 0 -0.9902680687415704
vn 0.9902680687415704 0 -0.13917310096006544
vn 0.13917310096006544 0 0.9902680687415704
vn -0.9902680687415704 0 0.13917310096006544
vn 0 1 0
vn 0 -1 0
usemtl none
f 354/1399/377 357/1398/377 355/1397/377 352/1396/377
f 353/1403/378 354/1402/378 352/1401/378 351/1400/378
f 358/1407/379 353/1406/379 351/1405/379 356/1404/379
f 357/1411/380 358/1410/380 356/1409/380 355/1408/380
f 356/1415/381 351/1414/381 352/1413/381 355/1412/381
f 357/1419/382 354/1418/382 353/1417/382 358/1416/382
o cube
v 0.47922745318255217 0.34375 0.3183029311293451
v 0.4966240908025603 0.34375 0.19451942253664892
v 0.47922745318255217 0.17500000000000004 0.3183029311293451
v 0.4966240908025603 0.17500000000000004 0.19451942253664892
v 0.4780565645136561 0.34375 0.19190992689364772
v 0.4606599268936479 0.34375 0.3156934354863439
v 0.4780565645136561 0.17500000000000004 0.19190992689364772
v 0.4606599268936479 0.17500000000000004 0.3156934354863439
vt 0.026562500000000044 1
vt 0.03125 1
vt 0.03125 0.9578125
vt 0.026562500000000044 0.9578125
vt 0 1
vt 0.031249999999999965 1
vt 0.031249999999999965 0.9578125
vt 0 0.9578125
vt 0 1
vt 0.004687499999999956 1
vt 0.004687499999999956 0.9578125
vt 0 0.9578125
vt 0 1
vt 0.031249999999999965 1
vt 0.031249999999999965 0.9578125
vt 0 0.9578125
vt 0 1
vt 0.004687499999999956 1
vt 0.004687499999999956 0.96875
vt 0 0.96875
vt 0 1
vt 0.004687499999999956 1
vt 0.004687499999999956 0.96875
vt 0 0.96875
vn 0.13917310096006544 0 -0.9902680687415704
vn 0.9902680687415704 0 0.13917310096006544
vn -0.13917310096006544 0 0.9902680687415704
vn -0.9902680687415704 0 -0.13917310096006544
vn 0 1 0
vn 0 -1 0
usemtl none
f 362/1423/383 365/1422/383 363/1421/383 360/1420/383
f 361/1427/384 362/1426/384 360/1425/384 359/1424/384
f 366/1431/385 361/1430/385 359/1429/385 364/1428/385
f 365/1435/386 366/1434/386 364/1433/386 363/1432/386
f 364/1439/387 359/1438/387 360/1437/387 363/1436/387
f 365/1443/388 362/1442/388 361/1441/388 366/1440/388
o cube
v -0.5124999999999997 0.3812499999999998 -0.19999999999999996
v -0.5124999999999997 0.3812499999999998 -0.33125000000000004
v -0.5124999999999997 0.20625 -0.19999999999999996
v -0.5124999999999997 0.20625 -0.33125000000000004
v -0.5249999999999999 0.3812499999999998 -0.33125000000000004
v -0.5249999999999999 0.3812499999999998 -0.19999999999999996
v -0.5249999999999999 0.20625 -0.33125000000000004
v -0.5249999999999999 0.20625 -0.19999999999999996
vt 0.04687499999999996 0.9875
vt 0.049999999999999975 0.9875
vt 0.049999999999999975 0.9437500000000001
vt 0.04687499999999996 0.9437500000000001
vt 0.1484375 0.9875
vt 0.18125000000000002 0.9875
vt 0.18125000000000002 0.9437500000000001
vt 0.1484375 0.9437500000000001
vt 0.009374999999999994 0.9875
vt 0.012500000000000011 0.9875
vt 0.012500000000000011 0.9437500000000001
vt 0.009374999999999994 0.9437500000000001
vt 0.015625 0.9875
vt 0.048437500000000015 0.9875
vt 0.048437500000000015 0.9437500000000001
vt 0.015625 0.9437500000000001
vt 0.009374999999999994 0.984375
vt 0.012500000000000011 0.984375
vt 0.012500000000000011 0.9515625
vt 0.009374999999999994 0.9515625
vt 0.009374999999999994 0.8515625
vt 0.012500000000000011 0.8515625
vt 0.012500000000000011 0.81875
vt 0.009374999999999994 0.81875
vn 0 0 -1
vn 1 0 0
vn 0 0 1
vn -1 0 0
vn 0 1 0
vn 0 -1 0
usemtl none
f 370/1447/389 373/1446/389 371/1445/389 368/1444/389
f 369/1451/390 370/1450/390 368/1449/390 367/1448/390
f 374/1455/391 369/1454/391 367/1453/391 372/1452/391
f 373/1459/392 374/1458/392 372/1457/392 371/1456/392
f 372/1463/393 367/1462/393 368/1461/393 371/1460/393
f 373/1467/394 370/1466/394 369/1465/394 374/1464/394
o cube
v -0.5124999999999997 0.3812499999999998 0.3375000000000001
v -0.5124999999999997 0.3812499999999998 0.20624999999999988
v -0.5124999999999997 0.20625 0.3375000000000001
v -0.5124999999999997 0.20625 0.20624999999999988
v -0.5249999999999999 0.3812499999999998 0.20624999999999988
v -0.5249999999999999 0.3812499999999998 0.3375000000000001
v -0.5249999999999999 0.20625 0.20624999999999988
v -0.5249999999999999 0.20625 0.3375000000000001
vt 0.04687499999999996 0.9875
vt 0.049999999999999975 0.9875
vt 0.049999999999999975 0.9437500000000001
vt 0.04687499999999996 0.9437500000000001
vt 0.1484375 0.9875
vt 0.18125000000000005 0.9875
vt 0.18125000000000005 0.9437500000000001
vt 0.1484375 0.9437500000000001
vt 0.009374999999999994 0.9875
vt 0.012500000000000011 0.9875
vt 0.012500000000000011 0.9437500000000001
vt 0.009374999999999994 0.9437500000000001
vt 0.015625 0.9875
vt 0.04843750000000006 0.9875
vt 0.04843750000000006 0.9437500000000001
vt 0.015625 0.9437500000000001
vt 0.009374999999999994 0.984375
vt 0.012500000000000011 0.984375
vt 0.012500000000000011 0.9515625
vt 0.009374999999999994 0.9515625
vt 0.009374999999999994 0.8515625
vt 0.012500000000000011 0.8515625
vt 0.012500000000000011 0.81875
vt 0.009374999999999994 0.81875
vn 0 0 -1
vn 1 0 0
vn 0 0 1
vn -1 0 0
vn 0 1 0
vn 0 -1 0
usemtl none
f 378/1471/395 381/1470/395 379/1469/395 376/1468/395
f 377/1475/396 378/1474/396 376/1473/396 375/1472/396
f 382/1479/397 377/1478/397 375/1477/397 380/1476/397
f 381/1483/398 382/1482/398 380/1481/398 379/1480/398
f 380/1487/399 375/1486/399 376/1485/399 379/1484/399
f 381/1491/400 378/1490/400 377/1489/400 382/1488/400
o cube
v 0.004946615326027526 0.24790252936927487 0.15625
v 0.004946615326027526 0.24790252936927487 -0.16875000000000007
v -0.001157076126583445 0.1606156749715405 0.15625
v -0.001157076126583445 0.1606156749715405 -0.16875000000000007
v -0.17586186878356558 0.2605458902353976 -0.16875000000000007
v -0.17586186878356558 0.2605458902353976 0.15625
v -0.18196556023617655 0.17325903583766322 -0.16875000000000007
v -0.18196556023617655 0.17325903583766322 0.15625
vt 0.010937500000000003 0.959375
vt 0.05624999999999998 0.959375
vt 0.05624999999999998 0.9375000000000001
vt 0.010937500000000003 0.9375000000000001
vt 0.05937500000000001 0.959375
vt 0.14062500000000003 0.959375
vt 0.14062500000000003 0.9375000000000001
vt 0.05937500000000001 0.9375000000000001
vt 0.08906249999999999 0.959375
vt 0.13437499999999997 0.959375
vt 0.13437499999999997 0.9375000000000001
vt 0.08906249999999999 0.9375000000000001
vt 0.056249999999999994 0.959375
vt 0.1375 0.959375
vt 0.1375 0.9375000000000001
vt 0.056249999999999994 0.9375000000000001
vt 0.08906249999999999 0.94375
vt 0.13437499999999997 0.94375
vt 0.13437499999999997 0.8625
vt 0.08906249999999999 0.8625
vt 0.08906249999999999 0.940625
vt 0.13437499999999997 0.940625
vt 0.13437499999999997 0.859375
vt 0.08906249999999999 0.859375
vn 0 0 -1
vn 0.9975640502598242 -0.0697564737441253 0
vn 0 0 1
vn -0.9975640502598242 0.0697564737441253 0
vn 0.0697564737441253 0.9975640502598242 0
vn -0.0697564737441253 -0.9975640502598242 0
usemtl none
f 386/1495/401 389/1494/401 387/1493/401 384/1492/401
f 385/1499/402 386/1498/402 384/1497/402 383/1496/402
f 390/1503/403 385/1502/403 383/1501/403 388/1500/403
f 389/1507/404 390/1506/404 388/1505/404 387/1504/404
f 388/1511/405 383/1510/405 384/1509/405 387/1508/405
f 389/1515/406 386/1514/406 385/1513/406 390/1512/406
o cube
v -0.17500000000000016 0.4687499999999999 0.1562500000000001
v -0.17500000000000016 0.4687499999999999 -0.16875000000000007
v -0.17500000000000016 0.18125000000000002 0.1562500000000001
v -0.17500000000000016 0.18125000000000002 -0.16875000000000007
v -0.26250000000000023 0.4687499999999999 -0.16875000000000007
v -0.26250000000000023 0.4687499999999999 0.1562500000000001
v -0.26250000000000023 0.18125000000000002 -0.16875000000000007
v -0.26250000000000023 0.18125000000000002 0.1562500000000001
vt 0.018750000000000003 0.990625
vt 0.04062500000000004 0.990625
vt 0.04062500000000004 0.9187500000000001
vt 0.018750000000000003 0.9187500000000001
vt 0.05937499999999998 0.990625
vt 0.14062500000000003 0.990625
vt 0.14062500000000003 0.9187500000000001
vt 0.05937499999999998 0.9187500000000001
vt 0.006249999999999999 0.990625
vt 0.02812500000000004 0.990625
vt 0.02812500000000004 0.9187500000000001
vt 0.006249999999999999 0.9187500000000001
vt 0.056249999999999994 0.990625
vt 0.13750000000000004 0.990625
vt 0.13750000000000004 0.9187500000000001
vt 0.056249999999999994 0.9187500000000001
vt 0.006249999999999999 0.94375
vt 0.02812500000000004 0.94375
vt 0.02812500000000004 0.8624999999999999
vt 0.006249999999999999 0.8624999999999999
vt 0.006249999999999999 0.940625
vt 0.02812500000000004 0.940625
vt 0.02812500000000004 0.859375
vt 0.006249999999999999 0.859375
vn 0 0 -1
vn 1 0 0
vn 0 0 1
vn -1 0 0
vn 0 1 0
vn 0 -1 0
usemtl none
f 394/1519/407 397/1518/407 395/1517/407 392/1516/407
f 393/1523/408 394/1522/408 392/1521/408 391/1520/408
f 398/1527/409 393/1526/409 391/1525/409 396/1524/409
f 397/1531/410 398/1530/410 396/1529/410 395/1528/410
f 396/1535/411 391/1534/411 392/1533/411 395/1532/411
f 397/1539/412 394/1538/412 393/1537/412 398/1536/412
o cube
v -0.5124999999999997 0.3812499999999998 -0.19999999999999996
v -0.5124999999999997 0.3812499999999998 -0.33125000000000004
v -0.5124999999999997 0.20625 -0.19999999999999996
v -0.5124999999999997 0.20625 -0.33125000000000004
v -0.5249999999999999 0.3812499999999998 -0.33125000000000004
v -0.5249999999999999 0.3812499999999998 -0.19999999999999996
v -0.5249999999999999 0.20625 -0.33125000000000004
v -0.5249999999999999 0.20625 -0.19999999999999996
vt 0.04687499999999996 0.9875
vt 0.049999999999999975 0.9875
vt 0.049999999999999975 0.9437500000000001
vt 0.04687499999999996 0.9437500000000001
vt 0.1484375 0.9875
vt 0.18125000000000002 0.9875
vt 0.18125000000000002 0.9437500000000001
vt 0.1484375 0.9437500000000001
vt 0.009374999999999994 0.9875
vt 0.012500000000000011 0.9875
vt 0.012500000000000011 0.9437500000000001
vt 0.009374999999999994 0.9437500000000001
vt 0.015625 0.9875
vt 0.048437500000000015 0.9875
vt 0.048437500000000015 0.9437500000000001
vt 0.015625 0.9437500000000001
vt 0.009374999999999994 0.984375
vt 0.012500000000000011 0.984375
vt 0.012500000000000011 0.9515625
vt 0.009374999999999994 0.9515625
vt 0.009374999999999994 0.8515625
vt 0.012500000000000011 0.8515625
vt 0.012500000000000011 0.81875
vt 0.009374999999999994 0.81875
vn 0 0 -1
vn 1 0 0
vn 0 0 1
vn -1 0 0
vn 0 1 0
vn 0 -1 0
usemtl none
f 402/1543/413 405/1542/413 403/1541/413 400/1540/413
f 401/1547/414 402/1546/414 400/1545/414 399/1544/414
f 406/1551/415 401/1550/415 399/1549/415 404/1548/415
f 405/1555/416 406/1554/416 404/1553/416 403/1552/416
f 404/1559/417 399/1558/417 400/1557/417 403/1556/417
f 405/1563/418 402/1562/418 401/1561/418 406/1560/418