# Made in Blockbench 5.1.6
mtllib floor.mtl

o cube
v 0.16249999999999454 0.006249999999997646 1.5
v 0.16249999999999454 0.006249999999997646 -1.5
v -0.11875000000000552 0.0062499999999985345 1.5
v -0.11875000000000552 0.0062499999999985345 -1.5
v 0.1624999999999953 0.2624999999999984 -1.5
v 0.1624999999999953 0.2624999999999984 1.5
v -0.1187500000000048 0.2624999999999993 -1.5
v -0.1187500000000048 0.2624999999999993 1.5
vt 0 1
vt 0.06406250000000002 1
vt 0.06406250000000002 0.9296875
vt 0 0.9296875
vt 0 1
vt 0.75 1
vt 0.75 0.9296875
vt 0 0.9296875
vt 0 1
vt 0.06406250000000002 1
vt 0.06406250000000002 0.9296875
vt 0 0.9296875
vt 0.015625 1
vt 0.765625 1
vt 0.765625 0.9296875
vt 0.015625 0.9296875
vt 0 0.984375
vt 0.06406250000000002 0.984375
vt 0.06406250000000002 0.234375
vt 0 0.234375
vt 0 1
vt 0.06406250000000002 1
vt 0.06406250000000002 0.25
vt 0 0.25
vn 0 0 -1
vn -2.8865798640254066e-15 -1 0
vn 0 0 1
vn 2.8865798640254066e-15 1 0
vn 1 -2.8865798640254066e-15 0
vn -1 2.8865798640254066e-15 0
usemtl none
f 4/4/1 7/3/1 5/2/1 2/1/1
f 3/8/2 4/7/2 2/6/2 1/5/2
f 8/12/3 3/11/3 1/10/3 6/9/3
f 7/16/4 8/15/4 6/14/4 5/13/4
f 6/20/5 1/19/5 2/18/5 5/17/5
f 7/24/6 4/23/6 3/22/6 8/21/6
o cube
v 0.16249999999999867 1.581250000000002 1.5
v 0.16249999999999867 1.581250000000002 -1.5
v -0.11875000000000138 1.581250000000003 1.5
v -0.11875000000000138 1.581250000000003 -1.5
v 0.1624999999999994 1.8312500000000025 -1.5
v 0.1624999999999994 1.8312500000000025 1.5
v -0.11875000000000066 1.8312500000000032 -1.5
v -0.11875000000000066 1.8312500000000032 1.5
vt 0 1
vt 0.06250000000000006 1
vt 0.06250000000000006 0.9296875
vt 0 0.9296875
vt 0 1
vt 0.75 1
vt 0.75 0.9296875
vt 0 0.9296875
vt 0.0015624999999999667 1
vt 0.06406250000000002 1
vt 0.06406250000000002 0.9296875
vt 0.0015624999999999667 0.9296875
vt 0.015625 1
vt 0.765625 1
vt 0.765625 0.9296875
vt 0.015625 0.9296875
vt 0.0015624999999999667 0.984375
vt 0.06406250000000002 0.984375
vt 0.06406250000000002 0.234375
vt 0.0015624999999999667 0.234375
vt 0.0015624999999999667 1
vt 0.06406250000000002 1
vt 0.06406250000000002 0.25
vt 0.0015624999999999667 0.25
vn 0 0 -1
vn -2.8865798640254066e-15 -1 0
vn 0 0 1
vn 2.8865798640254066e-15 1 0
vn 1 -2.8865798640254066e-15 0
vn -1 2.8865798640254066e-15 0
usemtl none
f 12/28/7 15/27/7 13/26/7 10/25/7
f 11/32/8 12/31/8 10/30/8 9/29/8
f 16/36/9 11/35/9 9/34/9 14/33/9
f 15/40/10 16/39/10 14/38/10 13/37/10
f 14/44/11 9/43/11 10/42/11 13/41/11
f 15/48/12 12/47/12 11/46/12 16/45/12
o cube
v 0.13124999999998213 0.17284226380274692 1.4106443885489355
v 0.13124999999999756 1.5870558261758416 -0.003569173824159202
v -0.10000000000001759 0.17284226380274936 1.4106443885489355
v -0.10000000000000216 1.5870558261758443 -0.003569173824159164
v 0.13124999999999856 1.6754441738241603 0.08481917382415939
v 0.13124999999998313 0.26123061145106563 1.4990327361972542
v -0.10000000000000119 1.6754441738241628 0.08481917382415943
v -0.10000000000001662 0.2612306114510681 1.4990327361972542
vt 0 1
vt 0.031250000000000056 1
vt 0.031250000000000056 0.9421875000000001
vt 0 0.9421875000000001
vt 0 1
vt 0.5 1
vt 0.5 0.9421875000000001
vt 0 0.9421875000000001
vt 0 1
vt 0.031250000000000056 1
vt 0.031250000000000056 0.9421875000000001
vt 0 0.9421875000000001
vt 0.390625 1
vt 0.890625 1
vt 0.890625 0.9421875000000001
vt 0.390625 0.9421875000000001
vt 0 0.609375
vt 0.031250000000000056 0.609375
vt 0.031250000000000056 0.109375
vt 0 0.109375
vt 0 1
vt 0.031250000000000056 1
vt 0.031250000000000056 0.5
vt 0 0.5
vn 7.575696113149216e-15 0.7071067811865476 -0.7071067811865476
vn -7.811209981951781e-15 -0.7071067811865476 -0.7071067811865476
vn -7.575696113149216e-15 -0.7071067811865476 0.7071067811865476
vn 7.811209981951781e-15 0.7071067811865476 0.7071067811865476
vn 1 -1.0951394899319334e-14 -3.925231146709391e-17
vn -1 1.0951394899319334e-14 3.925231146709391e-17
usemtl none
f 20/52/13 23/51/13 21/50/13 18/49/13
f 19/56/14 20/55/14 18/54/14 17/53/14
f 24/60/15 19/59/15 17/58/15 22/57/15
f 23/64/16 24/63/16 22/62/16 21/61/16
f 22/68/17 17/67/17 18/66/17 21/65/17
f 23/72/18 20/71/18 19/70/18 24/69/18
o cube
v 0.16249999999996986 0.26022524355825505 1.3564720869120803
v 0.1624999999999976 1.603975243558256 1.35647208691208
v -0.11875000000003014 0.26022524355826104 1.3564720869120803
v -0.11875000000000241 1.603975243558262 1.35647208691208
v 0.1624999999999976 1.6039752435582562 1.5002220869120801
v 0.16249999999996986 0.26022524355825527 1.5002220869120804
v -0.11875000000000241 1.603975243558262 1.5002220869120801
v -0.11875000000003014 0.26022524355826104 1.5002220869120804
vt 0 1
vt 0.03593750000000007 1
vt 0.03593750000000007 0.9296875
vt 0 0.9296875
vt 0.16406249999999983 1
vt 0.5 1
vt 0.5 0.9296875
vt 0.16406249999999983 0.9296875
vt 0 1
vt 0.03593750000000007 1
vt 0.03593750000000007 0.9296875
vt 0 0.9296875
vt 0.390625 1
vt 0.7265625000000002 1
vt 0.7265625000000002 0.9296875
vt 0.390625 0.9296875
vt 0 0.609375
vt 0.03593750000000007 0.609375
vt 0.03593750000000007 0.2734374999999998
vt 0 0.2734374999999998
vt 0 0.8359375000000002
vt 0.03593750000000007 0.8359375000000002
vt 0.03593750000000007 0.5
vt 0 0.5
vn 2.0650148258027912e-14 1 -2.220446049250313e-16
vn -4.585254011597131e-30 -2.220446049250313e-16 -1
vn -2.0650148258027912e-14 -1 2.220446049250313e-16
vn 4.585254011597131e-30 2.220446049250313e-16 1
vn 1 -2.0650148258027912e-14 4.585254011597131e-30
vn -1 2.0650148258027912e-14 -4.585254011597131e-30
usemtl none
f 28/76/19 31/75/19 29/74/19 26/73/19
f 27/80/20 28/79/20 26/78/20 25/77/20
f 32/84/21 27/83/21 25/82/21 30/81/21
f 31/88/22 32/87/22 30/86/22 29/85/22
f 30/92/23 25/91/23 26/90/23 29/89/23
f 31/96/24 28/95/24 27/94/24 32/93/24
o cube
v 0.1312499999999696 0.26022524355825505 -0.06852791308791999
v 0.13124999999999737 1.6039752435582564 -0.06852791308792028
v -0.1000000000000301 0.26022524355825993 -0.06852791308791999
v -0.10000000000000235 1.6039752435582613 -0.06852791308792028
v 0.13124999999999737 1.6039752435582564 0.05647208691207995
v 0.1312499999999696 0.26022524355825505 0.05647208691208024
v -0.10000000000000235 1.6039752435582613 0.05647208691207995
v -0.1000000000000301 0.26022524355825993 0.05647208691208024
vt 0 1
vt 0.031250000000000056 1
vt 0.031250000000000056 0.9421875000000001
vt 0 0.9421875000000001
vt 0.16406249999999983 1
vt 0.5000000000000002 1
vt 0.5000000000000002 0.9421875000000001
vt 0.16406249999999983 0.9421875000000001
vt 0 1
vt 0.031250000000000056 1
vt 0.031250000000000056 0.9421875000000001
vt 0 0.9421875000000001
vt 0.390625 1
vt 0.7265625000000003 1
vt 0.7265625000000003 0.9421875000000001
vt 0.390625 0.9421875000000001
vt 0 0.609375
vt 0.031250000000000056 0.609375
vt 0.031250000000000056 0.27343749999999967
vt 0 0.27343749999999967
vt 0 0.8359375000000002
vt 0.031250000000000056 0.8359375000000002
vt 0.031250000000000056 0.4999999999999998
vt 0 0.4999999999999998
vn 2.0650148258027912e-14 1 -2.220446049250313e-16
vn -4.585254011597131e-30 -2.220446049250313e-16 -1
vn -2.0650148258027912e-14 -1 2.220446049250313e-16
vn 4.585254011597131e-30 2.220446049250313e-16 1
vn 1 -2.0650148258027912e-14 4.585254011597131e-30
vn -1 2.0650148258027912e-14 -4.585254011597131e-30
usemtl none
f 36/100/25 39/99/25 37/98/25 34/97/25
f 35/104/26 36/103/26 34/102/26 33/101/26
f 40/108/27 35/107/27 33/106/27 38/105/27
f 39/112/28 40/111/28 38/110/28 37/109/28
f 38/116/29 33/115/29 34/114/29 37/113/29
f 39/120/30 36/119/30 35/118/30 40/117/30
o cube
v 0.13124999999998213 0.1728422638027476 -0.02685561145106452
v 0.13124999999999756 1.5870558261758414 -1.4410691738241583
v -0.10000000000001759 0.17284226380275003 -0.02685561145106452
v -0.10000000000000216 1.587055826175844 -1.4410691738241583
v 0.13124999999999856 1.67544417382416 -1.3526808261758398
v 0.13124999999998313 0.2612306114510663 0.06153273619725419
v -0.10000000000000119 1.6754441738241626 -1.3526808261758398
v -0.10000000000001662 0.26123061145106874 0.06153273619725419
vt 0 1
vt 0.031250000000000056 1
vt 0.031250000000000056 0.9421875000000001
vt 0 0.9421875000000001
vt 0 1
vt 0.49999999999999967 1
vt 0.49999999999999967 0.9421875000000001
vt 0 0.9421875000000001
vt 0 1
vt 0.031250000000000056 1
vt 0.031250000000000056 0.9421875000000001
vt 0 0.9421875000000001
vt 0.390625 1
vt 0.8906249999999997 1
vt 0.8906249999999997 0.9421875000000001
vt 0.390625 0.9421875000000001
vt 0 0.609375
vt 0.031250000000000056 0.609375
vt 0.031250000000000056 0.10937500000000033
vt 0 0.10937500000000033
vt 0 1
vt 0.031250000000000056 1
vt 0.031250000000000056 0.5000000000000003
vt 0 0.5000000000000003
vn 7.575696113149216e-15 0.7071067811865476 -0.7071067811865476
vn -7.811209981951781e-15 -0.7071067811865476 -0.7071067811865476
vn -7.575696113149216e-15 -0.7071067811865476 0.7071067811865476
vn 7.811209981951781e-15 0.7071067811865476 0.7071067811865476
vn 1 -1.0951394899319334e-14 -3.925231146709391e-17
vn -1 1.0951394899319334e-14 3.925231146709391e-17
usemtl none
f 44/124/31 47/123/31 45/122/31 42/121/31
f 43/128/32 44/127/32 42/126/32 41/125/32
f 48/132/33 43/131/33 41/130/33 46/129/33
f 47/136/34 48/135/34 46/134/34 45/133/34
f 46/140/35 41/139/35 42/138/35 45/137/35
f 47/144/36 44/143/36 43/142/36 48/141/36