# Made in Blockbench 5.1.6
mtllib lamp.mtl

o cube
v 0.125 0.024999999999999994 0.36250000000000004
v 0.125 0.024999999999999994 -0.36250000000000004
v 0.125 0 0.36250000000000004
v 0.125 0 -0.36250000000000004
v -0.125 0.024999999999999994 -0.36250000000000004
v -0.125 0.024999999999999994 0.36250000000000004
v -0.125 0 -0.36250000000000004
v -0.125 0 0.36250000000000004
vt 0 0.975
vt 0.0625 0.975
vt 0.0625 0.96875
vt 0 0.96875
vt 0.012499999999999983 0.975
vt 0.19375 0.975
vt 0.19375 0.96875
vt 0.012499999999999983 0.96875
vt 0.0031250000000000028 0.975
vt 0.065625 0.975
vt 0.065625 0.96875
vt 0.0031250000000000028 0.96875
vt 0 0.975
vt 0.18125000000000002 0.975
vt 0.18125000000000002 0.96875
vt 0 0.96875
vt 0.0031250000000000028 1
vt 0.065625 1
vt 0.065625 0.81875
vt 0.0031250000000000028 0.81875
vt 0.0031250000000000028 0.9875
vt 0.065625 0.9875
vt 0.065625 0.80625
vt 0.0031250000000000028 0.80625
vn 0 0 -1
vn 1 0 0
vn 0 0 1
vn -1 0 0
vn 0 1 0
vn 0 -1 0
usemtl none
f 4/4/1 7/3/1 5/2/1 2/1/1
f 3/8/2 4/7/2 2/6/2 1/5/2
f 8/12/3 3/11/3 1/10/3 6/9/3
f 7/16/4 8/15/4 6/14/4 5/13/4
f 6/20/5 1/19/5 2/18/5 5/17/5
f 7/24/6 4/23/6 3/22/6 8/21/6
o cube
v 0.1375 0.0625 0.3749999999999999
v 0.1375 0.0625 -0.375
v 0.1375 0.024999999999999994 0.3749999999999999
v 0.1375 0.024999999999999994 -0.375
v -0.1375 0.0625 -0.375
v -0.1375 0.0625 0.3749999999999999
v -0.1375 0.024999999999999994 -0.375
v -0.1375 0.024999999999999994 0.3749999999999999
vt 0 0.984375
vt 0.06875 0.984375
vt 0.06875 0.975
vt 0 0.975
vt 0.009375000000000022 0.984375
vt 0.196875 0.984375
vt 0.196875 0.975
vt 0.009375000000000022 0.975
vt 0 0.984375
vt 0.06875 0.984375
vt 0.06875 0.975
vt 0 0.975
vt 0 0.984375
vt 0.18749999999999997 0.984375
vt 0.18749999999999997 0.975
vt 0 0.975
vt 0 1
vt 0.06875 1
vt 0.06875 0.8125
vt 0 0.8125
vt 0 0.990625
vt 0.06875 0.990625
vt 0.06875 0.803125
vt 0 0.803125
vn 0 0 -1
vn 1 0 0
vn 0 0 1
vn -1 0 0
vn 0 1 0
vn 0 -1 0
usemtl none
f 12/28/7 15/27/7 13/26/7 10/25/7
f 11/32/8 12/31/8 10/30/8 9/29/8
f 16/36/9 11/35/9 9/34/9 14/33/9
f 15/40/10 16/39/10 14/38/10 13/37/10
f 14/44/11 9/43/11 10/42/11 13/41/11
f 15/48/12 12/47/12 11/46/12 16/45/12