# Made in Blockbench 5.1.6
mtllib offon.mtl

o cube
v 0.0625 0.19375 0.03125
v 0.0625 0.19375 -0.09375
v 0.0625 0.0062500000000000056 0.03125
v 0.0625 0.0062500000000000056 -0.09375
v 0.03125 0.19375 -0.09375
v 0.03125 0.19375 0.03125
v 0.03125 0.0062500000000000056 -0.09375
v 0.03125 0.0062500000000000056 0.03125
vt 0 1
vt 0.0078125 1
vt 0.0078125 0.953125
vt 0 0.953125
vt 0.015625 1
vt 0.046875 1
vt 0.046875 0.953125
vt 0.015625 0.953125
vt 0.0234375 1
vt 0.03125 1
vt 0.03125 0.953125
vt 0.0234375 0.953125
vt 0 1
vt 0.03125 1
vt 0.03125 0.953125
vt 0 0.953125
vt 0.0234375 1
vt 0.03125 1
vt 0.03125 0.96875
vt 0.0234375 0.96875
vt 0.0234375 0.984375
vt 0.03125 0.984375
vt 0.03125 0.953125
vt 0.0234375 0.953125
vn 0 0 -1
vn 1 0 0
vn 0 0 1
vn -1 0 0
vn 0 1 0
vn 0 -1 0
usemtl none
f 4/4/1 7/3/1 5/2/1 2/1/1
f 3/8/2 4/7/2 2/6/2 1/5/2
f 8/12/3 3/11/3 1/10/3 6/9/3
f 7/16/4 8/15/4 6/14/4 5/13/4
f 6/20/5 1/19/5 2/18/5 5/17/5
f 7/24/6 4/23/6 3/22/6 8/21/6
o mesh
v 0.031249999999999965 0.11874999999999994 -0.006250000000000019
v 0.031249999999999965 0.11874999999999994 -0.05624999999999998
v 0.031249999999999965 0.01874999999999996 -0.006250000000000019
v 0.031249999999999965 0.01874999999999996 -0.05624999999999998
v 0.01250000000000004 0.11874999999999994 -0.006250000000000019
v 0.01250000000000004 0.11874999999999994 -0.05624999999999998
v 0.025000000000000036 0.01874999999999996 -0.006250000000000019
v 0.025000000000000036 0.01874999999999996 -0.05624999999999998
v 0.018750000000000037 0.06847101117960097 -0.05624999999999998
v 0.018750000000000037 0.06853363378925634 -0.006250000000000019
vt 0.25 1
vt 0 1
vt 0 0.875
vt 0.25 0.875
vt 0 0.75
vt 0.25 0.75
vt 0.25 1
vt 0 1
vt 0.25 0.75
vt 0.25 1
vt 0 1
vt 0 0.75
vt 0.25 0.875
vt 0.25 0.9372295422365705
vt 0 0.9371512639745013
vt 0 0.875
vt 0.25 0.9372295422365705
vt 0.25 1
vt 0 1
vt 0 0.9371512639745013
vt 0 0.9372295422365705
vt 0.25 0.875
vt 0.25 1
vt 0 1
vt 0 0.9372295422365705
vt 0 0.875
vt 0.25 0.875
vt 0.25 0.9371512639745012
vt 0.25 1
vt 0 1
vt 0 0.875
vt 0 0.875
vt 0.25 0.875
vt 0.25 0.9371512639745012
vn 1 0 0
vn 0 1 0
vn 0 -1 0
vn -0.9922113799138313 -0.12456545761028254 0.00015601228056943308
vn -0.9923435170161012 -0.12350847839770027 0
vn 0 0 1
vn 0 0 1
vn 0 0 -1
vn 0 0 -1
usemtl none
f 10/25/7 9/26/7 11/27/7 12/28/7
f 13/29/8 9/30/8 10/31/8 14/32/8
f 12/33/9 11/34/9 15/35/9 16/36/9
f 15/37/10 18/38/10 17/39/10 16/40/10
f 18/41/11 13/42/11 14/43/11 17/44/11
f 18/45/12 11/46/12 9/47/12 13/48/12
f 18/49/13 15/50/13 11/51/13
f 17/52/14 14/53/14 10/54/14 12/55/14
f 12/56/15 16/57/15 17/58/15
o cube
v 0.0625 0.19375 -0.09375
v 0.0625 0.19375 -0.1
v 0.0625 0.0062500000000000056 -0.09375
v 0.0625 0.0062500000000000056 -0.1
v 0.024999999999999998 0.19375 -0.1
v 0.024999999999999998 0.19375 -0.09375
v 0.024999999999999998 0.0062500000000000056 -0.1
v 0.024999999999999998 0.0062500000000000056 -0.09375
vt 0 1
vt 0.009375 1
vt 0.009375 0.953125
vt 0 0.953125
vt 0.046875 1
vt 0.0484375 1
vt 0.0484375 0.953125
vt 0.046875 0.953125
vt 0.021875 1
vt 0.03125 1
vt 0.03125 0.953125
vt 0.021875 0.953125
vt 0.001562499999999998 1
vt 0.0031249999999999993 1
vt 0.0031249999999999993 0.953125
vt 0.001562499999999998 0.953125
vt 0.021875 0.9984375
vt 0.03125 0.9984375
vt 0.03125 0.996875
vt 0.021875 0.996875
vt 0.021875 0.953125
vt 0.03125 0.953125
vt 0.03125 0.9515625
vt 0.021875 0.9515625
vn 0 0 -1
vn 1 0 0
vn 0 0 1
vn -1 0 0
vn 0 1 0
vn 0 -1 0
usemtl none
f 22/62/16 25/61/16 23/60/16 20/59/16
f 21/66/17 22/65/17 20/64/17 19/63/17
f 26/70/18 21/69/18 19/68/18 24/67/18
f 25/74/19 26/73/19 24/72/19 23/71/19
f 24/78/20 19/77/20 20/76/20 23/75/20
f 25/82/21 22/81/21 21/80/21 26/79/21
o cube
v 0.0625 0.19375 0.037500000000000006
v 0.0625 0.19375 0.03125
v 0.0625 0.0062500000000000056 0.037500000000000006
v 0.0625 0.0062500000000000056 0.03125
v 0.024999999999999998 0.19375 0.03125
v 0.024999999999999998 0.19375 0.037500000000000006
v 0.024999999999999998 0.0062500000000000056 0.03125
v 0.024999999999999998 0.0062500000000000056 0.037500000000000006
vt 0 1
vt 0.009375 1
vt 0.009375 0.953125
vt 0 0.953125
vt 0.046875 1
vt 0.0484375 1
vt 0.0484375 0.953125
vt 0.046875 0.953125
vt 0.021875 1
vt 0.03125 1
vt 0.03125 0.953125
vt 0.021875 0.953125
vt 0.001562499999999998 1
vt 0.0031249999999999993 1
vt 0.0031249999999999993 0.953125
vt 0.001562499999999998 0.953125
vt 0.021875 0.9984375
vt 0.03125 0.9984375
vt 0.03125 0.996875
vt 0.021875 0.996875
vt 0.021875 0.953125
vt 0.03125 0.953125
vt 0.03125 0.9515625
vt 0.021875 0.9515625
vn 0 0 -1
vn 1 0 0
vn 0 0 1
vn -1 0 0
vn 0 1 0
vn 0 -1 0
usemtl none
f 30/86/22 33/85/22 31/84/22 28/83/22
f 29/90/23 30/89/23 28/88/23 27/87/23
f 34/94/24 29/93/24 27/92/24 32/91/24
f 33/98/25 34/97/25 32/96/25 31/95/25
f 32/102/26 27/101/26 28/100/26 31/99/26
f 33/106/27 30/105/27 29/104/27 34/103/27
o cube
v 0.0625 0.20000000000000012 -0.10000000000000012
v 0.0625 0.1937500000000001 -0.10000000000000012
v 0.0625 0.20000000000000007 0.03749999999999996
v 0.0625 0.1937500000000001 0.03749999999999996
v 0.024999999999999998 0.1937500000000001 -0.10000000000000012
v 0.024999999999999998 0.20000000000000012 -0.10000000000000012
v 0.024999999999999998 0.1937500000000001 0.03749999999999996
v 0.024999999999999998 0.20000000000000007 0.03749999999999996
vt 0 1
vt 0.009375 1
vt 0.009375 0.965625
vt 0 0.965625
vt 0.046875 1
vt 0.0484375 1
vt 0.0484375 0.965625
vt 0.046875 0.965625
vt 0.021875 1
vt 0.03125 1
vt 0.03125 0.965625
vt 0.021875 0.965625
vt 0.001562499999999998 1
vt 0.0031249999999999993 1
vt 0.0031249999999999993 0.965625
vt 0.001562499999999998 0.965625
vt 0.021875 0.9984375
vt 0.03125 0.9984375
vt 0.03125 0.996875
vt 0.021875 0.996875
vt 0.021875 0.953125
vt 0.03125 0.953125
vt 0.03125 0.9515625
vt 0.021875 0.9515625
vn 0 -1 -2.220446049250313e-16
vn 1 0 0
vn 0 1 2.220446049250313e-16
vn -1 0 0
vn 0 2.220446049250313e-16 -1
vn 0 -2.220446049250313e-16 1
usemtl none
f 38/110/28 41/109/28 39/108/28 36/107/28
f 37/114/29 38/113/29 36/112/29 35/111/29
f 42/118/30 37/117/30 35/116/30 40/115/30
f 41/122/31 42/121/31 40/120/31 39/119/31
f 40/126/32 35/125/32 36/124/32 39/123/32
f 41/130/33 38/129/33 37/128/33 42/127/33
o cube
v 0.0625 0.006250000000000158 -0.10000000000000053
v 0.0625 1.5265566588595902e-16 -0.10000000000000053
v 0.0625 0.0062500000000001305 0.037499999999999874
v 0.0625 1.249000902703301e-16 0.037499999999999874
v 0.024999999999999998 1.5265566588595902e-16 -0.10000000000000053
v 0.024999999999999998 0.006250000000000158 -0.10000000000000053
v 0.024999999999999998 1.249000902703301e-16 0.037499999999999874
v 0.024999999999999998 0.0062500000000001305 0.037499999999999874
vt 0 1
vt 0.009375 1
vt 0.009375 0.9656249999999998
vt 0 0.9656249999999998
vt 0.046875 1
vt 0.0484375 1
vt 0.0484375 0.9656249999999998
vt 0.046875 0.9656249999999998
vt 0.021875 1
vt 0.03125 1
vt 0.03125 0.9656249999999998
vt 0.021875 0.9656249999999998
vt 0.001562499999999998 1
vt 0.0031249999999999993 1
vt 0.0031249999999999993 0.9656249999999998
vt 0.001562499999999998 0.9656249999999998
vt 0.021875 0.9984375
vt 0.03125 0.9984375
vt 0.03125 0.996875
vt 0.021875 0.996875
vt 0.021875 0.953125
vt 0.03125 0.953125
vt 0.03125 0.9515625
vt 0.021875 0.9515625
vn 0 -1 -2.220446049250313e-16
vn 1 0 0
vn 0 1 2.220446049250313e-16
vn -1 0 0
vn 0 2.220446049250313e-16 -1
vn 0 -2.220446049250313e-16 1
usemtl none
f 46/134/34 49/133/34 47/132/34 44/131/34
f 45/138/35 46/137/35 44/136/35 43/135/35
f 50/142/36 45/141/36 43/140/36 48/139/36
f 49/146/37 50/145/37 48/144/37 47/143/37
f 48/150/38 43/149/38 44/148/38 47/147/38
f 49/154/39 46/153/39 45/152/39 50/151/39
o cube
v 0.03125 0.16875000000000007 -0.04375000000000015
v 0.03125 0.14375000000000007 -0.04375000000000015
v 0.03125 0.16875000000000007 -0.018750000000000114
v 0.03125 0.14375000000000007 -0.018750000000000128
v 0.025 0.14375000000000007 -0.04375000000000015
v 0.025 0.16875000000000007 -0.04375000000000015
v 0.025 0.14375000000000007 -0.018750000000000128
v 0.025 0.16875000000000007 -0.018750000000000114
vt 0.0078125 0.9859375
vt 0.009375 0.9859375
vt 0.009375 0.9796875
vt 0.0078125 0.9796875
vt 0.04375 0.9859375
vt 0.05 0.9859375
vt 0.05 0.9796875
vt 0.04375 0.9796875
vt 0.021875 0.9859375
vt 0.0234375 0.9859375
vt 0.0234375 0.9796875
vt 0.021875 0.9796875
vt 0 0.9859375
vt 0.006250000000000002 0.9859375
vt 0.006250000000000002 0.9796875
vt 0 0.9796875
vt 0.021875 1
vt 0.0234375 1
vt 0.0234375 0.99375
vt 0.021875 0.99375
vt 0.021875 0.95625
vt 0.0234375 0.95625
vt 0.0234375 0.95
vt 0.021875 0.95
vn 0 -1 -2.220446049250313e-16
vn 1 0 0
vn 0 1 2.220446049250313e-16
vn -1 0 0
vn 0 2.220446049250313e-16 -1
vn 0 -2.220446049250313e-16 1
usemtl none
f 54/158/40 57/157/40 55/156/40 52/155/40
f 53/162/41 54/161/41 52/160/41 51/159/41
f 58/166/42 53/165/42 51/164/42 56/163/42
f 57/170/43 58/169/43 56/168/43 55/167/43
f 56/174/44 51/173/44 52/172/44 55/171/44
f 57/178/45 54/177/45 53/176/45 58/175/45