# Made in Blockbench 5.1.6
mtllib soedinitel.mtl

o 4
v 0.04947937500000005 0.04999999999999999 0.04739562500000009
v 0.04947937500000005 0.04999999999999999 -0.04427062499999991
v -0.046354375 0.04999999999999999 0.04739562500000009
v -0.046354375 0.04999999999999999 -0.04427062499999991
v 0.04947937500000005 0 0.04739562500000009
v 0.04947937500000005 0 -0.04427062499999991
v -0.046354375 0 0.04739562500000009
v -0.046354375 0 -0.04427062499999991
v -0.14218749999999997 0.0003381249999999947 0.04739562500000009
v -0.14218749999999997 0.04912875 0.04739562500000009
v -0.14218749999999997 0.0003381249999999947 -0.04427062499999991
v -0.14218749999999997 0.04912875 -0.04427062499999991
v 0.1453125 0.0003381249999999947 0.04739562500000009
v 0.1453125 0.04912875 0.04739562500000009
v 0.1453125 0.0003381249999999947 -0.04427062499999991
v 0.1453125 0.04912875 -0.04427062499999991
v 0.04947937500000005 0.0003381249999999947 -0.1359374999999999
v 0.04947937500000005 0.04912875 -0.1359374999999999
v -0.046354375 0.0003381249999999947 -0.1359374999999999
v -0.046354375 0.04912875 -0.1359374999999999
v 0.04947937500000005 0.0003381249999999947 0.1390625000000001
v 0.04947937500000005 0.04912875 0.1390625000000001
v -0.046354375 0.0003381249999999947 0.1390625000000001
v -0.046354375 0.04912875 0.1390625000000001
vt 0.015625 0.984375
vt 0.015625 1
vt 0 1
vt 0 0.984375
vt 0 0.984375
vt 0.015625 0.984375
vt 0.015625 1
vt 0 1
vt 0.015625 1
vt 0 1
vt 0 0.977903125
vt 0.015625 0.977903125
vt 0.015625 0.977903125
vt 0.015625 1
vt 0 1
vt 0 0.977903125
vt 0.015625 0.977903125
vt 0.015625 1
vt 0 1
vt 0 0.977903125
vt 0.015625 1
vt 0 1
vt 0 0.977903125
vt 0.015625 0.977903125
vt 0 1
vt 0 0.977903125
vt 0.015625 0.977903125
vt 0.015625 1
vt 0 0.977903125
vt 0.015625 0.977903125
vt 0.015625 1
vt 0 1
vt 0 0.977903125
vt 0.015625 0.977903125
vt 0.015625 1
vt 0 1
vt 0 1
vt 0 0.977903125
vt 0.015625 0.977903125
vt 0.015625 1
vt 0.0110484375 0.9808625
vt 0.022096875 1
vt 0 1
vt 0.0110484375 0.9808625
vt 0.022096875 1
vt 0 1
vt 0.0110484375 0.9808625
vt 0.022096875 1
vt 0 1
vt 0.0110484375 0.9808625
vt 0.022096875 1
vt 0 1
vt 0.0110484375 1
vt 0 0.9808640625
vt 0.022096875 0.9808640625
vt 0.0110484375 1
vt 0 0.9808640625
vt 0.022096875 0.9808640625
vt 0.0110484375 1
vt 0 0.9808640625
vt 0.022096875 0.9808640625
vt 0.0110484375 1
vt 0 0.9808640625
vt 0.022096875 0.9808640625
vt 0.015625 1
vt 0 1
vt 0 0.96875
vt 0.015625 0.96875
vt 0.015625 0.96875
vt 0.015625 1
vt 0 1
vt 0 0.96875
vt 0.015625 0.96875
vt 0.015625 1
vt 0 1
vt 0 0.96875
vt 0.015625 1
vt 0 1
vt 0 0.96875
vt 0.015625 0.96875
vt 0 0.96875
vt 0.022096875 0.96875
vt 0.022096875 1
vt 0 1
vt 0 1
vt 0 0.96875
vt 0.022096875 0.96875
vt 0.022096875 1
vt 0 1
vt 0 0.96875
vt 0.022096875 0.96875
vt 0.022096875 1
vt 0 0.96875
vt 0.022096875 0.96875
vt 0.022096875 1
vt 0 1
vn 0 1 0
vn 0 -1 0
vn 0.009090948426010676 0.9999586764745411 0
vn -0.009090948426010676 0.9999586764745411 0
vn 0 0.9999548350731509 0.009504094582230196
vn 0 0.9999548350731509 -0.0095040945822302
vn 0.0035282465787781605 -0.999993775718669 0
vn -0.0035282465787781605 -0.999993775718669 0
vn 0 -0.9999931970812314 0.0036886028869543767
vn 0 -0.9999931970812314 -0.003688602886954378
vn 0.0035282225767020794 -0.9999869729269284 0.0036885799283646603
vn -0.0035282225767020794 -0.9999869729269284 0.0036885799283646603
vn 0.003528222576702079 -0.9999869729269284 -0.0036885799283646616
vn -0.003528222576702079 -0.9999869729269284 -0.0036885799283646616
vn 0.009090537867921245 0.9999135171463296 0.009503701875009152
vn -0.009090537867921245 0.9999135171463296 0.009503701875009152
vn 0.009090537867921245 0.9999135171463296 -0.009503701875009157
vn -0.009090537867921245 0.9999135171463296 -0.009503701875009157
vn 1 0 0
vn -1 0 0
vn 0 0 1
vn 0 0 -1
vn 0.6912242510439012 0 -0.7226403218536854
vn 0.6912242510439013 0 0.7226403218536852
vn -0.6912242510439012 0 -0.7226403218536854
vn -0.6912242510439013 0 0.7226403218536852
usemtl none
f 1/1/1 2/2/1 4/3/1 3/4/1
f 8/5/2 6/6/2 5/7/2 7/8/2
f 2/9/3 1/10/3 14/11/3 16/12/3
f 10/13/4 3/14/4 4/15/4 12/16/4
f 22/17/5 1/18/5 3/19/5 24/20/5
f 4/21/6 2/22/6 18/23/6 20/24/6
f 13/25/7 5/26/7 6/27/7 15/28/7
f 8/29/8 7/30/8 9/31/8 11/32/8
f 7/33/9 5/34/9 21/35/9 23/36/9
f 17/37/10 6/38/10 8/39/10 19/40/10
f 5/41/11 13/42/11 21/43/11
f 7/44/12 23/45/12 9/46/12
f 6/47/13 17/48/13 15/49/13
f 8/50/14 11/51/14 19/52/14
f 1/53/15 22/54/15 14/55/15
f 3/56/16 10/57/16 24/58/16
f 2/59/17 16/60/17 18/61/17
f 4/62/18 20/63/18 12/64/18
f 16/65/19 14/66/19 13/67/19 15/68/19
f 9/69/20 10/70/20 12/71/20 11/72/20
f 21/73/21 22/74/21 24/75/21 23/76/21
f 20/77/22 18/78/22 17/79/22 19/80/22
f 15/81/23 17/82/23 18/83/23 16/84/23
f 22/85/24 21/86/24 13/87/24 14/88/24
f 20/89/25 19/90/25 11/91/25 12/92/25
f 9/93/26 23/94/26 24/95/26 10/96/26