# Made in Blockbench 5.1.6
mtllib telephones.mtl

o cube
v 0.125 0.375 0.0625
v 0.125 0.375 0.037500000000000006
v 0.125 0 0.0625
v 0.125 0 0.037500000000000006
v -0.125 0.375 0.037500000000000006
v -0.125 0.375 0.0625
v -0.125 0 0.037500000000000006
v -0.125 0 0.0625
vt 0 1
vt 0.0625 1
vt 0.0625 0.90625
vt 0 0.90625
vt 0 1
vt 0.006249999999999999 1
vt 0.006249999999999999 0.90625
vt 0 0.90625
vt 0 1
vt 0.0625 1
vt 0.0625 0.90625
vt 0 0.90625
vt 0.025 1
vt 0.03125 1
vt 0.03125 0.90625
vt 0.025 0.90625
vt 0 0.975
vt 0.0625 0.975
vt 0.0625 0.96875
vt 0 0.96875
vt 0 1
vt 0.0625 1
vt 0.0625 0.99375
vt 0 0.99375
vn 0 0 -1
vn 1 0 0
vn 0 0 1
vn -1 0 0
vn 0 1 0
vn 0 -1 0
usemtl none
f 4/4/1 7/3/1 5/2/1 2/1/1
f 3/8/2 4/7/2 2/6/2 1/5/2
f 8/12/3 3/11/3 1/10/3 6/9/3
f 7/16/4 8/15/4 6/14/4 5/13/4
f 6/20/5 1/19/5 2/18/5 5/17/5
f 7/24/6 4/23/6 3/22/6 8/21/6
o cube
v 0.125 0.4125 0.0625
v 0.125 0.4125 0.03125
v 0.125 0.375 0.0625
v 0.125 0.375 0.03125
v -0.125 0.4125 0.03125
v -0.125 0.4125 0.0625
v -0.125 0.375 0.03125
v -0.125 0.375 0.0625
vt 0 0.996875
vt 0.0625 0.996875
vt 0.0625 0.9875
vt 0 0.9875
vt 0 0.996875
vt 0.007812499999999998 0.996875
vt 0.007812499999999998 0.9875
vt 0 0.9875
vt 0 0.996875
vt 0.0625 0.996875
vt 0.0625 0.9875
vt 0 0.9875
vt 0.0234375 0.996875
vt 0.03125 0.996875
vt 0.03125 0.9875
vt 0.0234375 0.9875
vt 0 0.9765625
vt 0.0625 0.9765625
vt 0.0625 0.96875
vt 0 0.96875
vt 0 1
vt 0.0625 1
vt 0.0625 0.9921875
vt 0 0.9921875
vn 0 0 -1
vn 1 0 0
vn 0 0 1
vn -1 0 0
vn 0 1 0
vn 0 -1 0
usemtl none
f 12/28/7 15/27/7 13/26/7 10/25/7
f 11/32/8 12/31/8 10/30/8 9/29/8
f 16/36/9 11/35/9 9/34/9 14/33/9
f 15/40/10 16/39/10 14/38/10 13/37/10
f 14/44/11 9/43/11 10/42/11 13/41/11
f 15/48/12 12/47/12 11/46/12 16/45/12
o cube
v 0.007812499999999993 0.40359260553888354 0.044587095645837946
v 0.007812499999999993 0.4074108883727619 0.026229993036752025
v 0.007812499999999993 0.3821759858282832 0.04013243233964654
v 0.007812499999999993 0.3859942686621615 0.021775329730560622
v -0.014062499999999999 0.4074108883727619 0.026229993036752025
v -0.014062499999999999 0.40359260553888354 0.044587095645837946
v -0.014062499999999999 0.3859942686621615 0.021775329730560622
v -0.014062499999999999 0.3821759858282832 0.04013243233964654
vt 0.029296875 0.995703125
vt 0.034765624999999994 0.995703125
vt 0.034765624999999994 0.990234375
vt 0.029296875 0.990234375
vt 0.0078125 0.995703125
vt 0.012499999999999994 0.995703125
vt 0.012499999999999994 0.990234375
vt 0.0078125 0.990234375
vt 0.027734375000000002 0.995703125
vt 0.033203125 0.995703125
vt 0.033203125 0.990234375
vt 0.027734375000000002 0.990234375
vt 0.018750000000000003 0.995703125
vt 0.023437499999999997 0.995703125
vt 0.023437499999999997 0.990234375
vt 0.018750000000000003 0.990234375
vt 0.027734375000000002 0.98125
vt 0.033203125 0.98125
vt 0.033203125 0.9765625
vt 0.027734375000000002 0.9765625
vt 0.027734375000000002 0.9921875
vt 0.033203125 0.9921875
vt 0.033203125 0.9875
vt 0.027734375000000002 0.9875
vn 0 0.20364175114017746 -0.9790454724845838
vn 1 0 0
vn 0 -0.20364175114017746 0.9790454724845838
vn -1 0 0
vn 0 0.9790454724845838 0.20364175114017746
vn 0 -0.9790454724845838 -0.20364175114017746
usemtl none
f 20/52/13 23/51/13 21/50/13 18/49/13
f 19/56/14 20/55/14 18/54/14 17/53/14
f 24/60/15 19/59/15 17/58/15 22/57/15
f 23/64/16 24/63/16 22/62/16 21/61/16
f 22/68/17 17/67/17 18/66/17 21/65/17
f 23/72/18 20/71/18 19/70/18 24/69/18
o cube
v 0.0015624999999999927 0.40059857133585486 0.02612683470121183
v 0.0015624999999999927 0.402507712752794 0.016948283396668887
v 0.0015624999999999927 0.3914200200313119 0.02421769328427266
v 0.0015624999999999927 0.39332916144825103 0.01503914197972972
v -0.0078124999999999965 0.402507712752794 0.016948283396668887
v -0.0078124999999999965 0.40059857133585486 0.02612683470121183
v -0.0078124999999999965 0.39332916144825103 0.01503914197972972
v -0.0078124999999999965 0.3914200200313119 0.02421769328427266
vt 0.030859375 0.994140625
vt 0.033203125 0.994140625
vt 0.033203125 0.991796875
vt 0.030859375 0.991796875
vt 0.0078125 0.994140625
vt 0.010156249999999992 0.994140625
vt 0.010156249999999992 0.991796875
vt 0.0078125 0.991796875
vt 0.029296875000000007 0.994140625
vt 0.031640625000000006 0.994140625
vt 0.031640625000000006 0.991796875
vt 0.029296875000000007 0.991796875
vt 0.02109375 0.994140625
vt 0.023437499999999993 0.994140625
vt 0.023437499999999993 0.991796875
vt 0.02109375 0.991796875
vt 0.029296875000000007 0.97890625
vt 0.031640625000000006 0.97890625
vt 0.031640625000000006 0.9765625
vt 0.029296875000000007 0.9765625
vt 0.029296875000000007 0.9921875
vt 0.031640625000000006 0.9921875
vt 0.031640625000000006 0.98984375
vt 0.029296875000000007 0.98984375
vn 0 0.20364175114017746 -0.9790454724845838
vn 1 0 0
vn 0 -0.20364175114017746 0.9790454724845838
vn -1 0 0
vn 0 0.9790454724845838 0.20364175114017746
vn 0 -0.9790454724845838 -0.20364175114017746
usemtl none
f 28/76/19 31/75/19 29/74/19 26/73/19
f 27/80/20 28/79/20 26/78/20 25/77/20
f 32/84/21 27/83/21 25/82/21 30/81/21
f 31/88/22 32/87/22 30/86/22 29/85/22
f 30/92/23 25/91/23 26/90/23 29/89/23
f 31/96/24 28/95/24 27/94/24 32/93/24