# Made in Blockbench 5.1.6
mtllib truba.mtl

o труба
v 0.03541687499999887 0.13177125000000012 -0.7515624999999986
v 0.03541687499999893 0.06666625000000012 -0.751562499999999
v -0.03541687500000113 0.13177125000000012 -0.7515624999999986
v -0.03541687500000107 0.06666625000000012 -0.751562499999999
v 0.035416874999998876 0.13177124999999978 0.7453125000000007
v 0.035416874999998876 0.0651037499999998 0.7453125000000005
v -0.035416875000001125 0.13177124999999978 0.7453125000000007
v -0.03541687500000127 0.0651037499999998 0.7453125000000003
v -0.09962812500000114 0.13177124999999978 0.6796875000000007
v -0.10000000000000113 0.13177125000000012 -0.6824837499999987
v -0.09962812500000133 0.0651037499999998 0.676562500000001
v -0.10000000000000112 0.0666662500000001 -0.6824837499999992
v 0.09962812499999889 0.13177124999999978 0.6781250000000008
v 0.09999999999999887 0.13177125000000012 -0.6840462499999991
v 0.09962812499999889 0.06666624999999979 0.6781250000000008
v 0.10156249999999886 0.0666662500000001 -0.6840462499999991
v 0.03541687499999876 -1.942890293094024e-16 0.6796875000000007
v 0.03697937499999888 1.1102230246251565e-16 -0.6824837499999992
v -0.03541687500000124 -1.942890293094024e-16 0.6796875000000007
v -0.035416875000001125 1.1102230246251565e-16 -0.6840462499999991
v 0.035416874999998876 0.1999999999999998 0.6781250000000008
v 0.03541687499999886 0.20000000000000012 -0.6824837499999987
v -0.035416875000001125 0.1999999999999998 0.6781250000000008
v -0.03541687500000114 0.20000000000000012 -0.6824837499999987
vt 0.015625 1
vt 0 1
vt 0 0.96875
vt 0.015625 0.96875
vt 0.015625 0.96875
vt 0.015625 1
vt 0 1
vt 0 0.96875
vt 0.015625 0.984375
vt 0.015625 1
vt 0 1
vt 0 0.984375
vt 0 0.984375
vt 0.015625 0.984375
vt 0.015625 1
vt 0 1
vt 0.015625 0.96875
vt 0.015625 1
vt 0 1
vt 0 0.96875
vt 0.015625 1
vt 0 1
vt 0 0.96875
vt 0.015625 0.96875
vt 0.015625 1
vt 0 1
vt 0 0.977903125
vt 0.015625 0.977903125
vt 0.015625 0.977903125
vt 0.015625 1
vt 0 1
vt 0 0.977903125
vt 0.015625 0.977903125
vt 0.015625 1
vt 0 1
vt 0 0.977903125
vt 0.015625 1
vt 0 1
vt 0 0.977903125
vt 0.015625 0.977903125
vt 0 1
vt 0 0.977903125
vt 0.015625 0.977903125
vt 0.015625 1
vt 0 0.977903125
vt 0.015625 0.977903125
vt 0.015625 1
vt 0 1
vt 0 0.977903125
vt 0.015625 0.977903125
vt 0.015625 1
vt 0 1
vt 0 1
vt 0 0.977903125
vt 0.015625 0.977903125
vt 0.015625 1
vt 0 0.96875
vt 0.022096875 0.96875
vt 0.022096875 1
vt 0 1
vt 0 1
vt 0 0.96875
vt 0.022096875 0.96875
vt 0.022096875 1
vt 0 1
vt 0 0.96875
vt 0.022096875 0.96875
vt 0.022096875 1
vt 0 0.96875
vt 0.022096875 0.96875
vt 0.022096875 1
vt 0 1
vt 0.0110484375 0.9808625
vt 0.022096875 1
vt 0 1
vt 0.0110484375 0.9808625
vt 0.022096875 1
vt 0 1
vt 0.0110484375 0.9808625
vt 0.022096875 1
vt 0 1
vt 0.0110484375 0.9808625
vt 0.022096875 1
vt 0 1
vt 0.0110484375 1
vt 0 0.9808640625
vt 0.022096875 0.9808640625
vt 0.0110484375 1
vt 0 0.9808640625
vt 0.022096875 0.9808640625
vt 0.0110484375 1
vt 0 0.9808640625
vt 0.022096875 0.9808640625
vt 0.0110484375 1
vt 0 0.9808640625
vt 0.022096875 0.9808640625
vn 0.9997120944898279 0.023992783160131335 0.0002729230521774644
vn -0.9999999627350514 -2.1522821656647204e-16 0.00027300164068364463
vn 0 3.632606081386613e-15 -1
vn -4.702093386098383e-15 -2.220446049250313e-16 1
vn 0 1 2.220446049250313e-16
vn 0 -1 -2.220446049250313e-16
vn 0.7226292178232805 3.204148285522851e-15 -0.691235859564674
vn -0.7304767649091576 1.7013172818494873e-15 -0.6829375490686184
vn 0 0.7114704826184399 -0.7027159827146984
vn 0 -0.7195600613942954 -0.6944302110696495
vn 0.7229376910122528 -1.5341355575923098e-16 0.6909132325508555
vn -0.7147638943984703 -2.087004205023502e-15 0.699365837930573
vn 0 0.7016489151769547 0.7125228416205356
vn -3.3116198074115608e-15 -0.7099205591577354 0.7042817615735681
vn 0.7202534162608306 -0.693710554766512 0.0008261780322462675
vn 0.7282215346438018 0.6853418099612967 1.447488173413037e-16
vn -0.7119700996484107 -0.7022097814803153 -2.175063814809812e-16
vn -0.7282215346438018 0.6853418099612967 1.589804326070646e-16
vn 0.5977137346271896 0.5625186749365938 0.5712364062151472
vn -0.5886674486695543 0.567195656305152 0.5759858699182172
vn 0.6021443585094679 -0.5667915098522186 0.5622895658596769
vn -0.602074522546366 -0.5668288982117476 0.5623266572488109
vn 0.5920433801316684 0.5733783992747443 -0.566323094432322
vn -0.6008345891292354 0.5687305626155695 -0.5617324484600128
vn 0.5828839170512227 -0.5780545934089066 -0.5710509839601776
vn -0.6007785413559313 -0.568841513633994 -0.5616800482595284
usemtl none
f 16/1/1 14/2/1 13/3/1 15/4/1
f 9/5/2 10/6/2 12/7/2 11/8/2
f 1/9/3 2/10/3 4/11/3 3/12/3
f 8/13/4 6/14/4 5/15/4 7/16/4
f 21/17/5 22/18/5 24/19/5 23/20/5
f 20/21/6 18/22/6 17/23/6 19/24/6
f 2/25/7 1/26/7 14/27/7 16/28/7
f 10/29/8 3/30/8 4/31/8 12/32/8
f 22/33/9 1/34/9 3/35/9 24/36/9
f 4/37/10 2/38/10 18/39/10 20/40/10
f 13/41/11 5/42/11 6/43/11 15/44/11
f 8/45/12 7/46/12 9/47/12 11/48/12
f 7/49/13 5/50/13 21/51/13 23/52/13
f 17/53/14 6/54/14 8/55/14 19/56/14
f 15/57/15 17/58/15 18/59/15 16/60/15
f 22/61/16 21/62/16 13/63/16 14/64/16
f 20/65/17 19/66/17 11/67/17 12/68/17
f 9/69/18 23/70/18 24/71/18 10/72/18
f 5/73/19 13/74/19 21/75/19
f 7/76/20 23/77/20 9/78/20
f 6/79/21 17/80/21 15/81/21
f 8/82/22 11/83/22 19/84/22
f 1/85/23 22/86/23 14/87/23
f 3/88/24 10/89/24 24/90/24
f 2/91/25 16/92/25 18/93/25
f 4/94/26 20/95/26 12/96/26