# Made in Blockbench 5.1.6
mtllib warning.mtl

o cube
v 0.20625000000000004 0.5650084606501796 -0.004725089692279222
v 0.20625000000000004 0.5698613177458519 -0.022836198935199392
v 0.20625000000000004 0.005073333223235301 -0.1547592549001467
v 0.20625000000000004 0.009926190318907601 -0.1728703641430669
v -0.20000000000000007 0.5698613177458519 -0.022836198935199392
v -0.20000000000000007 0.5650084606501796 -0.004725089692279222
v -0.20000000000000007 0.009926190318907601 -0.1728703641430669
v -0.20000000000000007 0.005073333223235301 -0.1547592549001467
vt 0.0015625000000000083 0.980859375
vt 0.10312500000000004 0.980859375
vt 0.10312500000000004 0.8359375
vt 0.0015625000000000083 0.8359375
vt 0.026562500000000003 0.980859375
vt 0.03125000000000004 0.980859375
vt 0.03125000000000004 0.8359375
vt 0.026562500000000003 0.8359375
vt 0 0.980859375
vt 0.10156250000000003 0.980859375
vt 0.10156250000000003 0.8359375
vt 0 0.8359375
vt 0 0.980859375
vt 0.004687500000000039 0.980859375
vt 0.004687500000000039 0.8359375
vt 0 0.8359375
vt 0 1
vt 0.10156250000000003 1
vt 0.10156250000000003 0.9953124999999999
vt 0 0.9953124999999999
vt 0 0.9734375
vt 0.10156250000000003 0.9734375
vt 0.10156250000000003 0.96875
vt 0 0.96875
vn 0 0.25881904510252074 -0.9659258262890683
vn 1 0 0
vn 0 -0.25881904510252074 0.9659258262890683
vn -1 0 0
vn 0 0.9659258262890683 0.25881904510252074
vn 0 -0.9659258262890683 -0.25881904510252074
usemtl none
f 4/4/1 7/3/1 5/2/1 2/1/1
f 3/8/2 4/7/2 2/6/2 1/5/2
f 8/12/3 3/11/3 1/10/3 6/9/3
f 7/16/4 8/15/4 6/14/4 5/13/4
f 6/20/5 1/19/5 2/18/5 5/17/5
f 7/24/6 4/23/6 3/22/6 8/21/6
o cube
v 0.20625000000000004 0.5686580897215924 0.03068455610212248
v 0.20625000000000004 0.5638052326259201 0.012573446859202309
v 0.20625000000000004 0.0011766667767647322 0.18274074509985344
v 0.20625000000000004 -0.0036761903189075715 0.16462963585693327
v -0.20000000000000007 0.5638052326259201 0.012573446859202309
v -0.20000000000000007 0.5686580897215924 0.03068455610212248
v -0.20000000000000007 -0.0036761903189075715 0.16462963585693327
v -0.20000000000000007 0.0011766667767647322 0.18274074509985344
vt 0.0015625000000000083 0.9828125
vt 0.10312500000000004 0.9828125
vt 0.10312500000000004 0.8359375
vt 0.0015625000000000083 0.8359375
vt 0.026562500000000003 0.9828125
vt 0.03125000000000005 0.9828125
vt 0.03125000000000005 0.8359375
vt 0.026562500000000003 0.8359375
vt 0 0.9828125
vt 0.10156250000000003 0.9828125
vt 0.10156250000000003 0.8359375
vt 0 0.8359375
vt 0 0.9828125
vt 0.004687500000000046 0.9828125
vt 0.004687500000000046 0.8359375
vt 0 0.8359375
vt 0 1
vt 0.10156250000000003 1
vt 0.10156250000000003 0.9953124999999999
vt 0 0.9953124999999999
vt 0 0.9734375
vt 0.10156250000000003 0.9734375
vt 0.10156250000000003 0.96875
vt 0 0.96875
vn 0 -0.25881904510252074 -0.9659258262890683
vn 1 0 0
vn 0 0.25881904510252074 0.9659258262890683
vn -1 0 0
vn 0 0.9659258262890683 -0.25881904510252074
vn 0 -0.9659258262890683 0.25881904510252074
usemtl none
f 12/28/7 15/27/7 13/26/7 10/25/7
f 11/32/8 12/31/8 10/30/8 9/29/8
f 16/36/9 11/35/9 9/34/9 14/33/9
f 15/40/10 16/39/10 14/38/10 13/37/10
f 14/44/11 9/43/11 10/42/11 13/41/11
f 15/48/12 12/47/12 11/46/12 16/45/12
o cube
v 0.20625000000000004 0.6193417883789396 0.009833481594737542
v 0.20625000000000004 0.6241946454746119 -0.008277627648182628
v 0.20625000000000004 0.595193642721713 0.0033630054671745513
v 0.20625000000000004 0.6000464998173853 -0.014748103775745619
v -0.20000000000000007 0.6241946454746119 -0.008277627648182628
v -0.20000000000000007 0.6193417883789396 0.009833481594737542
v -0.20000000000000007 0.6000464998173853 -0.014748103775745619
v -0.20000000000000007 0.595193642721713 0.0033630054671745513
vt 0.0015625000000000083 0.994921875
vt 0.10312500000000004 0.994921875
vt 0.10312500000000004 0.988671875
vt 0.0015625000000000083 0.988671875
vt 0.026562500000000003 0.994921875
vt 0.03125000000000004 0.994921875
vt 0.03125000000000004 0.988671875
vt 0.026562500000000003 0.988671875
vt 0 0.994921875
vt 0.10156250000000003 0.994921875
vt 0.10156250000000003 0.988671875
vt 0 0.988671875
vt 0 0.994921875
vt 0.004687500000000039 0.994921875
vt 0.004687500000000039 0.988671875
vt 0 0.988671875
vt 0 1
vt 0.10156250000000003 1
vt 0.10156250000000003 0.9953124999999999
vt 0 0.9953124999999999
vt 0 0.9734375
vt 0.10156250000000003 0.9734375
vt 0.10156250000000003 0.96875
vt 0 0.96875
vn 0 0.25881904510252074 -0.9659258262890683
vn 1 0 0
vn 0 -0.25881904510252074 0.9659258262890683
vn -1 0 0
vn 0 0.9659258262890683 0.25881904510252074
vn 0 -0.9659258262890683 -0.25881904510252074
usemtl none
f 20/52/13 23/51/13 21/50/13 18/49/13
f 19/56/14 20/55/14 18/54/14 17/53/14
f 24/60/15 19/59/15 17/58/15 22/57/15
f 23/64/16 24/63/16 22/62/16 21/61/16
f 22/68/17 17/67/17 18/66/17 21/65/17
f 23/72/18 20/71/18 19/70/18 24/69/18
o cube
v 0.20625000000000004 0.6229914174503525 0.016125984815105715
v 0.20625000000000004 0.6181385603546802 -0.0019851244278144553
v 0.20625000000000004 0.5988432717931258 0.022596460942668706
v 0.20625000000000004 0.5939904146974535 0.004485351699748535
v -0.20000000000000007 0.6181385603546802 -0.0019851244278144553
v -0.20000000000000007 0.6229914174503525 0.016125984815105715
v -0.20000000000000007 0.5939904146974535 0.004485351699748535
v -0.20000000000000007 0.5988432717931258 0.022596460942668706
vt 0.0015625000000000083 0.996875
vt 0.10312500000000004 0.996875
vt 0.10312500000000004 0.990625
vt 0.0015625000000000083 0.990625
vt 0.026562500000000003 0.996875
vt 0.03125000000000005 0.996875
vt 0.03125000000000005 0.990625
vt 0.026562500000000003 0.990625
vt 0 0.996875
vt 0.10156250000000003 0.996875
vt 0.10156250000000003 0.990625
vt 0 0.990625
vt 0 0.996875
vt 0.004687500000000046 0.996875
vt 0.004687500000000046 0.990625
vt 0 0.990625
vt 0 1
vt 0.10156250000000003 1
vt 0.10156250000000003 0.9953124999999999
vt 0 0.9953124999999999
vt 0 0.9734375
vt 0.10156250000000003 0.9734375
vt 0.10156250000000003 0.96875
vt 0 0.96875
vn 0 -0.25881904510252074 -0.9659258262890683
vn 1 0 0
vn 0 0.25881904510252074 0.9659258262890683
vn -1 0 0
vn 0 0.9659258262890683 -0.25881904510252074
vn 0 -0.9659258262890683 0.25881904510252074
usemtl none
f 28/76/19 31/75/19 29/74/19 26/73/19
f 27/80/20 28/79/20 26/78/20 25/77/20
f 32/84/21 27/83/21 25/82/21 30/81/21
f 31/88/22 32/87/22 30/86/22 29/85/22
f 30/92/23 25/91/23 26/90/23 29/89/23
f 31/96/24 28/95/24 27/94/24 32/93/24
o cube
v 0.20625000000000004 0.595193642721713 0.0033630054671745513
v 0.20625000000000004 0.6000464998173853 -0.014748103775745619
v 0.20625000000000004 0.5650084606501796 -0.004725089692279222
v 0.20625000000000004 0.5698613177458519 -0.022836198935199392
v 0.09374999999999999 0.6000464998173853 -0.014748103775745619
v 0.09374999999999999 0.595193642721713 0.0033630054671745513
v 0.09374999999999999 0.5698613177458519 -0.022836198935199392
v 0.09374999999999999 0.5650084606501796 -0.004725089692279222
vt 0.0015625000000000083 0.988671875
vt 0.029687500000000026 0.988671875
vt 0.029687500000000026 0.980859375
vt 0.0015625000000000083 0.980859375
vt 0.026562500000000003 0.988671875
vt 0.03125000000000004 0.988671875
vt 0.03125000000000004 0.980859375
vt 0.026562500000000003 0.980859375
vt 0.07343750000000002 0.988671875
vt 0.10156250000000003 0.988671875
vt 0.10156250000000003 0.980859375
vt 0.07343750000000002 0.980859375
vt 0 0.988671875
vt 0.004687500000000039 0.988671875
vt 0.004687500000000039 0.980859375
vt 0 0.980859375
vt 0.07343750000000002 1
vt 0.10156250000000003 1
vt 0.10156250000000003 0.9953124999999999
vt 0.07343750000000002 0.9953124999999999
vt 0.07343750000000002 0.9734375
vt 0.10156250000000003 0.9734375
vt 0.10156250000000003 0.96875
vt 0.07343750000000002 0.96875
vn 0 0.25881904510252074 -0.9659258262890683
vn 1 0 0
vn 0 -0.25881904510252074 0.9659258262890683
vn -1 0 0
vn 0 0.9659258262890683 0.25881904510252074
vn 0 -0.9659258262890683 -0.25881904510252074
usemtl none
f 36/100/25 39/99/25 37/98/25 34/97/25
f 35/104/26 36/103/26 34/102/26 33/101/26
f 40/108/27 35/107/27 33/106/27 38/105/27
f 39/112/28 40/111/28 38/110/28 37/109/28
f 38/116/29 33/115/29 34/114/29 37/113/29
f 39/120/30 36/119/30 35/118/30 40/117/30
o cube
v -0.08749999999999997 0.595193642721713 0.0033630054671745513
v -0.08749999999999997 0.6000464998173853 -0.014748103775745619
v -0.08749999999999997 0.5650084606501796 -0.004725089692279222
v -0.08749999999999997 0.5698613177458519 -0.022836198935199392
v -0.20000000000000007 0.6000464998173853 -0.014748103775745619
v -0.20000000000000007 0.595193642721713 0.0033630054671745513
v -0.20000000000000007 0.5698613177458519 -0.022836198935199392
v -0.20000000000000007 0.5650084606501796 -0.004725089692279222
vt 0.07500000000000002 0.988671875
vt 0.10312500000000005 0.988671875
vt 0.10312500000000005 0.980859375
vt 0.07500000000000002 0.980859375
vt 0.026562500000000003 0.988671875
vt 0.03125000000000004 0.988671875
vt 0.03125000000000004 0.980859375
vt 0.026562500000000003 0.980859375
vt 0 0.988671875
vt 0.02812500000000003 0.988671875
vt 0.02812500000000003 0.980859375
vt 0 0.980859375
vt 0 0.988671875
vt 0.004687500000000039 0.988671875
vt 0.004687500000000039 0.980859375
vt 0 0.980859375
vt 0 1
vt 0.02812500000000003 1
vt 0.02812500000000003 0.9953124999999999
vt 0 0.9953124999999999
vt 0 0.9734375
vt 0.02812500000000003 0.9734375
vt 0.02812500000000003 0.96875
vt 0 0.96875
vn 0 0.25881904510252074 -0.9659258262890683
vn 1 0 0
vn 0 -0.25881904510252074 0.9659258262890683
vn -1 0 0
vn 0 0.9659258262890683 0.25881904510252074
vn 0 -0.9659258262890683 -0.25881904510252074
usemtl none
f 44/124/31 47/123/31 45/122/31 42/121/31
f 43/128/32 44/127/32 42/126/32 41/125/32
f 48/132/33 43/131/33 41/130/33 46/129/33
f 47/136/34 48/135/34 46/134/34 45/133/34
f 46/140/35 41/139/35 42/138/35 45/137/35
f 47/144/36 44/143/36 43/142/36 48/141/36
o cube
v -0.08749999999999997 0.5988432717931257 0.022596460942668734
v -0.08749999999999997 0.5939904146974534 0.004485351699748563
v -0.08749999999999997 0.5686580897215923 0.030684556102122507
v -0.08749999999999997 0.56380523262592 0.012573446859202336
v -0.20000000000000007 0.5939904146974534 0.004485351699748563
v -0.20000000000000007 0.5988432717931257 0.022596460942668734
v -0.20000000000000007 0.56380523262592 0.012573446859202336
v -0.20000000000000007 0.5686580897215923 0.030684556102122507
vt 0.075 0.990625
vt 0.10312500000000002 0.990625
vt 0.10312500000000002 0.9828125
vt 0.075 0.9828125
vt 0.026562500000000003 0.990625
vt 0.03125000000000005 0.990625
vt 0.03125000000000005 0.9828125
vt 0.026562500000000003 0.9828125
vt 0 0.990625
vt 0.02812500000000003 0.990625
vt 0.02812500000000003 0.9828125
vt 0 0.9828125
vt 0 0.990625
vt 0.004687500000000046 0.990625
vt 0.004687500000000046 0.9828125
vt 0 0.9828125
vt 0 1
vt 0.02812500000000003 1
vt 0.02812500000000003 0.9953124999999999
vt 0 0.9953124999999999
vt 0 0.9734375
vt 0.02812500000000003 0.9734375
vt 0.02812500000000003 0.96875
vt 0 0.96875
vn 0 -0.25881904510252074 -0.9659258262890683
vn 1 0 0
vn 0 0.25881904510252074 0.9659258262890683
vn -1 0 0
vn 0 0.9659258262890683 -0.25881904510252074
vn 0 -0.9659258262890683 0.25881904510252074
usemtl none
f 52/148/37 55/147/37 53/146/37 50/145/37
f 51/152/38 52/151/38 50/150/38 49/149/38
f 56/156/39 51/155/39 49/154/39 54/153/39
f 55/160/40 56/159/40 54/158/40 53/157/40
f 54/164/41 49/163/41 50/162/41 53/161/41
f 55/168/42 52/167/42 51/166/42 56/165/42
o cube
v 0.20625000000000004 0.5988432717931257 0.022596460942668734
v 0.20625000000000004 0.5939904146974534 0.004485351699748563
v 0.20625000000000004 0.5686580897215923 0.030684556102122507
v 0.20625000000000004 0.56380523262592 0.012573446859202336
v 0.09375 0.5939904146974534 0.004485351699748563
v 0.09375 0.5988432717931257 0.022596460942668734
v 0.09375 0.56380523262592 0.012573446859202336
v 0.09375 0.5686580897215923 0.030684556102122507
vt 0.075 0.990625
vt 0.10312500000000002 0.990625
vt 0.10312500000000002 0.9828125
vt 0.075 0.9828125
vt 0.026562500000000003 0.990625
vt 0.03125000000000005 0.990625
vt 0.03125000000000005 0.9828125
vt 0.026562500000000003 0.9828125
vt 0 0.990625
vt 0.02812500000000003 0.990625
vt 0.02812500000000003 0.9828125
vt 0 0.9828125
vt 0 0.990625
vt 0.004687500000000046 0.990625
vt 0.004687500000000046 0.9828125
vt 0 0.9828125
vt 0 1
vt 0.02812500000000003 1
vt 0.02812500000000003 0.9953124999999999
vt 0 0.9953124999999999
vt 0 0.9734375
vt 0.02812500000000003 0.9734375
vt 0.02812500000000003 0.96875
vt 0 0.96875
vn 0 -0.25881904510252074 -0.9659258262890683
vn 1 0 0
vn 0 0.25881904510252074 0.9659258262890683
vn -1 0 0
vn 0 0.9659258262890683 -0.25881904510252074
vn 0 -0.9659258262890683 0.25881904510252074
usemtl none
f 60/172/43 63/171/43 61/170/43 58/169/43
f 59/176/44 60/175/44 58/174/44 57/173/44
f 64/180/45 59/179/45 57/178/45 62/177/45
f 63/184/46 64/183/46 62/182/46 61/181/46
f 62/188/47 57/187/47 58/186/47 61/185/47
f 63/192/48 60/191/48 59/190/48 64/189/48
o plane
v 0.3875 0.0015625 0.1780842008536519
v 0.21150152880277845 0.0015625 0.39375
v -0.14972104684842355 0 0.39375
v -0.27431671969320737 1.1102230246251565e-16 0.31048035567017196
v -0.3147400568380263 0.0015625000000001111 0.21279902702386755
v -0.2811042816219702 0.0015625000000001111 0.09239919698528021
v -0.2630404130832406 0.0015625 -0.002298170009138123
v -0.32872159158284425 0.0015625 -0.06949086886065758
v 0.2926737667208887 0.0015625 -0.29437596225898827
v 0.32267749921736855 0.0015625 -0.13614594750557146
v 0.3875 0.0015625 -0.0177947490766866
v -0.22510804921296002 0.0015625 -0.30816760147671446
v -0.017060970283468882 0.0015625 -0.36872064416191497
v 0.18434870858503627 0.0015625 -0.3427257904878183
v 0.3875 0 -0.39375
vt 0.03651073558283635 0.776434807723755
vt 0.07670288811341178 0.75
vt 0.1932262996137995 0.75
vt 0.023470949407088326 0.8074447533257563
vt 0.1932262996137995 0.75
vt 0.25 0.8184653330623327
vt 0.03432119947678382 0.8456669215919745
vt 0.03432119947678382 0.8456669215919745
vt 0.023470949407088326 0.8074447533257563
vt 0.1932262996137995 0.75
vt 0.03432119947678382 0.8456669215919745
vt 0.04014825384411594 0.8757295777806787
vt 0.01896077690875997 0.8970605932890976
vt 0.25 0.8184653330623327
vt 0.25 0.8806491266910116
vt 0.2290895158765705 0.9182209357160545
vt 0.04014825384411594 0.8757295777806787
vt 0.04014825384411594 0.8757295777806787
vt 0.03432119947678382 0.8456669215919745
vt 0.25 0.8184653330623327
vt 0.2290895158765705 0.9182209357160545
vt 0.21941089249060927 0.9684526864314249
vt 0.04014825384411594 0.8757295777806787
vt 0.1844673253500115 0.983801838250101
vt 0.11949646119888098 0.9920541727498143
vt 0.05238450025388396 0.9728309845957823
vt 0.01896077690875997 0.8970605932890976
vt 0.25 1
vt 0.04014825384411594 0.8757295777806787
vt 0.21941089249060927 0.9684526864314249
vt 0.01896077690875997 0.8970605932890976
vt 0.04014825384411594 0.8757295777806787
vt 0.25 1
vt 0.01896077690875997 0.8970605932890976
vt 0.25 1
vt 0.1844673253500115 0.983801838250101
vn -0.0043254568297504984 0.9999697004227569 0.006472144902279697
vn 1.5032891199486356e-16 1 1.2267897270945504e-16
vn 1.9248193239647186e-16 1 5.3773157397023485e-17
vn 1.0035371031449925e-15 1 -9.809622284750789e-16
vn 0 1 0
vn 3.0875085937830896e-16 1 -1.1134952414643299e-15
vn 0 1 0
vn 0 1 0
vn -0.016568579963961754 0.9993656656701185 -0.0315237757525773
vn 0.0015123084125491667 0.9999977637905824 -0.0014782885713608726
vn 0.014549582065347231 0.9995208307935121 0.027320660159871984
usemtl none
f 68/193/49 67/194/49 66/195/49 69/196/49
f 66/197/50 65/198/50 70/199/50
f 70/200/51 69/201/51 66/202/51
f 70/203/52 71/204/52 72/205/52
f 65/206/53 75/207/53 74/208/53 71/209/53
f 71/210/54 70/211/54 65/212/54
f 74/213/55 73/214/55 71/215/55
f 78/216/56 77/217/56 76/218/56 72/219/56
f 79/220/57 71/221/57 73/222/57
f 72/223/58 71/224/58 79/225/58
f 72/226/59 79/227/59 78/228/59
o beveled_cuboid
v -0.3250000000000006 0.47500000000000064 -0.3500000000000007
v -0.3250000000000006 0.47500000000000064 -0.5750000000000007
v -0.5625000000000007 0.47500000000000064 -0.3500000000000007
v -0.5625000000000007 0.47500000000000064 -0.5750000000000007
v -0.3187500000000006 0 -0.3375000000000007
v -0.3187500000000006 0 -0.5875000000000008
v -0.5687500000000008 0 -0.3375000000000007
v -0.5687500000000008 0 -0.5875000000000008
v -0.6312500000000008 0.03125 -0.4000000000000007
v -0.6312500000000008 0.51875 -0.4000000000000007
v -0.6312500000000008 0.03125 -0.5250000000000007
v -0.6312500000000008 0.51875 -0.5250000000000007
v -0.2562500000000006 0.03125 -0.4000000000000007
v -0.2562500000000006 0.51875 -0.4000000000000007
v -0.2562500000000006 0.03125 -0.5250000000000007
v -0.2562500000000006 0.51875 -0.5250000000000007
v -0.38125000000000064 0.03125 -0.6500000000000008
v -0.38125000000000064 0.51875 -0.6500000000000008
v -0.5062500000000006 0.03125 -0.6500000000000008
v -0.5062500000000006 0.51875 -0.6500000000000008
v -0.38125000000000064 0.03125 -0.2750000000000007
v -0.38125000000000064 0.51875 -0.2750000000000007
v -0.5062500000000006 0.03125 -0.2750000000000007
v -0.5062500000000006 0.51875 -0.2750000000000007
vt 0.03125 1
vt 0 1
vt 0 0.96875
vt 0.03125 0.96875
vt 0.03125 0.96875
vt 0.03125 1
vt 0 1
vt 0 0.96875
vt 0.03125 0.96875
vt 0.03125 1
vt 0 1
vt 0 0.96875
vt 0 0.96875
vt 0.03125 0.96875
vt 0.03125 1
vt 0 1
vt 0.03125 0.96875
vt 0.03125 1
vt 0 1
vt 0 0.96875
vt 0.03125 1
vt 0 1
vt 0 0.96875
vt 0.03125 0.96875
vt 0.03125 1
vt 0 1
vt 0 0.977903125
vt 0.03125 0.977903125
vt 0.03125 0.977903125
vt 0.03125 1
vt 0 1
vt 0 0.977903125
vt 0.03125 0.977903125
vt 0.03125 1
vt 0 1
vt 0 0.977903125
vt 0.03125 1
vt 0 1
vt 0 0.977903125
vt 0.03125 0.977903125
vt 0 1
vt 0 0.977903125
vt 0.03125 0.977903125
vt 0.03125 1
vt 0 0.977903125
vt 0.03125 0.977903125
vt 0.03125 1
vt 0 1
vt 0 0.977903125
vt 0.03125 0.977903125
vt 0.03125 1
vt 0 1
vt 0 1
vt 0 0.977903125
vt 0.03125 0.977903125
vt 0.03125 1
vt 0 0.96875
vt 0.022096875000000002 0.96875
vt 0.022096875000000002 1
vt 0 1
vt 0 1
vt 0 0.96875
vt 0.022096875000000002 0.96875
vt 0.022096875000000002 1
vt 0 1
vt 0 0.96875
vt 0.022096875000000002 0.96875
vt 0.022096875000000002 1
vt 0 0.96875
vt 0.022096875000000002 0.96875
vt 0.022096875000000002 1
vt 0 1
vt 0.011048437500000001 0.9808640624999999
vt 0.022096875000000002 1
vt 0 1
vt 0.011048437500000001 0.9808640624999999
vt 0.022096875000000002 1
vt 0 1
vt 0.011048437500000001 0.9808640624999999
vt 0.022096875000000002 1
vt 0 1
vt 0.011048437500000001 0.9808640624999999
vt 0.022096875000000002 1
vt 0 1
vt 0.011048437500000001 1
vt 0 0.9808625
vt 0.022096875000000002 0.9808625
vt 0.011048437500000001 1
vt 0 0.9808625
vt 0.022096875000000002 0.9808625
vt 0.011048437500000001 1
vt 0 0.9808625
vt 0.022096875000000002 0.9808625
vt 0.011048437500000001 1
vt 0 0.9808625
vt 0.022096875000000002 0.9808625
vn 1 0 0
vn -1 0 0
vn 0 1 0
vn 0 -1 0
vn 0 0 1
vn 0 0 -1
vn -0.5368754921931537 0.843661487732111 0
vn 0.5368754921931537 0.843661487732111 0
vn 0 0.8637789008984366 -0.5038710255240809
vn 0 0.8637789008984368 0.5038710255240808
vn 0.44721359549995804 -0.8944271909999161 0
vn -0.44721359549995804 -0.8944271909999161 0
vn 0 -0.8944271909999161 0.44721359549995804
vn 0 -0.8944271909999161 -0.44721359549995804
vn 0.7071067811865476 0 -0.7071067811865476
vn 0.7071067811865475 0 0.7071067811865476
vn -0.7071067811865476 0 -0.7071067811865476
vn -0.7071067811865475 0 0.7071067811865476
vn 0.7071067811865475 9.420554752102648e-16 0.7071067811865476
vn -0.7071067811865475 9.420554752102648e-16 0.7071067811865476
vn 0.7071067811865476 1.2560739669470195e-15 -0.7071067811865476
vn -0.7071067811865476 1.2560739669470195e-15 -0.7071067811865476
vn -0.6767155423319635 0.2900209467137034 -0.6767155423319636
vn 0.6767155423319635 0.2900209467137034 -0.6767155423319636
vn -0.6767155423319636 0.29002094671370354 0.6767155423319636
vn 0.6767155423319636 0.29002094671370354 0.6767155423319636
usemtl none
f 95/229/60 93/230/60 92/231/60 94/232/60
f 88/233/61 89/234/61 91/235/61 90/236/61
f 80/237/62 81/238/62 83/239/62 82/240/62
f 87/241/63 85/242/63 84/243/63 86/244/63
f 100/245/64 101/246/64 103/247/64 102/248/64
f 99/249/65 97/250/65 96/251/65 98/252/65
f 81/253/66 80/254/66 93/255/66 95/256/66
f 89/257/67 82/258/67 83/259/67 91/260/67
f 101/261/68 80/262/68 82/263/68 103/264/68
f 83/265/69 81/266/69 97/267/69 99/268/69
f 92/269/70 84/270/70 85/271/70 94/272/70
f 87/273/71 86/274/71 88/275/71 90/276/71
f 86/277/72 84/278/72 100/279/72 102/280/72
f 96/281/73 85/282/73 87/283/73 98/284/73
f 94/285/74 96/286/74 97/287/74 95/288/74
f 101/289/75 100/290/75 92/291/75 93/292/75
f 99/293/76 98/294/76 90/295/76 91/296/76
f 88/297/77 102/298/77 103/299/77 89/300/77
f 84/301/78 92/302/78 100/303/78
f 86/304/79 102/305/79 88/306/79
f 85/307/80 96/308/80 94/309/80
f 87/310/81 90/311/81 98/312/81
f 80/313/82 101/314/82 93/315/82
f 82/316/83 89/317/83 103/318/83
f 81/319/84 95/320/84 97/321/84
f 83/322/85 99/323/85 91/324/85
o cube
v -0.7922248063071718 1.2697892312511638 -0.40624999999999967
v -0.7922248063071718 1.2697892312511638 -0.4374999999999998
v -0.5015076844803534 0.47105050358314166 -0.40624999999999967
v -0.5015076844803534 0.47105050358314166 -0.4374999999999998
v -0.8215902007067315 1.2591011017722367 -0.4374999999999998
v -0.8215902007067315 1.2591011017722367 -0.40624999999999967
v -0.5308730788799131 0.4603623741042145 -0.4374999999999998
v -0.5308730788799131 0.4603623741042145 -0.40624999999999967
vt 0.009374999999999994 1
vt 0.017187499999999994 1
vt 0.017187499999999994 0.7875
vt 0.009374999999999994 0.7875
vt 0.020312499999999997 1
vt 0.02812500000000001 1
vt 0.02812500000000001 0.7875
vt 0.020312499999999997 0.7875
vt 0.018750000000000017 1
vt 0.026562500000000017 1
vt 0.026562500000000017 0.7875
vt 0.018750000000000017 0.7875
vt 0.003124999999999989 1
vt 0.010937500000000003 1
vt 0.010937500000000003 0.7875
vt 0.003124999999999989 0.7875
vt 0.018750000000000017 0.996875
vt 0.026562500000000017 0.996875
vt 0.026562500000000017 0.9890625
vt 0.018750000000000017 0.9890625
vt 0.018750000000000017 0.9796875
vt 0.026562500000000017 0.9796875
vt 0.026562500000000017 0.971875
vt 0.018750000000000017 0.971875
vn 0 0 -1
vn 0.9396926207859084 0.34202014332566866 0
vn 0 0 1
vn -0.9396926207859084 -0.34202014332566866 0
vn -0.34202014332566866 0.9396926207859084 0
vn 0.34202014332566866 -0.9396926207859084 0
usemtl none
f 107/328/86 110/327/86 108/326/86 105/325/86
f 106/332/87 107/331/87 105/330/87 104/329/87
f 111/336/88 106/335/88 104/334/88 109/333/88
f 110/340/89 111/339/89 109/338/89 108/337/89
f 109/344/90 104/343/90 105/342/90 108/341/90
f 110/348/91 107/347/91 106/346/91 111/345/91
o cube
v -0.27224436558821596 0.5297597230482689 -0.5399221650263928
v -0.2673320445480798 0.527087690678537 -0.5453778502504268
v -0.29226927835363015 0.447536618729502 -0.5176822463007609
v -0.2873569573134939 0.4448645863597701 -0.5231379315247949
v -0.35093583741428674 0.527087690678537 -0.6206550434657983
v -0.35584815845442297 0.5297597230482689 -0.6151993582417642
v -0.3709607501797009 0.4448645863597701 -0.5984151247401663
v -0.37587307121983715 0.447536618729502 -0.5929594395161323
vt 0 0.809375
vt 0.028124999999999997 0.809375
vt 0.028124999999999997 0.7875
vt 0 0.7875
vt 0.026562500000000003 0.809375
vt 0.02851562500000006 0.809375
vt 0.02851562500000006 0.7875
vt 0.026562500000000003 0.7875
vt 0.02968750000000002 0.809375
vt 0.05781250000000002 0.809375
vt 0.05781250000000002 0.7875
vt 0.02968750000000002 0.7875
vt 0.0027343749999999833 0.809375
vt 0.004687500000000039 0.809375
vt 0.004687500000000039 0.7875
vt 0.0027343749999999833 0.7875
vt 0.02968750000000002 0.997265625
vt 0.05781250000000002 0.997265625
vt 0.05781250000000002 0.9953124999999999
vt 0.02968750000000002 0.9953124999999999
vt 0.02968750000000002 0.9734375
vt 0.05781250000000002 0.9734375
vt 0.05781250000000002 0.971484375
vt 0.02968750000000002 0.971484375
vn 0.6287770931374186 -0.34202014332566866 -0.6983277086763401
vn 0.7431448254773951 -5.551115123125783e-17 0.6691306063588573
vn -0.6287770931374186 0.34202014332566866 0.6983277086763401
vn -0.7431448254773951 5.551115123125783e-17 -0.6691306063588573
vn 0.22885614589044795 0.9396926207859086 -0.25417049972150774
vn -0.22885614589044795 -0.9396926207859086 0.25417049972150774
usemtl none
f 115/352/92 118/351/92 116/350/92 113/349/92
f 114/356/93 115/355/93 113/354/93 112/353/93
f 119/360/94 114/359/94 112/358/94 117/357/94
f 118/364/95 119/363/95 117/362/95 116/361/95
f 117/368/96 112/367/96 113/366/96 116/365/96
f 118/372/97 115/371/97 114/370/97 119/369/97
o cube
v -0.2750089708251326 0.521458903668682 -0.5382624623279334
v -0.26927820933130014 0.5252720596975178 -0.5446271177624851
v -0.25119497637178595 0.4415236761249545 -0.5647105825958934
v -0.2454642148779535 0.4453368321537903 -0.5710752380304449
v -0.3528820021975072 0.5252720596975178 -0.6199043109778565
v -0.35861276369133965 0.521458903668682 -0.6135396555433048
v -0.32906800774416056 0.4453368321537903 -0.6463524312458163
v -0.334798769237993 0.4415236761249545 -0.6399877758112648
vt 0 0.809375
vt 0.02812500000000001 0.809375
vt 0.02812500000000001 0.7875
vt 0 0.7875
vt 0.02578124999999999 0.809375
vt 0.028125000000000053 0.809375
vt 0.028125000000000053 0.7875
vt 0.02578124999999999 0.7875
vt 0.029687499999999978 0.809375
vt 0.05781249999999999 0.809375
vt 0.05781249999999999 0.7875
vt 0.029687499999999978 0.7875
vt 0.003124999999999989 0.809375
vt 0.00546875000000005 0.809375
vt 0.00546875000000005 0.7875
vt 0.003124999999999989 0.7875
vt 0.029687499999999978 0.996875
vt 0.05781249999999999 0.996875
vt 0.05781249999999999 0.99453125
vt 0.029687499999999978 0.99453125
vt 0.029687499999999978 0.97421875
vt 0.05781249999999999 0.97421875
vt 0.05781249999999999 0.9718749999999999
vt 0.029687499999999978 0.9718749999999999
vn 0.6112812260087728 0.40673664307580015 -0.6788965796854782
vn 0.7431448254773957 8.326672684688674e-17 0.6691306063588568
vn -0.6112812260087728 -0.40673664307580015 0.6788965796854782
vn -0.7431448254773957 -8.326672684688674e-17 -0.6691306063588568
vn -0.272159936609676 0.913545457642601 0.30226423163382726
vn 0.272159936609676 -0.913545457642601 -0.30226423163382726
usemtl none
f 123/376/98 126/375/98 124/374/98 121/373/98
f 122/380/99 123/379/99 121/378/99 120/377/99
f 127/384/100 122/383/100 120/382/100 125/381/100
f 126/388/101 127/387/101 125/386/101 124/385/101
f 125/392/102 120/391/102 121/390/102 124/389/102
f 126/396/103 123/395/103 122/394/103 127/393/103
o cube
v -0.25090222965086206 0.4458380074450247 -0.5650357107678265
v -0.24568181100931358 0.4462468821031727 -0.570833573043778
v -0.24783801551403106 0.3584579231539996 -0.5684388653363077
v -0.24261759687248255 0.3588667978121476 -0.5742367276122591
v -0.32928560387552064 0.4462468821031727 -0.6461107662591494
v -0.3345060225170692 0.4458380074450247 -0.640312903983198
v -0.32622138973868964 0.3588667978121476 -0.6495139208276305
v -0.3314418083802381 0.3584579231539996 -0.643716058551679
vt 0 0.809375
vt 0.02812500000000001 0.809375
vt 0.02812500000000001 0.7875
vt 0 0.7875
vt 0.026171874999999997 0.809375
vt 0.028125000000000053 0.809375
vt 0.028125000000000053 0.7875
vt 0.026171874999999997 0.7875
vt 0.029687499999999978 0.809375
vt 0.05781249999999999 0.809375
vt 0.05781249999999999 0.7875
vt 0.029687499999999978 0.7875
vt 0.003124999999999989 0.809375
vt 0.005078125000000044 0.809375
vt 0.005078125000000044 0.7875
vt 0.003124999999999989 0.7875
vt 0.029687499999999978 0.996875
vt 0.05781249999999999 0.996875
vt 0.05781249999999999 0.994921875
vt 0.029687499999999978 0.994921875
vt 0.029687499999999978 0.973828125
vt 0.05781249999999999 0.973828125
vt 0.05781249999999999 0.9718749999999999
vt 0.029687499999999978 0.9718749999999999
vn 0.6682135861181908 0.05233595624294385 -0.7421263713217608
vn 0.7431448254773957 2.42861286636753e-17 0.6691306063588566
vn -0.6682135861181908 -0.05233595624294385 0.7421263713217608
vn -0.7431448254773957 -2.42861286636753e-17 -0.6691306063588566
vn -0.03501959013521161 0.9986295347545739 0.038893195068355105
vn 0.03501959013521161 -0.9986295347545739 -0.038893195068355105
usemtl none
f 131/400/104 134/399/104 132/398/104 129/397/104
f 130/404/105 131/403/105 129/402/105 128/401/105
f 135/408/106 130/407/106 128/406/106 133/405/106
f 134/412/107 135/411/107 133/410/107 132/409/107
f 133/416/108 128/415/108 129/414/108 132/413/108
f 134/420/109 131/419/109 130/418/109 135/417/109
o cube
v -0.24801233501218717 0.36460397233781827 -0.5689365921377593
v -0.24384618274727704 0.3640592489456454 -0.5735635729818525
v -0.250928263761807 0.31479423743323104 -0.5656981251760812
v -0.24676211149689692 0.31424951404105816 -0.5703251060201744
v -0.3274499756134841 0.3640592489456454 -0.6488407661972238
v -0.33161612787839423 0.36460397233781827 -0.6442137853531307
v -0.3303659043631039 0.31424951404105816 -0.6456022992355458
v -0.33453205662801405 0.31479423743323104 -0.6409753183914526
vt 0 0.809375
vt 0.028125000000000004 0.809375
vt 0.028125000000000004 0.796875
vt 0 0.796875
vt 0.026562500000000003 0.809375
vt 0.028125000000000053 0.809375
vt 0.028125000000000053 0.796875
vt 0.026562500000000003 0.796875
vt 0.029687499999999978 0.809375
vt 0.05781249999999998 0.809375
vt 0.05781249999999998 0.796875
vt 0.029687499999999978 0.796875
vt 0.003124999999999989 0.809375
vt 0.004687500000000039 0.809375
vt 0.004687500000000039 0.796875
vt 0.003124999999999989 0.796875
vt 0.029687499999999978 0.996875
vt 0.05781249999999998 0.996875
vt 0.05781249999999998 0.9953124999999999
vt 0.029687499999999978 0.9953124999999999
vt 0.029687499999999978 0.9734375
vt 0.05781249999999998 0.9734375
vt 0.05781249999999998 0.9718749999999999
vt 0.029687499999999978 0.9718749999999999
vn 0.6665843623856079 -0.08715574274765812 -0.740316935054897
vn 0.7431448254773957 2.7755575615628914e-17 0.6691306063588567
vn -0.6665843623856079 0.08715574274765812 0.740316935054897
vn -0.7431448254773957 -2.7755575615628914e-17 -0.6691306063588567
vn 0.058318574992397 0.9961946980917457 -0.06476933923356124
vn -0.058318574992397 -0.9961946980917457 0.06476933923356124
usemtl none
f 139/424/110 142/423/110 140/422/110 137/421/110
f 138/428/111 139/427/111 137/426/111 136/425/111
f 143/432/112 138/431/112 136/430/112 141/429/112
f 142/436/113 143/435/113 141/434/113 140/433/113
f 141/440/114 136/439/114 137/438/114 140/437/114
f 142/444/115 139/443/115 138/442/115 143/441/115
o cube
v -0.2697034592322528 0.5266994744750844 -0.5441548299005571
v -0.2677932054009754 0.5279705264846962 -0.5462763817120743
v -0.2624742109160583 0.5024334232564529 -0.5521837235533306
v -0.26056395708478086 0.5037044752660648 -0.5543052753648477
v -0.3513969982671824 0.5279705264846962 -0.6215535749274457
v -0.35330725209845987 0.5266994744750844 -0.6194320231159285
v -0.3441677499509879 0.5037044752660648 -0.6295824685802192
v -0.3460780037822654 0.5024334232564528 -0.627460916768702
vt 0 0.809765625
vt 0.02812500000000001 0.809765625
vt 0.02812500000000001 0.803125
vt 0 0.803125
vt 0.028125000000000025 0.809765625
vt 0.028906250000000036 0.809765625
vt 0.028906250000000036 0.803125
vt 0.028125000000000025 0.803125
vt 0.029687499999999978 0.809765625
vt 0.05781249999999999 0.809765625
vt 0.05781249999999999 0.803125
vt 0.029687499999999978 0.803125
vt 0.0023437500000000056 0.809765625
vt 0.0031250000000000167 0.809765625
vt 0.0031250000000000167 0.803125
vt 0.0023437500000000056 0.803125
vt 0.029687499999999978 0.99765625
vt 0.05781249999999999 0.99765625
vt 0.05781249999999999 0.996875
vt 0.029687499999999978 0.996875
vt 0.029687499999999978 0.9718749999999999
vt 0.05781249999999999 0.9718749999999999
vt 0.05781249999999999 0.97109375
vt 0.029687499999999978 0.97109375
vn 0.6112812260087728 0.40673664307580015 -0.6788965796854782
vn 0.7431448254773957 8.326672684688674e-17 0.6691306063588568
vn -0.6112812260087728 -0.40673664307580015 0.6788965796854782
vn -0.7431448254773957 -8.326672684688674e-17 -0.6691306063588568
vn -0.272159936609676 0.913545457642601 0.30226423163382726
vn 0.272159936609676 -0.913545457642601 -0.30226423163382726
usemtl none
f 147/448/116 150/447/116 148/446/116 145/445/116
f 146/452/117 147/451/117 145/450/117 144/449/117
f 151/456/118 146/455/118 144/454/118 149/453/118
f 150/460/119 151/459/119 149/458/119 148/457/119
f 149/464/120 144/463/120 145/462/120 148/461/120
f 150/468/121 147/467/121 146/466/121 151/465/121
o cube
v -0.252497934121205 0.43163122974927937 -0.5632635014130948
v -0.24310118056641777 0.43236720413394575 -0.5736996535098073
v -0.25178659869658354 0.41134656732457714 -0.5640535194379208
v -0.2423898451417963 0.4120825417092435 -0.5744896715346333
v -0.32670497343262483 0.43236720413394575 -0.6489768467251786
v -0.3361017269874121 0.43163122974927937 -0.6385406946284662
v -0.32599363800800335 0.4120825417092435 -0.6497668647500047
v -0.3353903915627906 0.4113465673245771 -0.6393307126532921
vt 0 0.805859375
vt 0.02812500000000001 0.805859375
vt 0.02812500000000001 0.80078125
vt 0 0.80078125
vt 0.025390624999999986 0.805859375
vt 0.028906250000000064 0.805859375
vt 0.028906250000000064 0.80078125
vt 0.025390624999999986 0.80078125
vt 0.029687499999999978 0.805859375
vt 0.05781249999999999 0.805859375
vt 0.05781249999999999 0.80078125
vt 0.029687499999999978 0.80078125
vt 0.002343749999999978 0.805859375
vt 0.0058593750000000555 0.805859375
vt 0.0058593750000000555 0.80078125
vt 0.002343749999999978 0.80078125
vt 0.029687499999999978 0.99765625
vt 0.05781249999999999 0.99765625
vt 0.05781249999999999 0.994140625
vt 0.029687499999999978 0.994140625
vt 0.029687499999999978 0.974609375
vt 0.05781249999999999 0.974609375
vt 0.05781249999999999 0.97109375
vt 0.029687499999999978 0.97109375
vn 0.6682135861181908 0.05233595624294385 -0.7421263713217608
vn 0.7431448254773957 2.42861286636753e-17 0.6691306063588566
vn -0.6682135861181908 -0.05233595624294385 0.7421263713217608
vn -0.7431448254773957 -2.42861286636753e-17 -0.6691306063588566
vn -0.03501959013521161 0.9986295347545739 0.038893195068355105
vn 0.03501959013521161 -0.9986295347545739 -0.038893195068355105
usemtl none
f 155/472/122 158/471/122 156/470/122 153/469/122
f 154/476/123 155/475/123 153/474/123 152/473/123
f 159/480/124 154/479/124 152/478/124 157/477/124
f 158/484/125 159/483/125 157/482/125 156/481/125
f 157/488/126 152/487/126 153/486/126 156/485/126
f 158/492/127 155/491/127 154/490/127 159/489/127